M48
; DRILL file {KiCad 8.0.4} date 2025-08-19T12:00:55+0300
; FORMAT={-:-/ absolute / metric / decimal}
; #@! TF.CreationDate,2025-08-19T12:00:55+03:00
; #@! TF.GenerationSoftware,Kicad,Pcbnew,8.0.4
; #@! TF.FileFunction,MixedPlating,1,2
FMAT,2
METRIC
; #@! TA.AperFunction,Plated,PTH,ViaDrill
T1C0.400
; #@! TA.AperFunction,Plated,PTH,ComponentDrill
T2C0.500
; #@! TA.AperFunction,Plated,PTH,ComponentDrill
T3C0.800
; #@! TA.AperFunction,Plated,PTH,ComponentDrill
T4C1.000
; #@! TA.AperFunction,Plated,PTH,ComponentDrill
T5C1.200
; #@! TA.AperFunction,NonPlated,NPTH,ComponentDrill
T6C2.200
%
G90
G05
T1
X142.24Y-140.97
X142.24Y-142.24
X144.78Y-119.38
X148.844Y-124.206
X158.75Y-107.95
X163.83Y-82.55
X170.18Y-104.14
X175.26Y-75.184
X175.26Y-140.97
X177.8Y-118.618
X184.668Y-51.572
X185.166Y-131.064
X185.42Y-50.8
X187.198Y-132.334
X187.96Y-50.8
X187.96Y-52.07
X187.96Y-142.24
X195.58Y-138.43
X196.85Y-132.08
X196.85Y-138.43
X198.12Y-50.8
X198.12Y-53.34
X198.12Y-77.47
X198.12Y-110.49
X198.12Y-125.73
X200.66Y-96.52
X200.787Y-110.109
X201.676Y-86.868
X204.47Y-52.07
X205.74Y-52.07
X207.01Y-80.01
X209.55Y-97.79
X212.09Y-72.39
X212.09Y-91.44
T2
X145.554Y-137.406
X149.254Y-127.606
T3
X141.354Y-132.806
X144.78Y-141.732
X148.254Y-130.206
X151.384Y-124.206
X152.654Y-136.906
X154.94Y-141.732
X158.496Y-110.744
X158.496Y-120.904
X159.766Y-128.016
X159.766Y-137.922
X161.544Y-120.65
X161.544Y-124.206
X164.926Y-131.318
X164.926Y-134.62
X167.132Y-82.804
X169.164Y-56.388
X169.164Y-61.976
X169.164Y-72.136
X169.632Y-82.804
X169.926Y-128.016
X169.926Y-131.318
X169.926Y-134.62
X169.926Y-137.922
X171.704Y-120.65
X172.252Y-104.14
X173.228Y-70.104
X173.228Y-80.264
X173.228Y-82.804
X173.228Y-92.964
X173.228Y-96.012
X173.736Y-65.532
X173.776Y-60.96
X174.752Y-104.14
X174.752Y-120.65
X174.752Y-130.81
X176.276Y-60.96
X177.292Y-48.768
X177.292Y-51.268
X177.521Y-84.049
X177.521Y-86.549
X177.8Y-69.661
X177.8Y-72.161
X177.8Y-75.732
X177.8Y-78.232
X177.8Y-100.584
X177.8Y-110.744
X177.8Y-113.73
X177.8Y-116.23
X177.84Y-140.716
X178.308Y-123.444
X178.308Y-133.604
X179.324Y-56.388
X179.578Y-89.408
X179.832Y-61.976
X180.34Y-140.716
X180.848Y-101.092
X181.864Y-128.564
X181.864Y-131.104
X181.864Y-133.644
X181.864Y-136.184
X182.103Y-105.699
X182.103Y-108.239
X182.103Y-110.779
X182.103Y-113.319
X182.103Y-115.859
X182.103Y-118.399
X182.103Y-120.939
X182.372Y-70.104
X182.372Y-72.644
X182.372Y-75.184
X182.372Y-77.724
X182.372Y-80.264
X182.372Y-82.804
X182.372Y-85.344
X182.611Y-46.492
X182.611Y-49.032
X182.611Y-51.572
X182.611Y-54.112
X183.348Y-101.092
X183.388Y-96.012
X183.428Y-140.716
X183.896Y-58.42
X183.896Y-65.532
X185.928Y-140.716
X189.484Y-128.564
X189.484Y-131.104
X189.484Y-133.644
X189.484Y-136.184
X189.723Y-105.699
X189.723Y-108.239
X189.723Y-110.779
X189.723Y-113.319
X189.723Y-115.859
X189.723Y-118.399
X189.723Y-120.939
X189.738Y-89.408
X189.738Y-92.583
X189.738Y-102.743
X189.992Y-61.976
X189.992Y-70.104
X189.992Y-72.644
X189.992Y-75.184
X189.992Y-77.724
X189.992Y-80.264
X189.992Y-82.804
X189.992Y-85.344
X190.231Y-46.492
X190.231Y-49.032
X190.231Y-51.572
X190.231Y-54.112
X192.532Y-105.704
X192.532Y-120.944
X192.851Y-125.476
X192.851Y-131.064
X193.04Y-61.976
X193.359Y-110.49
X193.359Y-116.332
X193.588Y-53.34
X193.588Y-66.802
X193.588Y-72.644
X193.588Y-78.232
X194.056Y-58.42
X195.351Y-125.476
X195.351Y-131.064
X195.859Y-110.49
X195.859Y-116.332
X196.088Y-53.34
X196.088Y-66.802
X196.088Y-72.644
X196.088Y-78.232
X197.612Y-46.547
X197.612Y-49.047
X198.628Y-132.588
X201.168Y-65.532
X201.168Y-75.692
X202.692Y-105.704
X202.692Y-112.308
X202.692Y-114.808
X202.692Y-120.944
X203.2Y-61.976
X205.74Y-67.056
X205.74Y-77.216
X205.74Y-86.36
X205.74Y-96.52
X206.756Y-112.308
X207.518Y-105.704
X207.518Y-108.204
X208.788Y-120.904
X208.788Y-123.404
X208.788Y-132.588
X213.614Y-98.044
X213.614Y-108.204
X216.916Y-112.308
T4
X144.78Y-121.666
X144.78Y-124.206
X156.21Y-128.016
X156.21Y-137.922
X167.64Y-75.433
X167.64Y-77.973
X195.072Y-93.213
X195.072Y-95.753
X197.104Y-85.344
X197.104Y-87.884
X201.417Y-81.788
X203.957Y-81.788
X204.724Y-46.477
X204.724Y-49.017
X213.995Y-123.444
X213.995Y-125.984
T5
X196.088Y-141.224
X201.088Y-141.224
X206.088Y-141.224
X215.392Y-81.28
X215.392Y-86.28
X215.392Y-91.28
X215.438Y-62.056
X215.438Y-67.056
X215.438Y-72.056
T6
X145.0Y-50.0
X145.288Y-115.57
X215.0Y-50.0
X215.0Y-140.0
M30
