G04 ================== begin FILE IDENTIFICATION RECORD ==================*
G04 Layout Name:  D:/Projects/HardwareDesign/DOSTI_STLINK/allegro/stlink.brd*
G04 Film Name:    TOP*
G04 File Format:  Gerber RS274X*
G04 File Origin:  Cadence Allegro 23.1-S005*
G04 Origin Date:  Fri Jul 19 17:47:46 2024*
G04 *
G04 Layer:  ETCH/TOP*
G04 Layer:  PIN/TOP*
G04 Layer:  VIA CLASS/TOP*
G04 *
G04 Offset:    (0.0000 0.0000)*
G04 Mirror:    No*
G04 Mode:      Positive*
G04 Rotation:  0*
G04 FullContactRelief:  No*
G04 UndefLineWidth:     0.0000*
G04 ================== end FILE IDENTIFICATION RECORD ====================*
%FSLAX55Y55*MOMM*%
%IR0*IPPOS*OFA0.00000B0.00000*MIA0B0*SFA1.00000B1.00000*%
%ADD10R,1.1501X.8001*%
%ADD23R,1.475X.3*%
%ADD22R,.3X1.475*%
%ADD32R,1.7501X.95*%
%ADD24R,.8001X.8001*%
%ADD13C,.6096*%
%ADD34R,1.2499X.65*%
%ADD26R,1.1501X.5999*%
%ADD25R,.65X1.5499*%
%ADD30C,.5999*%
%ADD28C,1.1001*%
%ADD27R,.46X.4201*%
%ADD16R,1.27X2.54*%
%ADD17R,.4201X.46*%
%ADD35R,.76X.62*%
%ADD14C,1.65*%
%ADD21R,.8001X.95*%
%ADD15R,1.65X1.65*%
%ADD11C,1.7249*%
%ADD31R,.8499X.3*%
%ADD20R,1.8999X1.1001*%
%ADD33C,1.1699*%
%ADD12R,1.7249X1.7249*%
%ADD29R,1.7501X3.1999*%
%ADD19R,.95X.8999*%
%ADD18R,.8999X.95*%
%ADD36C,.512*%
%ADD37C,.127*%
%ADD38C,.254*%
%ADD39C,.635*%
%ADD41C,1.0068*%
%ADD42C,1.9044*%
%ADD40C,1.3546*%
G75*
%LPD*%
G75*
G36*
G01X7493000Y23647400D02*
X13360400D01*
Y21615400D01*
X13055600Y21310600D01*
X12446000D01*
X9017000Y17881600D01*
X7493000D01*
Y23647400D01*
G37*
G36*
G01X9066930Y17881600D02*
G02X9059740Y17898940I-2J10160D01*
G01X12446000Y21285200D01*
X13055600D01*
X13343060Y21572660D01*
G02X13360400Y21565470I7180J-7188D01*
G01Y17881600D01*
X9066930D01*
G37*
%LPC*%
G75*
G36*
G01X12648180Y23519900D02*
G02X12660900Y23532620I12720J0D01*
G01X12785900D01*
G02X12798620Y23519900I0J-12720D01*
G01Y23512820D01*
X13088600D01*
G02X13106570Y23505370I-8J-25417D01*
G01X13175170Y23436770D01*
G02X13182620Y23418800I-17967J-17978D01*
G01Y23088600D01*
G02X13175170Y23070630I-25417J8D01*
G01X13124370Y23019830D01*
G02X13106400Y23012380I-17978J17967D01*
G01X12824510D01*
G02X12821710Y23012540I48J25417D01*
G03X12810420Y23002440I-1127J-10100D01*
G01Y22991700D01*
G02X12797700Y22978980I-12720J0D01*
G01X12622700D01*
G02X12609980Y22991700I0J12720D01*
G01Y23013780D01*
X12508730D01*
X12369820Y22874870D01*
Y22733020D01*
X13208000D01*
G02X13225970Y22725570I-8J-25417D01*
G01X13276770Y22674770D01*
G02X13284220Y22656800I-17967J-17978D01*
G01Y21844000D01*
G02X13276770Y21826030I-25417J8D01*
G01X13200570Y21749830D01*
G02X13182600Y21742380I-17978J17967D01*
G01X13134420D01*
Y21736800D01*
G02X13121700Y21724080I-12720J0D01*
G01X12938700D01*
G02X12925980Y21736800I0J12720D01*
G01Y21742380D01*
X12903220D01*
Y21599530D01*
G02X12921000Y21564600I-25421J-34930D01*
G02X12834600I-43200J0D01*
G02X12852380Y21599530I43201J0D01*
G01Y21739980D01*
X12586710D01*
X12585550Y21739320D01*
G02X12579300Y21737680I-6248J11081D01*
G01X12494300D01*
G02X12491290Y21738040I-5J12721D01*
G03X12478720Y21728170I-2411J-9869D01*
G01Y21715800D01*
G02X12471270Y21697830I-25417J8D01*
G01X12445870Y21672430D01*
G02X12427900Y21664980I-17978J17967D01*
G01X12331620D01*
G02X12320290Y21667640I-9J25422D01*
G03X12305660Y21657490I-4528J-9093D01*
G02X12306030Y21650400I-67361J-7070D01*
G02X12238300Y21582670I-67730J0D01*
G02X12171570Y21638800I0J67731D01*
G03X12154380Y21644250I-10010J-1737D01*
G01X12031350Y21521230D01*
G02X12013380Y21513780I-17978J17967D01*
G01X11836400D01*
G02X11818430Y21521230I8J25417D01*
G01X11673470Y21666180D01*
X11531620D01*
Y21574130D01*
G02X11549400Y21539200I-25421J-34930D01*
G02X11463000I-43200J0D01*
G02X11480780Y21574130I43201J0D01*
G01Y21666180D01*
X11288320D01*
Y21644100D01*
G02X11275600Y21631380I-12720J0D01*
G01X11185600D01*
G02X11172880Y21644100I0J12720D01*
G01Y21739100D01*
G02X11185600Y21751820I12720J0D01*
G01X11275600D01*
G02X11288320Y21739100I0J-12720D01*
G01Y21717020D01*
X11684000D01*
G02X11701970Y21709570I-8J-25417D01*
G01X11846930Y21564620D01*
X12002850D01*
X12164380Y21726150D01*
G03X12157190Y21743490I-7187J7180D01*
G01X12076640D01*
X12006130Y21672980D01*
X12006380Y21670580D01*
G02X12006600Y21666200I-42981J-4354D01*
G02X11963400Y21709400I-43200J0D01*
G02X11967780Y21709180I26J-43201D01*
G01X11970180Y21708930D01*
X12033890Y21772640D01*
G03X12026700Y21789980I-7187J7180D01*
G01X11945330D01*
X11905170Y21749830D01*
G02X11887200Y21742380I-17978J17967D01*
G01X11845930D01*
G02X11811000Y21724600I-34930J25421D01*
G02Y21811000I0J43200D01*
G02X11845930Y21793220I0J-43201D01*
G01X11876670D01*
X11910090Y21826640D01*
G03X11902900Y21843980I-7187J7180D01*
G01X11034320D01*
Y21821900D01*
G02X11021600Y21809180I-12720J0D01*
G01X10931600D01*
G02X10918880Y21821900I0J12720D01*
G01Y21916900D01*
G02X10931600Y21929620I12720J0D01*
G01X10957530D01*
Y21986980D01*
X10931600D01*
G02X10918880Y21999700I0J12720D01*
G01Y22094700D01*
G02X10931600Y22107420I12720J0D01*
G01X11021600D01*
G02X11034320Y22094700I0J-12720D01*
G01Y21999700D01*
G02X11021600Y21986980I-12720J0D01*
G01X10995670D01*
Y21929620D01*
X11021600D01*
G02X11034320Y21916900I0J-12720D01*
G01Y21894820D01*
X12029900D01*
G03X12037090Y21912160I3J10160D01*
G01X11995580Y21953670D01*
X11993180Y21953420D01*
G02X11988800Y21953200I-4354J42981D01*
G02X12032000Y21996400I0J43200D01*
G02X12031780Y21992020I-43201J-26D01*
G01X12031530Y21989620D01*
X12080330Y21940820D01*
X12314580D01*
Y21980400D01*
G02X12316780Y21987550I12719J0D01*
G03Y21993250I-4200J2850D01*
G02X12314580Y22000400I10519J7150D01*
G01Y22030400D01*
G02X12327300Y22043120I12720J0D01*
G01X12412300D01*
G02X12418550Y22041480I2J-12721D01*
G01X12419710Y22040820D01*
X12486890D01*
X12488050Y22041480D01*
G02X12494300Y22043120I6248J-11081D01*
G01X12579300D01*
G02X12585550Y22041480I2J-12721D01*
G01X12586710Y22040820D01*
X12708470D01*
X12852380Y22184730D01*
Y22215470D01*
G02X12834600Y22250400I25421J34930D01*
G02X12921000I43200J0D01*
G02X12903220Y22215470I-43201J0D01*
G01Y22174200D01*
G02X12895770Y22156230I-25417J8D01*
G01X12747710Y22008160D01*
G03X12754900Y21990820I7187J-7180D01*
G01X12889280D01*
G02X12905200Y21996420I15920J-19829D01*
G01X12917880D01*
Y22018500D01*
G02X12930600Y22031220I12720J0D01*
G01X13020600D01*
G02X13033320Y22018500I0J-12720D01*
G01Y21923500D01*
G02X13020600Y21910780I-12720J0D01*
G01X12930600D01*
G02X12917880Y21923500I0J12720D01*
G01Y21930760D01*
G03X12905410Y21940650I-10157J0D01*
G02X12899600Y21939980I-5798J24751D01*
G01X12592020D01*
Y21900400D01*
G02X12589820Y21893250I-12719J0D01*
G03Y21887550I4200J-2850D01*
G02X12592020Y21880400I-10519J-7150D01*
G01Y21850400D01*
G02X12589820Y21843250I-12719J0D01*
G03Y21837550I4200J-2850D01*
G02X12592020Y21830400I-10519J-7150D01*
G01Y21790820D01*
X12880210D01*
X12881160Y21791220D01*
G02X12891040Y21793220I9883J-23419D01*
G01X12925980D01*
Y21798800D01*
G02X12938700Y21811520I12720J0D01*
G01X13121700D01*
G02X13134420Y21798800I0J-12720D01*
G01Y21793220D01*
X13172070D01*
X13233380Y21854530D01*
Y22646270D01*
X13197470Y22682180D01*
X12369820D01*
Y22631400D01*
G02X12362370Y22613430I-25417J8D01*
G01X12260770Y22511830D01*
G02X12242800Y22504380I-17978J17967D01*
G01X11718930D01*
G02X11684000Y22486600I-34930J25421D01*
G02Y22573000I0J43200D01*
G02X11718930Y22555220I0J-43201D01*
G01X12232270D01*
X12318980Y22641930D01*
Y22885400D01*
G02X12326430Y22903370I25417J-8D01*
G01X12480230Y23057170D01*
G02X12498200Y23064620I17978J-17967D01*
G01X12609980D01*
Y23086700D01*
G02X12622700Y23099420I12720J0D01*
G01X12797700D01*
G02X12810420Y23086700I0J-12720D01*
G01Y23064620D01*
X12823110D01*
G02X12830720Y23063450I-13J-25418D01*
G01X12831470Y23063220D01*
X13095870D01*
X13131780Y23099130D01*
Y23408270D01*
X13078070Y23461980D01*
X13012420D01*
Y23427310D01*
X13015360Y23425940D01*
G02X13022720Y23414400I-5360J-11535D01*
G01Y23372400D01*
G02X13010000Y23359680I-12720J0D01*
G01X12898000D01*
G02X12885280Y23372400I0J12720D01*
G01Y23414400D01*
G02X12898000Y23427120I12720J0D01*
G01X12961580D01*
Y23461980D01*
X12798620D01*
Y23454900D01*
G02X12795730Y23446840I-12720J13D01*
G03Y23433960I7863J-6440D01*
G02X12798620Y23425900I-9830J-8073D01*
G01Y23324820D01*
X12894690D01*
X12896060Y23327760D01*
G02X12907600Y23335120I11535J-5360D01*
G01X12949600D01*
G02X12961140Y23327760I5J-12720D01*
G01X12962510Y23324820D01*
X12996290D01*
X12997660Y23327760D01*
G02X13009200Y23335120I11535J-5360D01*
G01X13051200D01*
G02X13063920Y23322400I0J-12720D01*
G01Y23276400D01*
G02X13061730Y23269250I-12719J-15D01*
G03Y23263550I4200J-2850D01*
G02X13063920Y23256400I-10529J-7135D01*
G01Y23210400D01*
G02X13051200Y23197680I-12720J0D01*
G01X13009200D01*
G02X12996480Y23210400I0J12720D01*
G01Y23256400D01*
G02X12998670Y23263550I12719J15D01*
G03Y23269250I-4200J2850D01*
G02X12997660Y23271040I10538J7126D01*
G01X12996290Y23273980D01*
X12962510D01*
X12961140Y23271040D01*
G02X12960130Y23269250I-11548J5336D01*
G03Y23263550I4200J-2850D01*
G02X12962320Y23256400I-10529J-7135D01*
G01Y23210400D01*
G02X12949600Y23197680I-12720J0D01*
G01X12907600D01*
G02X12894880Y23210400I0J12720D01*
G01Y23256400D01*
G02X12897070Y23263550I12719J15D01*
G03Y23269250I-4200J2850D01*
G02X12896060Y23271040I10538J7126D01*
G01X12894690Y23273980D01*
X12798620D01*
Y23266900D01*
G02X12785900Y23254180I-12720J0D01*
G01X12660900D01*
G02X12648180Y23266900I0J12720D01*
G01Y23425900D01*
G02X12651070Y23433960I12720J-13D01*
G03Y23446840I-7863J6440D01*
G02X12648180Y23454900I9830J8073D01*
G01Y23519900D01*
G37*
G36*
G01X12396840Y22210370D02*
G02X12374460Y22265400I56466J55030D01*
G02X12532140I78840J0D01*
G02X12509760Y22210370I-78846J0D01*
G03X12517030Y22193120I7275J-7091D01*
G01X12579300D01*
G02X12592020Y22180400I0J-12720D01*
G01Y22150400D01*
G02X12579300Y22137680I-12720J0D01*
G01X12494300D01*
G02X12481580Y22150400I0J12720D01*
G01Y22178270D01*
G03X12469360Y22188210I-10157J-5D01*
G02X12453300Y22186560I-16045J77192D01*
G02X12437240Y22188210I-15J78842D01*
G03X12425020Y22178270I-2063J-9945D01*
G01Y22150400D01*
G02X12412300Y22137680I-12720J0D01*
G01X12327300D01*
G02X12314580Y22150400I0J12720D01*
G01Y22180400D01*
G02X12327300Y22193120I12720J0D01*
G01X12389570D01*
G03X12396840Y22210370I-5J10159D01*
G37*
G36*
G01X12398180Y23512820D02*
Y23519900D01*
G02X12410900Y23532620I12720J0D01*
G01X12535900D01*
G02X12548620Y23519900I0J-12720D01*
G01Y23454900D01*
G02X12535900Y23442180I-12720J0D01*
G01X12410900D01*
G02X12398180Y23454900I0J12720D01*
G01Y23461980D01*
X12306400D01*
G02X12293540Y23465480I11J25417D01*
G03X12281740Y23464390I-5141J-8765D01*
G02X12273400Y23461280I-8333J9608D01*
G01X12161400D01*
G02X12148680Y23474000I0J12720D01*
G01Y23516000D01*
G02X12161400Y23528720I12720J0D01*
G01X12273400D01*
G02X12284160Y23522790I0J-12727D01*
G01X12285650Y23520420D01*
X12298800D01*
G02X12316930Y23512820I0J-25425D01*
G01X12398180D01*
G37*
G36*
G01Y23324820D02*
Y23331900D01*
G02X12410900Y23344620I12720J0D01*
G01X12535900D01*
G02X12548620Y23331900I0J-12720D01*
G01Y23266900D01*
G02X12535900Y23254180I-12720J0D01*
G01X12410900D01*
G02X12398180Y23266900I0J12720D01*
G01Y23273980D01*
X11269330D01*
G02X11234400Y23256200I-34930J25421D01*
G02Y23342600I0J43200D01*
G02X11269330Y23324820I0J-43201D01*
G01X12398180D01*
G37*
G36*
G01X11793030Y23030370D02*
X11895270Y23132620D01*
X11895020Y23135020D01*
G02X11894800Y23139400I42981J4354D01*
G02X11938000Y23096200I43200J0D01*
G02X11933620Y23096420I-26J43201D01*
G01X11931220Y23096670D01*
X11836420Y23001870D01*
Y22953650D01*
X11838790Y22952160D01*
G02X11844720Y22941400I-6797J-10760D01*
G01Y22895400D01*
G02X11842530Y22888250I-12719J-15D01*
G03Y22882550I4200J-2850D01*
G02X11844720Y22875400I-10529J-7135D01*
G01Y22829400D01*
G02X11832000Y22816680I-12720J0D01*
G01X11790000D01*
G02X11777280Y22829400I0J12720D01*
G01Y22875400D01*
G02X11779470Y22882550I12719J15D01*
G03Y22888250I-4200J2850D01*
G02X11777280Y22895400I10529J7135D01*
G01Y22941400D01*
G02X11783210Y22952160I12727J0D01*
G01X11785580Y22953650D01*
Y23012400D01*
G02X11793030Y23030370I25417J-8D01*
G37*
G36*
G01X11691430Y23055770D02*
X11768270Y23132620D01*
X11768020Y23135020D01*
G02X11767800Y23139400I42981J4354D01*
G02X11811000Y23096200I43200J0D01*
G02X11806620Y23096420I-26J43201D01*
G01X11804220Y23096670D01*
X11734820Y23027270D01*
Y22953650D01*
X11737190Y22952160D01*
G02X11743120Y22941400I-6797J-10760D01*
G01Y22895400D01*
G02X11740930Y22888250I-12719J-15D01*
G03Y22882550I4200J-2850D01*
G02X11743120Y22875400I-10529J-7135D01*
G01Y22829400D01*
G02X11730400Y22816680I-12720J0D01*
G01X11688400D01*
G02X11675680Y22829400I0J12720D01*
G01Y22875400D01*
G02X11677870Y22882550I12719J15D01*
G03Y22888250I-4200J2850D01*
G02X11675680Y22895400I10529J7135D01*
G01Y22941400D01*
G02X11681610Y22952160I12727J0D01*
G01X11683980Y22953650D01*
Y23037800D01*
G02X11691430Y23055770I25417J-8D01*
G37*
G36*
G01X11589830Y23081170D02*
X11641270Y23132620D01*
X11641020Y23135020D01*
G02X11640800Y23139400I42981J4354D01*
G02X11684000Y23096200I43200J0D01*
G02X11679620Y23096420I-26J43201D01*
G01X11677220Y23096670D01*
X11633220Y23052670D01*
Y22953650D01*
X11635590Y22952160D01*
G02X11641520Y22941400I-6797J-10760D01*
G01Y22895400D01*
G02X11639330Y22888250I-12719J-15D01*
G03Y22882550I4200J-2850D01*
G02X11641520Y22875400I-10529J-7135D01*
G01Y22829400D01*
G02X11628800Y22816680I-12720J0D01*
G01X11586800D01*
G02X11574080Y22829400I0J12720D01*
G01Y22875400D01*
G02X11576270Y22882550I12719J15D01*
G03Y22888250I-4200J2850D01*
G02X11574080Y22895400I10529J7135D01*
G01Y22941400D01*
G02X11580010Y22952160I12727J0D01*
G01X11582380Y22953650D01*
Y23063200D01*
G02X11589830Y23081170I25417J-8D01*
G37*
G36*
G01X11488230Y23106570D02*
X11514270Y23132620D01*
X11514020Y23135020D01*
G02X11513800Y23139400I42981J4354D01*
G02X11557000Y23096200I43200J0D01*
G02X11552620Y23096420I-26J43201D01*
G01X11550220Y23096670D01*
X11531620Y23078070D01*
Y22953650D01*
X11533990Y22952160D01*
G02X11539920Y22941400I-6797J-10760D01*
G01Y22895400D01*
G02X11537730Y22888250I-12719J-15D01*
G03Y22882550I4200J-2850D01*
G02X11539920Y22875400I-10529J-7135D01*
G01Y22829400D01*
G02X11527200Y22816680I-12720J0D01*
G01X11485200D01*
G02X11472480Y22829400I0J12720D01*
G01Y22875400D01*
G02X11474670Y22882550I12719J15D01*
G03Y22888250I-4200J2850D01*
G02X11472480Y22895400I10529J7135D01*
G01Y22941400D01*
G02X11478410Y22952160I12727J0D01*
G01X11480780Y22953650D01*
Y23088600D01*
G02X11488230Y23106570I25417J-8D01*
G37*
G36*
G01X11268160Y23116390D02*
X11269650Y23114020D01*
X11369670D01*
G02X11404600Y23131800I34930J-25421D01*
G02X11447800Y23088600I0J-43200D01*
G02X11430020Y23053670I-43201J0D01*
G01Y22953650D01*
X11432390Y22952160D01*
G02X11438320Y22941400I-6797J-10760D01*
G01Y22895400D01*
G02X11436130Y22888250I-12719J-15D01*
G03Y22882550I4200J-2850D01*
G02X11438320Y22875400I-10529J-7135D01*
G01Y22829400D01*
G02X11425600Y22816680I-12720J0D01*
G01X11383600D01*
G02X11370880Y22829400I0J12720D01*
G01Y22875400D01*
G02X11373070Y22882550I12719J15D01*
G03Y22888250I-4200J2850D01*
G02X11370880Y22895400I10529J7135D01*
G01Y22941400D01*
G02X11376810Y22952160I12727J0D01*
G01X11379180Y22953650D01*
Y23053670D01*
G02X11369670Y23063180I25420J34930D01*
G01X11269650D01*
X11268160Y23060810D01*
G02X11257400Y23054880I-10760J6797D01*
G01X11145400D01*
G02X11132680Y23067600I0J12720D01*
G01Y23109600D01*
G02X11145400Y23122320I12720J0D01*
G01X11257400D01*
G02X11268160Y23116390I0J-12727D01*
G37*
G36*
G01X9775880Y22863300D02*
Y22958300D01*
G02X9788600Y22971020I12720J0D01*
G01X9878600D01*
G02X9891320Y22958300I0J-12720D01*
G01Y22863300D01*
G02X9878600Y22850580I-12720J0D01*
G01X9852670D01*
Y22743720D01*
X9877300D01*
G02X9890020Y22731000I0J-12720D01*
G01Y22705070D01*
X9947380D01*
Y22731000D01*
G02X9960100Y22743720I12720J0D01*
G01X10055100D01*
G02X10067820Y22731000I0J-12720D01*
G01Y22705070D01*
X10115800D01*
X10116920Y22705660D01*
G02X10125830Y22707870I8910J-16856D01*
G01X10132180D01*
Y22718800D01*
G02X10144900Y22731520I12720J0D01*
G01X10259900D01*
G02X10272620Y22718800I0J-12720D01*
G01Y22658800D01*
G02X10259900Y22646080I-12720J0D01*
G01X10221470D01*
Y22597600D01*
G02X10215880Y22584120I-19067J8D01*
G01X10204470Y22572700D01*
Y22543160D01*
G02X10228600Y22504400I-19065J-38760D01*
G02X10142200I-43200J0D01*
G02X10166330Y22543160I43195J0D01*
G01Y22580600D01*
G02X10171920Y22594080I19067J-8D01*
G01X10183330Y22605500D01*
Y22646080D01*
X10144900D01*
G02X10132180Y22658800I0J12720D01*
G01Y22667270D01*
X10126660D01*
X10126240Y22667200D01*
G02X10123030Y22666930I-3198J18801D01*
G01X10067820D01*
Y22641000D01*
G02X10055100Y22628280I-12720J0D01*
G01X9960100D01*
G02X9947380Y22641000I0J12720D01*
G01Y22666930D01*
X9890020D01*
Y22641000D01*
G02X9877300Y22628280I-12720J0D01*
G01X9782300D01*
G02X9769580Y22641000I0J12720D01*
G01Y22731000D01*
G02X9782300Y22743720I12720J0D01*
G01X9810730D01*
Y22750060D01*
G02X9813730Y22760330I19079J0D01*
G01X9814530Y22761580D01*
Y22850580D01*
X9788600D01*
G02X9775880Y22863300I0J12720D01*
G37*
G36*
G01X9296400Y22955270D02*
X9615450D01*
X9615970Y22959760D01*
G02X9628600Y22971020I12636J-1460D01*
G01X9718600D01*
G02X9731320Y22958300I0J-12720D01*
G01Y22863300D01*
G02X9718600Y22850580I-12720J0D01*
G01X9628600D01*
G02X9615970Y22861840I6J12720D01*
G01X9615450Y22866330D01*
X9296400D01*
G02Y22955270I0J44470D01*
G37*
G36*
G01X13037630Y22903370D02*
G02X13055600Y22910820I17978J-17967D01*
G01X13198470D01*
G02X13233400Y22928600I34930J-25421D01*
G02Y22842200I0J-43200D01*
G02X13198470Y22859980I0J43201D01*
G01X13066130D01*
X12997370Y22791230D01*
G02X12979400Y22783780I-17978J17967D01*
G01X12810420D01*
Y22761700D01*
G02X12797700Y22748980I-12720J0D01*
G01X12622700D01*
G02X12609980Y22761700I0J12720D01*
G01Y22856700D01*
G02X12622700Y22869420I12720J0D01*
G01X12797700D01*
G02X12810420Y22856700I0J-12720D01*
G01Y22834620D01*
X12968870D01*
X13037630Y22903370D01*
G37*
G36*
G01X10352180Y22753800D02*
Y22813800D01*
G02X10364900Y22826520I12720J0D01*
G01X10479900D01*
G02X10492620Y22813800I0J-12720D01*
G01Y22753800D01*
G02X10479900Y22741080I-12720J0D01*
G01X10447820D01*
Y22547730D01*
G02X10465600Y22512800I-25421J-34930D01*
G02X10379200I-43200J0D01*
G02X10396980Y22547730I43201J0D01*
G01Y22741080D01*
X10364900D01*
G02X10352180Y22753800I0J12720D01*
G37*
G36*
G01X11268160Y22303590D02*
X11269650Y22301220D01*
X11445870D01*
G02X11480800Y22319000I34930J-25421D01*
G02Y22232600I0J-43200D01*
G02X11445870Y22250380I0J43201D01*
G01X11269650D01*
X11268160Y22248010D01*
G02X11257400Y22242080I-10760J6797D01*
G01X11145400D01*
G02X11132680Y22254800I0J12720D01*
G01Y22296800D01*
G02X11145400Y22309520I12720J0D01*
G01X11257400D01*
G02X11268160Y22303590I0J-12727D01*
G37*
G36*
G01Y22100390D02*
X11269650Y22098020D01*
X11445870D01*
G02X11480800Y22115800I34930J-25421D01*
G02Y22029400I0J-43200D01*
G02X11445870Y22047180I0J43201D01*
G01X11269650D01*
X11268160Y22044810D01*
G02X11257400Y22038880I-10760J6797D01*
G01X11145400D01*
G02X11132680Y22051600I0J12720D01*
G01Y22093600D01*
G02X11145400Y22106320I12720J0D01*
G01X11257400D01*
G02X11268160Y22100390I0J-12727D01*
G37*
G36*
G01X10758880Y22066270D02*
Y22094700D01*
G02X10771600Y22107420I12720J0D01*
G01X10861600D01*
G02X10874320Y22094700I0J-12720D01*
G01Y21999700D01*
G02X10861600Y21986980I-12720J0D01*
G01X10771600D01*
G02X10758880Y21999700I0J12720D01*
G01Y22028130D01*
X10706760D01*
G02X10668000Y22004000I-38760J19065D01*
G02Y22090400I0J43200D01*
G02X10706760Y22066270I0J-43195D01*
G01X10758880D01*
G37*
G36*
G01X11172880Y21466300D02*
Y21561300D01*
G02X11185600Y21574020I12720J0D01*
G01X11275600D01*
G02X11288320Y21561300I0J-12720D01*
G01Y21466300D01*
G02X11275600Y21453580I-12720J0D01*
G01X11256020D01*
Y21271720D01*
X11256850Y21270450D01*
G02X11261020Y21256500I-21249J-13950D01*
G01Y21243820D01*
X11275600D01*
G02X11288320Y21231100I0J-12720D01*
G01Y21136100D01*
G02X11275600Y21123380I-12720J0D01*
G01X11195600D01*
G02X11182880Y21136100I0J12720D01*
G01Y21231100D01*
G02X11195720Y21243820I12721J0D01*
G03X11205750Y21256130I102J10158D01*
G02X11205180Y21261500I24852J5353D01*
G01Y21453580D01*
X11185600D01*
G02X11172880Y21466300I0J12720D01*
G37*
G36*
G01X10810980Y21363400D02*
Y21453400D01*
G02X10823700Y21466120I12720J0D01*
G01X10918700D01*
G02X10931420Y21453400I0J-12720D01*
G01Y21363400D01*
G02X10918700Y21350680I-12720J0D01*
G01X10896620D01*
Y21273100D01*
G02X10889170Y21255130I-25417J8D01*
G01X10886540Y21252490D01*
G03X10890130Y21243820I3593J-3590D01*
G01X10894600D01*
G02X10907320Y21231100I0J-12720D01*
G01Y21136100D01*
G02X10894600Y21123380I-12720J0D01*
G01X10814600D01*
G02X10801880Y21136100I0J12720D01*
G01Y21231100D01*
G02X10814600Y21243820I12720J0D01*
G01X10829180D01*
Y21256500D01*
G02X10836630Y21274470I25417J-8D01*
G01X10845780Y21283630D01*
Y21350680D01*
X10823700D01*
G02X10810980Y21363400I0J12720D01*
G37*
G36*
G01X11040180Y21243820D02*
Y21317670D01*
G02X11022400Y21352600I25421J34930D01*
G02X11108800I43200J0D01*
G02X11091020Y21317670I-43201J0D01*
G01Y21243820D01*
X11105600D01*
G02X11118320Y21231100I0J-12720D01*
G01Y21136100D01*
G02X11105600Y21123380I-12720J0D01*
G01X11091020D01*
Y21110700D01*
G02X11083570Y21092730I-25417J8D01*
G01X11078220Y21087370D01*
Y21015220D01*
X11097800D01*
G02X11110520Y21002500I0J-12720D01*
G01Y20907500D01*
G02X11097800Y20894780I-12720J0D01*
G01X11007800D01*
G02X10995080Y20907500I0J12720D01*
G01Y21002500D01*
G02X11007800Y21015220I12720J0D01*
G01X11027380D01*
Y21097900D01*
G02X11030020Y21109190I25422J9D01*
G03X11023000Y21123650I-9100J4516D01*
G02X11012880Y21136100I2598J12450D01*
G01Y21231100D01*
G02X11025600Y21243820I12720J0D01*
G01X11040180D01*
G37*
G36*
G01X8905980Y21211000D02*
Y21301000D01*
G02X8918700Y21313720I12720J0D01*
G01X9013700D01*
G02X9026420Y21301000I0J-12720D01*
G01Y21211000D01*
G02X9013700Y21198280I-12720J0D01*
G01X8991620D01*
Y21183600D01*
G02X8984170Y21165630I-25417J8D01*
G01X8904170Y21085630D01*
G02X8886200Y21078180I-17978J17967D01*
G01X8594620D01*
Y21058600D01*
G02X8581900Y21045880I-12720J0D01*
G01X8486900D01*
G02X8474180Y21058600I0J12720D01*
G01Y21084530D01*
X8297560D01*
G02X8284220Y21068670I-38765J19065D01*
G01Y20961730D01*
X8316330Y20929620D01*
X8472880D01*
Y20951700D01*
G02X8485600Y20964420I12720J0D01*
G01X8575600D01*
G02X8588320Y20951700I0J-12720D01*
G01Y20856700D01*
G02X8575600Y20843980I-12720J0D01*
G01X8485600D01*
G02X8472880Y20856700I0J12720D01*
G01Y20878780D01*
X8305800D01*
G02X8287830Y20886230I8J25417D01*
G01X8240830Y20933230D01*
G02X8233380Y20951200I17967J17978D01*
G01Y21068670D01*
G02X8215600Y21103600I25421J34930D01*
G02X8258800Y21146800I43200J0D01*
G02X8297560Y21122670I0J-43195D01*
G01X8474180D01*
Y21148600D01*
G02X8486900Y21161320I12720J0D01*
G01X8581900D01*
G02X8594620Y21148600I0J-12720D01*
G01Y21129020D01*
X8875670D01*
X8927590Y21180940D01*
G03X8920410Y21198280I-7183J7182D01*
G01X8918700D01*
G02X8905980Y21211000I0J12720D01*
G37*
G36*
G01X11528480Y21136100D02*
Y21231100D01*
G02X11541200Y21243820I12720J0D01*
G01X11631200D01*
G02X11643920Y21231100I0J-12720D01*
G01Y21209020D01*
X11776070D01*
G02X11811000Y21226800I34930J-25421D01*
G02Y21140400I0J-43200D01*
G02X11776070Y21158180I0J43201D01*
G01X11643920D01*
Y21136100D01*
G02X11631200Y21123380I-12720J0D01*
G01X11541200D01*
G02X11528480Y21136100I0J12720D01*
G37*
G36*
G01X10835080Y20980420D02*
Y21002500D01*
G02X10847800Y21015220I12720J0D01*
G01X10937800D01*
G02X10950520Y21002500I0J-12720D01*
G01Y20907500D01*
G02X10937800Y20894780I-12720J0D01*
G01X10847800D01*
G02X10835080Y20907500I0J12720D01*
G01Y20929580D01*
X10780320D01*
Y20907500D01*
G02X10767600Y20894780I-12720J0D01*
G01X10687600D01*
G02X10674880Y20907500I0J12720D01*
G01Y21002500D01*
G02X10687600Y21015220I12720J0D01*
G01X10767600D01*
G02X10780320Y21002500I0J-12720D01*
G01Y20980420D01*
X10835080D01*
G37*
G36*
G01X8879280Y20929620D02*
Y20951700D01*
G02X8892000Y20964420I12720J0D01*
G01X8972000D01*
G02X8984720Y20951700I0J-12720D01*
G01Y20856700D01*
G02X8972000Y20843980I-12720J0D01*
G01X8892000D01*
G02X8879280Y20856700I0J12720D01*
G01Y20878780D01*
X8748320D01*
Y20856700D01*
G02X8735600Y20843980I-12720J0D01*
G01X8645600D01*
G02X8632880Y20856700I0J12720D01*
G01Y20951700D01*
G02X8645600Y20964420I12720J0D01*
G01X8735600D01*
G02X8748320Y20951700I0J-12720D01*
G01Y20929620D01*
X8879280D01*
G37*
G36*
G01X8845530Y20178320D02*
Y20281240D01*
G02X8821400Y20320000I19065J38760D01*
G02X8907800I43200J0D01*
G02X8883670Y20281240I-43195J0D01*
G01Y20178320D01*
X8912100D01*
G02X8924820Y20165600I0J-12720D01*
G01Y20075600D01*
G02X8912100Y20062880I-12720J0D01*
G01X8817100D01*
G02X8804380Y20075600I0J12720D01*
G01Y20165600D01*
G02X8817100Y20178320I12720J0D01*
G01X8845530D01*
G37*
G36*
G01X10353780Y20273020D02*
Y20292600D01*
G02X10366500Y20305320I12720J0D01*
G01X10461500D01*
G02X10474220Y20292600I0J-12720D01*
G01Y20202600D01*
G02X10461500Y20189880I-12720J0D01*
G01X10366500D01*
G02X10353780Y20202600I0J12720D01*
G01Y20208790D01*
G03X10341820Y20218780I-10158J-7D01*
G02X10337300Y20218380I-4492J25022D01*
G01X10109920D01*
Y20203800D01*
G02X10097200Y20191080I-12715J-5D01*
G01X10017200D01*
G02X10004480Y20203800I-5J12715D01*
G01Y20283800D01*
G02X10017200Y20296520I12715J5D01*
G01X10097200D01*
G02X10109920Y20283800I5J-12715D01*
G01Y20269220D01*
X10327670D01*
X10328810Y20269850D01*
G02X10341100Y20273020I12290J-22239D01*
G01X10353780D01*
G37*
G36*
G01X9681180Y20024620D02*
Y20103470D01*
G02X9663400Y20138400I25421J34930D01*
G02X9749800I43200J0D01*
G02X9732020Y20103470I-43201J0D01*
G01Y20024620D01*
X9751600D01*
G02X9764320Y20011900I0J-12720D01*
G01Y19916900D01*
G02X9751600Y19904180I-12720J0D01*
G01X9661600D01*
G02X9648880Y19916900I0J12720D01*
G01Y20011900D01*
G02X9661600Y20024620I12720J0D01*
G01X9681180D01*
G37*
G36*
G01X9488880Y19989820D02*
Y20011900D01*
G02X9501600Y20024620I12720J0D01*
G01X9591600D01*
G02X9604320Y20011900I0J-12720D01*
G01Y19916900D01*
G02X9591600Y19904180I-12720J0D01*
G01X9501600D01*
G02X9488880Y19916900I0J12720D01*
G01Y19938980D01*
X9310800D01*
X9271020Y19899200D01*
Y19329400D01*
G02X9263570Y19311430I-25417J8D01*
G01X9144020Y19191870D01*
Y19170720D01*
X9182100D01*
G02X9194820Y19158000I0J-12720D01*
G01Y18904000D01*
G02X9182100Y18891280I-12720J0D01*
G01X9055100D01*
G02X9042380Y18904000I0J12720D01*
G01Y19158000D01*
G02X9055100Y19170720I12720J0D01*
G01X9093180D01*
Y19202400D01*
G02X9100630Y19220370I25417J-8D01*
G01X9220180Y19339930D01*
Y19909730D01*
G02X9227630Y19927700I25417J-8D01*
G01X9282300Y19982370D01*
G02X9300270Y19989820I17978J-17967D01*
G01X9488880D01*
G37*
G36*
G01X8804380Y19915600D02*
Y20005600D01*
G02X8817100Y20018320I12720J0D01*
G01X8912100D01*
G02X8924820Y20005600I0J-12720D01*
G01Y19915600D01*
G02X8912100Y19902880I-12720J0D01*
G01X8902920D01*
Y19716720D01*
X8928100D01*
G02X8940820Y19704000I0J-12720D01*
G01Y19450000D01*
G02X8928100Y19437280I-12720J0D01*
G01X8801100D01*
G02X8788380Y19450000I0J12720D01*
G01Y19704000D01*
G02X8801100Y19716720I12720J0D01*
G01X8826280D01*
Y19902880D01*
X8817100D01*
G02X8804380Y19915600I0J12720D01*
G37*
G36*
G01X8550380D02*
Y20005600D01*
G02X8563100Y20018320I12720J0D01*
G01X8658100D01*
G02X8670820Y20005600I0J-12720D01*
G01Y19915600D01*
G02X8658100Y19902880I-12720J0D01*
G01X8648920D01*
Y19716720D01*
X8674100D01*
G02X8686820Y19704000I0J-12720D01*
G01Y19450000D01*
G02X8674100Y19437280I-12720J0D01*
G01X8547100D01*
G02X8534380Y19450000I0J12720D01*
G01Y19704000D01*
G02X8547100Y19716720I12720J0D01*
G01X8572280D01*
Y19902880D01*
X8563100D01*
G02X8550380Y19915600I0J12720D01*
G37*
G36*
G01X9793680Y19408900D02*
Y19503900D01*
G02X9806400Y19516620I12720J0D01*
G01X9896400D01*
G02X9909120Y19503900I0J-12720D01*
G01Y19408900D01*
G02X9896400Y19396180I-12720J0D01*
G01X9876820D01*
Y19351000D01*
G02X9869370Y19333030I-25417J8D01*
G01X9796970Y19260630D01*
G02X9779000Y19253180I-17978J17967D01*
G01X9458330D01*
G02X9423400Y19235400I-34930J25421D01*
G02Y19321800I0J43200D01*
G02X9458330Y19304020I0J-43201D01*
G01X9768470D01*
X9825980Y19361530D01*
Y19396180D01*
X9806400D01*
G02X9793680Y19408900I0J12720D01*
G37*
G36*
G01X8788380Y18904000D02*
Y19158000D01*
G02X8801100Y19170720I12720J0D01*
G01X8928100D01*
G02X8940820Y19158000I0J-12720D01*
G01Y18904000D01*
G02X8928100Y18891280I-12720J0D01*
G01X8890020D01*
Y18705120D01*
X8912100D01*
G02X8924820Y18692400I0J-12720D01*
G01Y18602400D01*
G02X8912100Y18589680I-12720J0D01*
G01X8817100D01*
G02X8804380Y18602400I0J12720D01*
G01Y18692400D01*
G02X8817100Y18705120I12720J0D01*
G01X8839180D01*
Y18891280D01*
X8801100D01*
G02X8788380Y18904000I0J12720D01*
G37*
G36*
G01X8534380D02*
Y19158000D01*
G02X8547100Y19170720I12720J0D01*
G01X8674100D01*
G02X8686820Y19158000I0J-12720D01*
G01Y18904000D01*
G02X8674100Y18891280I-12720J0D01*
G01X8648920D01*
Y18865700D01*
G02X8646450Y18852160I-38321J-5D01*
G01X8646120Y18851290D01*
Y18493120D01*
X8665300D01*
G02X8678020Y18480400I5J-12715D01*
G01Y18400400D01*
G02X8665300Y18387680I-12715J-5D01*
G01X8646120D01*
Y18257360D01*
G02X8634900Y18230260I-38323J-6D01*
G01X8598120Y18193490D01*
Y18176050D01*
G02X8658770Y18084800I-38319J-91250D01*
G02X8460830I-98970J0D01*
G02X8521480Y18176050I98969J0D01*
G01Y18209360D01*
G02X8532700Y18236460I38323J6D01*
G01X8569480Y18273230D01*
Y18387680D01*
X8550300D01*
G02X8537580Y18400400I-5J12715D01*
G01Y18480400D01*
G02X8550300Y18493120I12715J5D01*
G01X8569480D01*
Y18862900D01*
G02X8571950Y18876440I38321J5D01*
G01X8572280Y18877310D01*
Y18891280D01*
X8547100D01*
G02X8534380Y18904000I0J12720D01*
G37*
G36*
G01X8280380D02*
Y19158000D01*
G02X8293100Y19170720I12720J0D01*
G01X8420100D01*
G02X8432820Y19158000I0J-12720D01*
G01Y18904000D01*
G02X8420100Y18891280I-12720J0D01*
G01X8394920D01*
Y18846800D01*
G02X8383700Y18819700I-38323J-6D01*
G01X8282100Y18718100D01*
G02X8255000Y18706880I-27094J27103D01*
G01X8042270D01*
X7988520Y18653130D01*
Y18531650D01*
G02Y18349150I-38319J-91250D01*
G01Y18253070D01*
X8025300Y18216300D01*
G02X8036520Y18189200I-27103J-27094D01*
G01Y18137520D01*
X8055700D01*
G02X8068420Y18124800I5J-12715D01*
G01Y18044800D01*
G02X8055700Y18032080I-12715J-5D01*
G01X7940700D01*
G02X7927980Y18044800I-5J12715D01*
G01Y18124800D01*
G02X7940700Y18137520I12715J5D01*
G01X7959880D01*
Y18173330D01*
X7923100Y18210100D01*
G02X7911880Y18237200I27103J27094D01*
G01Y18349150D01*
G02Y18531650I38319J91250D01*
G01Y18669000D01*
G02X7923100Y18696100I38323J6D01*
G01X7999300Y18772300D01*
G02X8026400Y18783520I27094J-27103D01*
G01X8239130D01*
X8318280Y18862670D01*
Y18891280D01*
X8293100D01*
G02X8280380Y18904000I0J12720D01*
G37*
G36*
G01X7657880Y18539360D02*
Y18776020D01*
X7657370Y18777070D01*
G02X7653000Y18796000I38829J18933D01*
G02X7739400I43200J0D01*
G02X7735030Y18777070I-43199J3D01*
G01X7734520Y18776020D01*
Y18539360D01*
X7782440D01*
G02X7795160Y18526640I5J-12715D01*
G01Y18354160D01*
G02X7782440Y18341440I-12715J-5D01*
G01X7734520D01*
Y18262600D01*
G02X7723300Y18235500I-38323J-6D01*
G01X7686520Y18198730D01*
Y18137520D01*
X7705700D01*
G02X7718420Y18124800I5J-12715D01*
G01Y18044800D01*
G02X7705700Y18032080I-12715J-5D01*
G01X7590700D01*
G02X7577980Y18044800I-5J12715D01*
G01Y18124800D01*
G02X7590700Y18137520I12715J5D01*
G01X7609880D01*
Y18214600D01*
G02X7621100Y18241700I38323J6D01*
G01X7657880Y18278470D01*
Y18341440D01*
X7609960D01*
G02X7597240Y18354160I-5J12715D01*
G01Y18526640D01*
G02X7609960Y18539360I12715J5D01*
G01X7657880D01*
G37*
G36*
G01X8187580Y18400400D02*
Y18480400D01*
G02X8200300Y18493120I12715J5D01*
G01X8315300D01*
G02X8328020Y18480400I5J-12715D01*
G01Y18400400D01*
G02X8315300Y18387680I-12715J-5D01*
G01X8296120D01*
Y18273220D01*
X8332900Y18236450D01*
G02X8344120Y18209350I-27103J-27094D01*
G01Y18183760D01*
X8392040D01*
G02X8404760Y18171040I5J-12715D01*
G01Y17998560D01*
G02X8392040Y17985840I-12715J-5D01*
G01X8219560D01*
G02X8206840Y17998560I-5J12715D01*
G01Y18171040D01*
G02X8219560Y18183760I12715J5D01*
G01X8267480D01*
Y18193480D01*
X8230700Y18230250D01*
G02X8219480Y18257350I27103J27094D01*
G01Y18387680D01*
X8200300D01*
G02X8187580Y18400400I-5J12715D01*
G37*
G36*
G01X8804380Y18442400D02*
Y18532400D01*
G02X8817100Y18545120I12720J0D01*
G01X8912100D01*
G02X8924820Y18532400I0J-12720D01*
G01Y18442400D01*
G02X8912100Y18429680I-12720J0D01*
G01X8817100D01*
G02X8804380Y18442400I0J12720D01*
G37*
G36*
G01X8280380Y19450000D02*
Y19704000D01*
G02X8293100Y19716720I12720J0D01*
G01X8420100D01*
G02X8432820Y19704000I0J-12720D01*
G01Y19450000D01*
G02X8420100Y19437280I-12720J0D01*
G01X8293100D01*
G02X8280380Y19450000I0J12720D01*
G37*
G36*
G01X9296380D02*
Y19704000D01*
G02X9309100Y19716720I12720J0D01*
G01X9436100D01*
G02X9448820Y19704000I0J-12720D01*
G01Y19450000D01*
G02X9436100Y19437280I-12720J0D01*
G01X9309100D01*
G02X9296380Y19450000I0J12720D01*
G37*
G36*
G01X8550380Y20075600D02*
Y20165600D01*
G02X8563100Y20178320I12720J0D01*
G01X8658100D01*
G02X8670820Y20165600I0J-12720D01*
G01Y20075600D01*
G02X8658100Y20062880I-12720J0D01*
G01X8563100D01*
G02X8550380Y20075600I0J12720D01*
G37*
G36*
G01X9744180Y20525200D02*
Y20615200D01*
G02X9756900Y20627920I12720J0D01*
G01X9851900D01*
G02X9864620Y20615200I0J-12720D01*
G01Y20525200D01*
G02X9851900Y20512480I-12720J0D01*
G01X9756900D01*
G02X9744180Y20525200I0J12720D01*
G37*
G36*
G01X8728180Y21211000D02*
Y21301000D01*
G02X8740900Y21313720I12720J0D01*
G01X8835900D01*
G02X8848620Y21301000I0J-12720D01*
G01Y21211000D01*
G02X8835900Y21198280I-12720J0D01*
G01X8740900D01*
G02X8728180Y21211000I0J12720D01*
G37*
G36*
G01X10213440Y20868760D02*
Y21041240D01*
G02X10226160Y21053960I12715J5D01*
G01X10398640D01*
G02X10411360Y21041240I5J-12715D01*
G01Y20868760D01*
G02X10398640Y20856040I-12715J-5D01*
G01X10226160D01*
G02X10213440Y20868760I-5J12715D01*
G37*
G36*
G01X10504880Y20907500D02*
Y21002500D01*
G02X10517600Y21015220I12720J0D01*
G01X10597600D01*
G02X10610320Y21002500I0J-12720D01*
G01Y20907500D01*
G02X10597600Y20894780I-12720J0D01*
G01X10517600D01*
G02X10504880Y20907500I0J12720D01*
G37*
G36*
G01X10631880Y21136100D02*
Y21231100D01*
G02X10644600Y21243820I12720J0D01*
G01X10724600D01*
G02X10737320Y21231100I0J-12720D01*
G01Y21136100D01*
G02X10724600Y21123380I-12720J0D01*
G01X10644600D01*
G02X10631880Y21136100I0J12720D01*
G37*
G36*
G01X11368480D02*
Y21231100D01*
G02X11381200Y21243820I12720J0D01*
G01X11471200D01*
G02X11483920Y21231100I0J-12720D01*
G01Y21136100D01*
G02X11471200Y21123380I-12720J0D01*
G01X11381200D01*
G02X11368480Y21136100I0J12720D01*
G37*
G36*
G01X12481580Y21600400D02*
Y21630400D01*
G02X12494300Y21643120I12720J0D01*
G01X12579300D01*
G02X12592020Y21630400I0J-12720D01*
G01Y21600400D01*
G02X12579300Y21587680I-12720J0D01*
G01X12494300D01*
G02X12481580Y21600400I0J12720D01*
G37*
G36*
G01X12314580D02*
Y21630400D01*
G02X12327300Y21643120I12720J0D01*
G01X12412300D01*
G02X12425020Y21630400I0J-12720D01*
G01Y21600400D01*
G02X12412300Y21587680I-12720J0D01*
G01X12327300D01*
G02X12314580Y21600400I0J12720D01*
G37*
G36*
G01X13077880Y21923500D02*
Y22018500D01*
G02X13090600Y22031220I12720J0D01*
G01X13180600D01*
G02X13193320Y22018500I0J-12720D01*
G01Y21923500D01*
G02X13180600Y21910780I-12720J0D01*
G01X13090600D01*
G02X13077880Y21923500I0J12720D01*
G37*
G36*
G01X8753580Y22260000D02*
Y22350000D01*
G02X8766300Y22362720I12720J0D01*
G01X8861300D01*
G02X8874020Y22350000I0J-12720D01*
G01Y22260000D01*
G02X8861300Y22247280I-12720J0D01*
G01X8766300D01*
G02X8753580Y22260000I0J12720D01*
G37*
G36*
G01X8931380D02*
Y22350000D01*
G02X8944100Y22362720I12720J0D01*
G01X9039100D01*
G02X9051820Y22350000I0J-12720D01*
G01Y22260000D01*
G02X9039100Y22247280I-12720J0D01*
G01X8944100D01*
G02X8931380Y22260000I0J12720D01*
G37*
G36*
G01X9591780Y22641000D02*
Y22731000D01*
G02X9604500Y22743720I12720J0D01*
G01X9699500D01*
G02X9712220Y22731000I0J-12720D01*
G01Y22641000D01*
G02X9699500Y22628280I-12720J0D01*
G01X9604500D01*
G02X9591780Y22641000I0J12720D01*
G37*
G36*
G01X9947380Y22481000D02*
Y22571000D01*
G02X9960100Y22583720I12720J0D01*
G01X10055100D01*
G02X10067820Y22571000I0J-12720D01*
G01Y22481000D01*
G02X10055100Y22468280I-12720J0D01*
G01X9960100D01*
G02X9947380Y22481000I0J12720D01*
G37*
G36*
G01X10598180Y22599700D02*
Y22764700D01*
G02X10610900Y22777420I12720J0D01*
G01X10775900D01*
G02X10788620Y22764700I0J-12720D01*
G01Y22599700D01*
G02X10775900Y22586980I-12720J0D01*
G01X10610900D01*
G02X10598180Y22599700I0J12720D01*
G37*
G36*
G01X11979980Y22649200D02*
Y22969200D01*
G02X11992700Y22981920I12720J0D01*
G01X12167700D01*
G02X12180420Y22969200I0J-12720D01*
G01Y22649200D01*
G02X12167700Y22636480I-12720J0D01*
G01X11992700D01*
G02X11979980Y22649200I0J12720D01*
G37*
G36*
G01X12609980Y22531700D02*
Y22626700D01*
G02X12622700Y22639420I12720J0D01*
G01X12797700D01*
G02X12810420Y22626700I0J-12720D01*
G01Y22531700D01*
G02X12797700Y22518980I-12720J0D01*
G01X12622700D01*
G02X12609980Y22531700I0J12720D01*
G37*
G36*
G01X10132180Y22848800D02*
Y22908800D01*
G02X10144900Y22921520I12720J0D01*
G01X10259900D01*
G02X10272620Y22908800I0J-12720D01*
G01Y22848800D01*
G02X10259900Y22836080I-12720J0D01*
G01X10144900D01*
G02X10132180Y22848800I0J12720D01*
G37*
G36*
G01X10832320Y22873480D02*
G02X10845800Y22879070I13488J-13477D01*
G01X11176000D01*
G02X11189480Y22873480I-8J-19067D01*
G01X11214880Y22848080D01*
G02X11220470Y22834600I-13477J-13488D01*
G01Y22775580D01*
X11224330Y22774620D01*
G02X11296620Y22682200I-22933J-92420D01*
G02X11106180I-95220J0D01*
G02X11178470Y22774620I95223J0D01*
G01X11182330Y22775580D01*
Y22826700D01*
X11168100Y22840930D01*
X10853700D01*
X10839470Y22826700D01*
Y22453600D01*
G02X10833880Y22440120I-19067J8D01*
G01X10783080Y22389320D01*
G02X10769600Y22383730I-13488J13477D01*
G01X10040900D01*
X10026670Y22369500D01*
Y22263410D01*
G02X10025020Y22255640I-19072J-10D01*
G03X10026390Y22249690I4638J-2065D01*
G02X10030920Y22239950I-8193J-9734D01*
G01Y22092450D01*
G02X10018200Y22079730I-12720J0D01*
G01X9478620D01*
Y22042820D01*
X10070830D01*
X10072000Y22043480D01*
G02X10078250Y22045120I6250J-11089D01*
G01X10225750D01*
G02X10238470Y22032400I0J-12720D01*
G01Y22002400D01*
G02X10236270Y21995250I-12719J0D01*
G03Y21989550I4205J-2850D01*
G02X10238470Y21982400I-10519J-7150D01*
G01Y21952400D01*
G02X10236270Y21945250I-12719J0D01*
G03Y21939550I4205J-2850D01*
G02X10236660Y21938940I-10517J-7154D01*
G01X10238140Y21936470D01*
X10507700D01*
X10547330Y21976100D01*
Y22148800D01*
G02X10552920Y22162280I19067J-8D01*
G01X10603720Y22213080D01*
G02X10617200Y22218670I13488J-13477D01*
G01X10863300D01*
X10928330Y22283700D01*
Y22588820D01*
X10924470Y22589780D01*
G02X10852180Y22682200I22933J92420D01*
G02X11042620I95220J0D01*
G02X10970330Y22589780I-95223J0D01*
G01X10966470Y22588820D01*
Y22275800D01*
G02X10960880Y22262320I-19067J8D01*
G01X10884680Y22186120D01*
G02X10871200Y22180530I-13488J13477D01*
G01X10625100D01*
X10585470Y22140900D01*
Y21968200D01*
G02X10579880Y21954720I-19067J8D01*
G01X10529080Y21903920D01*
G02X10515600Y21898330I-13488J13477D01*
G01X10238140D01*
X10236660Y21895860D01*
G02X10236270Y21895250I-10907J6544D01*
G03Y21889550I4205J-2850D01*
G02X10236660Y21888940I-10517J-7154D01*
G01X10238140Y21886470D01*
X10737630D01*
X10738600Y21886890D01*
G02X10746200Y21888470I7600J-17488D01*
G01X10758880D01*
Y21916900D01*
G02X10771600Y21929620I12720J0D01*
G01X10861600D01*
G02X10874320Y21916900I0J-12720D01*
G01Y21821900D01*
G02X10861600Y21809180I-12720J0D01*
G01X10771600D01*
G02X10758880Y21821900I0J12720D01*
G01Y21838520D01*
G03X10747150Y21848560I-10158J4D01*
G02X10744200Y21848330I-2953J18840D01*
G01X10238140D01*
X10236660Y21845860D01*
G02X10236270Y21845250I-10907J6544D01*
G03Y21839550I4205J-2850D01*
G02X10236660Y21838940I-10517J-7154D01*
G01X10238140Y21836470D01*
X10567600D01*
G02X10581080Y21830880I-8J-19067D01*
G01X10650500Y21761470D01*
X10896600D01*
G02X10910080Y21755880I-8J-19067D01*
G01X10955300Y21710670D01*
X11012880D01*
Y21739100D01*
G02X11025600Y21751820I12720J0D01*
G01X11115600D01*
G02X11128320Y21739100I0J-12720D01*
G01Y21644100D01*
G02X11115600Y21631380I-12720J0D01*
G01X11025600D01*
G02X11012880Y21644100I0J12720D01*
G01Y21672530D01*
X10947400D01*
G02X10933920Y21678120I8J19067D01*
G01X10888700Y21723330D01*
X10642600D01*
G02X10629120Y21728920I8J19067D01*
G01X10559700Y21798330D01*
X10238140D01*
X10236660Y21795860D01*
G02X10236270Y21795250I-10907J6544D01*
G03Y21789550I4205J-2850D01*
G02X10236660Y21788940I-10517J-7154D01*
G01X10238140Y21786470D01*
X10338200D01*
G02X10351680Y21780880I-8J-19067D01*
G01X10371100Y21761470D01*
X10400640D01*
G02X10439400Y21785600I38760J-19065D01*
G02Y21699200I0J-43200D01*
G02X10400640Y21723330I0J43195D01*
G01X10363200D01*
G02X10349720Y21728920I8J19067D01*
G01X10330300Y21748330D01*
X10238140D01*
X10236660Y21745860D01*
G02X10236270Y21745250I-10907J6544D01*
G03Y21739550I4205J-2850D01*
G02X10236660Y21738940I-10517J-7154D01*
G01X10238140Y21736470D01*
X10261200D01*
G02X10274680Y21730880I-8J-19067D01*
G01X10320300Y21685270D01*
X10845800D01*
G02X10859280Y21679680I-8J-19067D01*
G01X10884680Y21654280D01*
G02X10890270Y21640800I-13477J-13488D01*
G01Y21626120D01*
X10918700D01*
G02X10931420Y21613400I0J-12720D01*
G01Y21593820D01*
X10944100D01*
G02X10962070Y21586370I-8J-25417D01*
G01X10990120Y21558320D01*
G02X10992650Y21555390I-17919J-18030D01*
G01X10992870Y21555070D01*
X10995540Y21552410D01*
G03X11012880Y21559590I7182J7183D01*
G01Y21561300D01*
G02X11025600Y21574020I12720J0D01*
G01X11115600D01*
G02X11128320Y21561300I0J-12720D01*
G01Y21466300D01*
G02X11115600Y21453580I-12720J0D01*
G01X11025600D01*
G02X11012880Y21466300I0J12720D01*
G01Y21488380D01*
X10998200D01*
G02X10980230Y21495830I8J25417D01*
G01X10954180Y21521880D01*
G02X10951650Y21524810I17919J18030D01*
G01X10951430Y21525130D01*
X10940090Y21536460D01*
G03X10931420Y21532870I-3590J-3593D01*
G01Y21523400D01*
G02X10918700Y21510680I-12720J0D01*
G01X10823700D01*
G02X10810980Y21523400I0J12720D01*
G01Y21613400D01*
G02X10823700Y21626120I12720J0D01*
G01X10834390D01*
G03X10841570Y21643460I-3J10158D01*
G01X10837900Y21647130D01*
X10312400D01*
G02X10298920Y21652720I8J19067D01*
G01X10253300Y21698330D01*
X10238140D01*
X10236660Y21695860D01*
G02X10236270Y21695250I-10907J6544D01*
G03Y21689550I4205J-2850D01*
G02X10238470Y21682400I-10519J-7150D01*
G01Y21652400D01*
G02X10236270Y21645250I-12719J0D01*
G03Y21639550I4205J-2850D01*
G02X10238470Y21632400I-10519J-7150D01*
G01Y21602400D01*
G02X10236270Y21595250I-12719J0D01*
G03Y21589550I4205J-2850D01*
G02X10236660Y21588940I-10517J-7154D01*
G01X10238140Y21586470D01*
X10246010D01*
X10246720Y21586680D01*
G02X10252150Y21587470I5430J-18266D01*
G01X10607780D01*
Y21613400D01*
G02X10620500Y21626120I12720J0D01*
G01X10715500D01*
G02X10728220Y21613400I0J-12720D01*
G01Y21523400D01*
G02X10715500Y21510680I-12720J0D01*
G01X10620500D01*
G02X10607780Y21523400I0J12720D01*
G01Y21549330D01*
X10257290D01*
X10256580Y21549120D01*
G02X10251150Y21548330I-5430J18266D01*
G01X10238140D01*
X10236660Y21545860D01*
G02X10236270Y21545250I-10907J6544D01*
G03Y21539550I4205J-2850D01*
G02X10236660Y21538940I-10517J-7154D01*
G01X10238140Y21536470D01*
X10359600D01*
G02X10373080Y21530880I-8J-19067D01*
G01X10396500Y21507470D01*
X10451440D01*
G02X10490200Y21531600I38760J-19065D01*
G02Y21445200I0J-43200D01*
G02X10451440Y21469330I0J43195D01*
G01X10388600D01*
G02X10375120Y21474920I8J19067D01*
G01X10351700Y21498330D01*
X10238140D01*
X10236660Y21495860D01*
G02X10236270Y21495250I-10907J6544D01*
G03Y21489550I4205J-2850D01*
G02X10236660Y21488940I-10517J-7154D01*
G01X10238140Y21486470D01*
X10282600D01*
G02X10296080Y21480880I-8J-19067D01*
G01X10349500Y21427470D01*
X10607780D01*
Y21453400D01*
G02X10620500Y21466120I12720J0D01*
G01X10715500D01*
G02X10728220Y21453400I0J-12720D01*
G01Y21363400D01*
G02X10715500Y21350680I-12720J0D01*
G01X10620500D01*
G02X10607780Y21363400I0J12720D01*
G01Y21389330D01*
X10341600D01*
G02X10328120Y21394920I8J19067D01*
G01X10274700Y21448330D01*
X10238140D01*
X10236660Y21445860D01*
G02X10225750Y21439680I-10910J6540D01*
G01X10078250D01*
G02X10065530Y21452400I0J12720D01*
G01Y21482400D01*
G02X10067730Y21489550I12719J0D01*
G03Y21495250I-4205J2850D01*
G02X10065530Y21502400I10519J7150D01*
G01Y21532400D01*
G02X10067730Y21539550I12719J0D01*
G03Y21545250I-4205J2850D01*
G02X10065530Y21552400I10519J7150D01*
G01Y21582400D01*
G02X10067730Y21589550I12719J0D01*
G03Y21595250I-4205J2850D01*
G02X10065530Y21602400I10519J7150D01*
G01Y21632400D01*
G02X10067730Y21639550I12719J0D01*
G03Y21645250I-4205J2850D01*
G02X10065530Y21652400I10519J7150D01*
G01Y21682400D01*
G02X10067730Y21689550I12719J0D01*
G03Y21695250I-4205J2850D01*
G02X10065530Y21702400I10519J7150D01*
G01Y21732400D01*
G02X10067730Y21739550I12719J0D01*
G03Y21745250I-4205J2850D01*
G02X10065530Y21752400I10519J7150D01*
G01Y21782400D01*
G02X10067730Y21789550I12719J0D01*
G03Y21795250I-4205J2850D01*
G02X10065530Y21802400I10519J7150D01*
G01Y21832400D01*
G02X10067730Y21839550I12719J0D01*
G03Y21845250I-4205J2850D01*
G02X10065530Y21852400I10519J7150D01*
G01Y21882400D01*
G02X10067730Y21889550I12719J0D01*
G03Y21895250I-4205J2850D01*
G02X10065530Y21902400I10519J7150D01*
G01Y21932400D01*
G02X10067730Y21939550I12719J0D01*
G03Y21945250I-4205J2850D01*
G02X10065530Y21952400I10519J7150D01*
G01Y21969600D01*
G03X10048190Y21976790I-10160J3D01*
G01X10028620Y21957220D01*
Y21399770D01*
X10029280Y21398600D01*
G02X10030920Y21392350I-11089J-6250D01*
G01Y21244850D01*
G02X10018200Y21232130I-12720J0D01*
G01X9878620D01*
Y21018330D01*
X9916530Y20980420D01*
X9962680D01*
X9963780Y20984010D01*
G02X10058400Y21053970I94620J-29006D01*
G02Y20856030I0J-98970D01*
G02X9963780Y20925990I0J98966D01*
G01X9962680Y20929580D01*
X9906000D01*
G02X9888030Y20937030I8J25417D01*
G01X9845960Y20979090D01*
G03X9828620Y20971900I-7180J-7187D01*
G01Y20835750D01*
X9828820Y20835060D01*
G02X9829820Y20828000I-24422J-7060D01*
G01Y20787920D01*
X9851900D01*
G02X9864620Y20775200I0J-12720D01*
G01Y20685200D01*
G02X9851900Y20672480I-12720J0D01*
G01X9756900D01*
G02X9744180Y20685200I0J12720D01*
G01Y20775200D01*
G02X9756900Y20787920I12720J0D01*
G01X9778980D01*
Y20821450D01*
X9778780Y20822140D01*
G02X9777780Y20829200I24422J7060D01*
G01Y21232130D01*
X9741680D01*
G03X9731670Y21220280I6J-10158D01*
G02X9732020Y21216050I-25072J-4204D01*
G01Y20909930D01*
G02X9749800Y20875000I-25421J-34930D01*
G02X9663400I-43200J0D01*
G02X9681180Y20909930I43201J0D01*
G01Y21206690D01*
X9680610Y21207790D01*
G02X9677780Y21219450I22591J11656D01*
G01Y21232130D01*
X9578620D01*
Y21166080D01*
G02X9576290Y21155440I-25422J-8D01*
G01X9575820Y21154430D01*
Y21142330D01*
G02X9593600Y21107400I-25421J-34930D01*
G02X9507200I-43200J0D01*
G02X9524980Y21142330I43201J0D01*
G01Y21163280D01*
G02X9527310Y21173920I25422J8D01*
G01X9527780Y21174930D01*
Y21232130D01*
X9478620D01*
Y20300730D01*
X9510130Y20269220D01*
X9854480D01*
Y20283800D01*
G02X9867200Y20296520I12715J5D01*
G01X9947200D01*
G02X9959920Y20283800I5J-12715D01*
G01Y20203800D01*
G02X9947200Y20191080I-12715J-5D01*
G01X9932620D01*
Y20065060D01*
X9933350Y20063850D01*
G02X9937020Y20050700I-21748J-13157D01*
G01Y20038020D01*
X9944100D01*
G02X9956820Y20025300I0J-12720D01*
G01Y19876690D01*
G03X9970590Y19867190I10159J-4D01*
G02X9975100Y19868020I4520J-11893D01*
G01X10040100D01*
G02X10044610Y19867190I-10J-12723D01*
G03X10058380Y19876690I3611J9496D01*
G01Y20025300D01*
G02X10071100Y20038020I12720J0D01*
G01X10136100D01*
G02X10148820Y20025300I0J-12720D01*
G01Y19973220D01*
X10268500D01*
G03X10275690Y19990560I3J10160D01*
G01X10268380Y19997870D01*
X10265980Y19997620D01*
G02X10261600Y19997400I-4354J42981D01*
G02X10304800Y20040600I0J43200D01*
G02X10304580Y20036220I-43201J-26D01*
G01X10304330Y20033820D01*
X10330370Y20007770D01*
G02X10337820Y19989800I-17967J-17978D01*
G01Y19973220D01*
X10361470D01*
X10388580Y20000330D01*
Y20029880D01*
X10366500D01*
G02X10353780Y20042600I0J12720D01*
G01Y20132600D01*
G02X10366500Y20145320I12720J0D01*
G01X10461500D01*
G02X10474220Y20132600I0J-12720D01*
G01Y20042600D01*
G02X10461500Y20029880I-12720J0D01*
G01X10439420D01*
Y19989800D01*
G02X10431970Y19971830I-25417J8D01*
G01X10389970Y19929830D01*
G02X10372000Y19922380I-17978J17967D01*
G01X10148820D01*
Y19870300D01*
G02X10136100Y19857580I-12720J0D01*
G01X10071100D01*
G02X10066590Y19858410I10J12723D01*
G03X10052820Y19848910I-3611J-9496D01*
G01Y19700300D01*
G02X10040100Y19687580I-12720J0D01*
G01X10033020D01*
Y19542730D01*
X10033650Y19541590D01*
G02X10036820Y19529300I-22239J-12290D01*
G01Y19516620D01*
X10056400D01*
G02X10069120Y19503900I0J-12720D01*
G01Y19408900D01*
G02X10056400Y19396180I-12720J0D01*
G01X10036820D01*
Y19104600D01*
G02X10029370Y19086630I-25417J8D01*
G01X9955770Y19013030D01*
G02X9937800Y19005580I-17978J17967D01*
G01X9448820D01*
Y18904000D01*
G02X9436100Y18891280I-12720J0D01*
G01X9309100D01*
G02X9296380Y18904000I0J12720D01*
G01Y19158000D01*
G02X9309100Y19170720I12720J0D01*
G01X9436100D01*
G02X9448820Y19158000I0J-12720D01*
G01Y19056420D01*
X9927270D01*
X9985980Y19115130D01*
Y19396180D01*
X9966400D01*
G02X9953680Y19408900I0J12720D01*
G01Y19503900D01*
G02X9966400Y19516620I12720J0D01*
G01X9972590D01*
G03X9982580Y19528580I-7J10158D01*
G02X9982180Y19533100I25022J4492D01*
G01Y19687580D01*
X9975100D01*
G02X9962380Y19700300I0J12720D01*
G01Y19848910D01*
G03X9948610Y19858410I-10159J4D01*
G02X9944100Y19857580I-4520J11893D01*
G01X9879100D01*
G02X9866380Y19870300I0J12720D01*
G01Y20025300D01*
G02X9875430Y20037480I12722J0D01*
G03X9882410Y20049460I-2924J9727D01*
G02X9881780Y20055100I24792J5624D01*
G01Y20191080D01*
X9867200D01*
G02X9854480Y20203800I-5J12715D01*
G01Y20218380D01*
X9499600D01*
G02X9481630Y20225830I8J25417D01*
G01X9435230Y20272230D01*
G02X9427780Y20290200I17967J17978D01*
G01Y21237430D01*
X9427120Y21238600D01*
G02X9425480Y21244850I11089J6250D01*
G01Y21392350D01*
G02X9438200Y21405070I12720J0D01*
G01X9977780D01*
Y21967750D01*
G02X9979850Y21977800I25432J0D01*
G03X9970520Y21991980I-9330J4021D01*
G01X9779020D01*
Y21904330D01*
G02X9796800Y21869400I-25421J-34930D01*
G02X9710400I-43200J0D01*
G02X9728180Y21904330I43201J0D01*
G01Y21991980D01*
X9478620D01*
Y21642580D01*
G02X9471170Y21624610I-25417J8D01*
G01X9445990Y21599430D01*
G02X9428020Y21591980I-17978J17967D01*
G01X9390870D01*
Y21552400D01*
G02X9388670Y21545250I-12719J0D01*
G03Y21539550I4205J-2850D01*
G02X9390870Y21532400I-10519J-7150D01*
G01Y21502400D01*
G02X9388670Y21495250I-12719J0D01*
G03Y21489550I4205J-2850D01*
G02X9390870Y21482400I-10519J-7150D01*
G01Y21452400D01*
G02X9378150Y21439680I-12720J0D01*
G01X9230650D01*
G02X9224400Y21441320I0J12729D01*
G01X9223230Y21441980D01*
X9137930D01*
X9127420Y21431470D01*
Y20964420D01*
X9142000D01*
G02X9154720Y20951700I0J-12720D01*
G01Y20856700D01*
G02X9142000Y20843980I-12720J0D01*
G01X9127420D01*
Y20296330D01*
X9136570Y20287170D01*
G02X9144020Y20269200I-17967J-17978D01*
G01Y19716720D01*
X9182100D01*
G02X9194820Y19704000I0J-12720D01*
G01Y19450000D01*
G02X9182100Y19437280I-12720J0D01*
G01X9055100D01*
G02X9042380Y19450000I0J12720D01*
G01Y19704000D01*
G02X9055100Y19716720I12720J0D01*
G01X9093180D01*
Y20258670D01*
X9084030Y20267830D01*
G02X9076580Y20285800I17967J17978D01*
G01Y20843980D01*
X9062000D01*
G02X9049280Y20856700I0J12720D01*
G01Y20951700D01*
G02X9062000Y20964420I12720J0D01*
G01X9076580D01*
Y21442000D01*
G02X9084030Y21459970I25417J-8D01*
G01X9109430Y21485370D01*
G02X9127400Y21492820I17978J-17967D01*
G01X9217930D01*
Y21541980D01*
X9057730D01*
X8998140Y21482390D01*
G03X9001730Y21473720I3589J-3592D01*
G01X9013700D01*
G02X9026420Y21461000I0J-12720D01*
G01Y21371000D01*
G02X9013700Y21358280I-12720J0D01*
G01X8918700D01*
G02X8905980Y21371000I0J12720D01*
G01Y21390580D01*
X8848620D01*
Y21371000D01*
G02X8835900Y21358280I-12720J0D01*
G01X8740900D01*
G02X8728180Y21371000I0J12720D01*
G01Y21461000D01*
G02X8740900Y21473720I12720J0D01*
G01X8835900D01*
G02X8848620Y21461000I0J-12720D01*
G01Y21441420D01*
X8905980D01*
Y21461000D01*
G02X8918700Y21473720I12720J0D01*
G01X8940780D01*
Y21486400D01*
G02X8948230Y21504370I25417J-8D01*
G01X9029230Y21585370D01*
G02X9047200Y21592820I17978J-17967D01*
G01X9217930D01*
Y21632400D01*
G02X9220130Y21639550I12719J0D01*
G03Y21645250I-4205J2850D01*
G02X9217930Y21652400I10519J7150D01*
G01Y21691980D01*
X9078730D01*
X8907970Y21521230D01*
G02X8890000Y21513780I-17978J17967D01*
G01X8595730D01*
X8559820Y21477870D01*
Y21321320D01*
X8581900D01*
G02X8594620Y21308600I0J-12720D01*
G01Y21218600D01*
G02X8581900Y21205880I-12720J0D01*
G01X8486900D01*
G02X8474180Y21218600I0J12720D01*
G01Y21238180D01*
X8461500D01*
G02X8449210Y21241350I0J25409D01*
G01X8448070Y21241980D01*
X8390510D01*
X8389140Y21239040D01*
G02X8388130Y21237250I-11548J5336D01*
G03Y21231550I4200J-2850D01*
G02X8390320Y21224400I-10529J-7135D01*
G01Y21178400D01*
G02X8377600Y21165680I-12720J0D01*
G01X8335600D01*
G02X8322880Y21178400I0J12720D01*
G01Y21224400D01*
G02X8325070Y21231550I12719J15D01*
G03Y21237250I-4200J2850D01*
G02X8324760Y21237730I10530J7141D01*
G03X8317470Y21239190I-4325J-2663D01*
G02X8302590Y21234380I-14880J20611D01*
G01X7994620D01*
Y21177300D01*
G02X7981900Y21164580I-12720J0D01*
G01X7816900D01*
G02X7804180Y21177300I0J12720D01*
G01Y21342300D01*
G02X7816900Y21355020I12720J0D01*
G01X7981900D01*
G02X7994620Y21342300I0J-12720D01*
G01Y21285220D01*
X8292060D01*
G02X8310190Y21292820I18130J-17825D01*
G01X8322690D01*
X8324060Y21295760D01*
G02X8335600Y21303120I11535J-5360D01*
G01X8377600D01*
G02X8389140Y21295760I5J-12720D01*
G01X8390510Y21292820D01*
X8457700D01*
G02X8462220Y21292420I28J-25422D01*
G03X8474180Y21302410I1802J9997D01*
G01Y21308600D01*
G02X8486900Y21321320I12720J0D01*
G01X8508980D01*
Y21488400D01*
G02X8516430Y21506370I25417J-8D01*
G01X8567230Y21557170D01*
G02X8585200Y21564620I17978J-17967D01*
G01X8879470D01*
X9039490Y21724640D01*
G03X9032300Y21741980I-7187J7180D01*
G01X9001730D01*
X8940970Y21681230D01*
G02X8923000Y21673780I-17978J17967D01*
G01X8847710D01*
X8846340Y21670840D01*
G02X8845330Y21669050I-11548J5336D01*
G03Y21663350I4200J-2850D01*
G02X8847520Y21656200I-10529J-7135D01*
G01Y21610200D01*
G02X8834800Y21597480I-12720J0D01*
G01X8792800D01*
G02X8780080Y21610200I0J12720D01*
G01Y21656200D01*
G02X8782270Y21663350I12719J15D01*
G03Y21669050I-4200J2850D01*
G02X8782120Y21669290I10711J6861D01*
G01X8781820Y21669740D01*
X8777850Y21673710D01*
X8728960Y21624830D01*
G02X8710990Y21617380I-17978J17967D01*
G01X8667500D01*
G02X8651620Y21622950I0J25422D01*
G03X8645280I-3170J-3969D01*
G02X8629400Y21617380I-15880J19852D01*
G01X8591300D01*
G02X8575420Y21622950I0J25422D01*
G03X8569080I-3170J-3969D01*
G02X8553200Y21617380I-15880J19852D01*
G01X8515100D01*
G02X8499220Y21622950I0J25422D01*
G03X8492880I-3170J-3969D01*
G02X8477000Y21617380I-15880J19852D01*
G01X8438900D01*
G02X8423020Y21622950I0J25422D01*
G03X8416680I-3170J-3969D01*
G02X8400800Y21617380I-15880J19852D01*
G01X8388120D01*
Y21587800D01*
G02X8375400Y21575080I-12720J0D01*
G01X8185400D01*
G02X8172680Y21587800I0J12720D01*
G01Y21697800D01*
G02X8185400Y21710520I12720J0D01*
G01X8375380D01*
Y21742400D01*
G02X8400800Y21767820I25420J0D01*
G01X8408740D01*
G03X8417920Y21782330I-1J10159D01*
G02X8415480Y21793200I22992J10870D01*
G01Y21857510D01*
G03X8404030Y21867590I-10161J1D01*
G02X8400800Y21867380I-3261J25208D01*
G01X8388120D01*
Y21837800D01*
G02X8375400Y21825080I-12720J0D01*
G01X8185400D01*
G02X8172680Y21837800I0J12720D01*
G01Y21947800D01*
G02X8185400Y21960520I12720J0D01*
G01X8375400D01*
G02X8388120Y21947800I0J-12720D01*
G01Y21930090D01*
G03X8399570Y21920010I10159J-3D01*
G02X8402800Y21920220I3261J-25208D01*
G01X8440900D01*
G02X8456780Y21914650I0J-25422D01*
G03X8463120I3170J3969D01*
G02X8479000Y21920220I15880J-19852D01*
G01X8517100D01*
G02X8532980Y21914650I0J-25422D01*
G03X8539320I3170J3969D01*
G02X8555200Y21920220I15880J-19852D01*
G01X8593300D01*
G02X8609180Y21914650I0J-25422D01*
G03X8615520I3170J3969D01*
G02X8631400Y21920220I15880J-19852D01*
G01X8734390D01*
G02X8752360Y21912770I-8J-25417D01*
G01X8777850Y21887290D01*
X8781820Y21891260D01*
X8782120Y21891710D01*
G02X8782270Y21891950I10861J-6621D01*
G03Y21897650I-4200J2850D01*
G02X8780080Y21904800I10529J7135D01*
G01Y21950800D01*
G02X8792800Y21963520I12720J0D01*
G01X8834800D01*
G02X8847520Y21950800I0J-12720D01*
G01Y21904800D01*
G02X8845330Y21897650I-12719J-15D01*
G03Y21891950I4200J-2850D01*
G02X8846340Y21890160I-10538J-7126D01*
G01X8847710Y21887220D01*
X8923000D01*
G02X8940970Y21879770I-8J-25417D01*
G01X8977930Y21842820D01*
X9217930D01*
Y21891980D01*
X9095990D01*
G02X9078020Y21899430I8J25417D01*
G01X8981060Y21996380D01*
X8839200D01*
G02X8821230Y22003830I8J25417D01*
G01X8795830Y22029230D01*
G02X8788380Y22047200I17967J17978D01*
G01Y22087280D01*
X8766300D01*
G02X8753580Y22100000I0J12720D01*
G01Y22190000D01*
G02X8766300Y22202720I12720J0D01*
G01X8861300D01*
G02X8874020Y22190000I0J-12720D01*
G01Y22100000D01*
G02X8861300Y22087280I-12720J0D01*
G01X8839220D01*
Y22057730D01*
X8849730Y22047220D01*
X8991590D01*
G02X9009560Y22039770I-8J-25417D01*
G01X9106520Y21942820D01*
X9143100D01*
G03X9150290Y21960160I3J10160D01*
G01X9126030Y21984430D01*
G02X9118580Y22002400I17967J17978D01*
G01Y22109070D01*
X9108070Y22119580D01*
X9051820D01*
Y22100000D01*
G02X9039100Y22087280I-12720J0D01*
G01X8944100D01*
G02X8931380Y22100000I0J12720D01*
G01Y22190000D01*
G02X8944100Y22202720I12720J0D01*
G01X9039100D01*
G02X9051820Y22190000I0J-12720D01*
G01Y22170420D01*
X9118600D01*
G02X9136570Y22162970I-8J-25417D01*
G01X9161970Y22137570D01*
G02X9169420Y22119600I-17967J-17978D01*
G01Y22012930D01*
X9189530Y21992820D01*
X9217930D01*
Y22032400D01*
G02X9230650Y22045120I12720J0D01*
G01X9378150D01*
G02X9390870Y22032400I0J-12720D01*
G01Y22002400D01*
G02X9388670Y21995250I-12719J0D01*
G03Y21989550I4205J-2850D01*
G02X9390870Y21982400I-10519J-7150D01*
G01Y21952400D01*
G02X9388670Y21945250I-12719J0D01*
G03Y21939550I4205J-2850D01*
G02X9390870Y21932400I-10519J-7150D01*
G01Y21902400D01*
G02X9388670Y21895250I-12719J0D01*
G03Y21889550I4205J-2850D01*
G02X9390870Y21882400I-10519J-7150D01*
G01Y21852400D01*
G02X9388670Y21845250I-12719J0D01*
G03Y21839550I4205J-2850D01*
G02X9390870Y21832400I-10519J-7150D01*
G01Y21802400D01*
G02X9388670Y21795250I-12719J0D01*
G03Y21789550I4205J-2850D01*
G02X9390870Y21782400I-10519J-7150D01*
G01Y21752400D01*
G02X9388670Y21745250I-12719J0D01*
G03Y21739550I4205J-2850D01*
G02X9390870Y21732400I-10519J-7150D01*
G01Y21702400D01*
G02X9388670Y21695250I-12719J0D01*
G03Y21689550I4205J-2850D01*
G02X9390870Y21682400I-10519J-7150D01*
G01Y21642820D01*
X9417490D01*
X9427780Y21653110D01*
Y22085030D01*
X9427120Y22086200D01*
G02X9425480Y22092450I11089J6250D01*
G01Y22239950D01*
G02X9438200Y22252670I12720J0D01*
G01X9627780D01*
Y22258800D01*
X9627580Y22259490D01*
G02X9626580Y22266550I24422J7060D01*
G01Y22468280D01*
X9604500D01*
G02X9591780Y22481000I0J12720D01*
G01Y22571000D01*
G02X9604500Y22583720I12720J0D01*
G01X9699500D01*
G02X9712220Y22571000I0J-12720D01*
G01Y22481000D01*
G02X9699500Y22468280I-12720J0D01*
G01X9677420D01*
Y22273100D01*
X9677620Y22272410D01*
G02X9678620Y22265350I-24422J-7060D01*
G01Y22252670D01*
X9927780D01*
Y22268870D01*
X9811830Y22384830D01*
G02X9804380Y22402800I17967J17978D01*
G01Y22468280D01*
X9782300D01*
G02X9769580Y22481000I0J12720D01*
G01Y22571000D01*
G02X9782300Y22583720I12720J0D01*
G01X9877300D01*
G02X9890020Y22571000I0J-12720D01*
G01Y22481000D01*
G02X9877300Y22468280I-12720J0D01*
G01X9855220D01*
Y22413330D01*
X9971180Y22297370D01*
G03X9988530Y22304550I7190J7177D01*
G01Y22377400D01*
G02X9994120Y22390880I19067J-8D01*
G01X10019520Y22416280D01*
G02X10033000Y22421870I13488J-13477D01*
G01X10761700D01*
X10801330Y22461500D01*
Y22834600D01*
G02X10806920Y22848080I19067J-8D01*
G01X10832320Y22873480D01*
G37*
G54D41*
X12453300Y21515400D03*
G54D42*
X7899400Y21005800D03*
Y20751800D03*
G54D40*
X12668300Y22130400D03*
X12238300D03*
X12668300Y21650400D03*
%LPD*%
G75*
G36*
G01X8656820Y21869380D02*
X8723860D01*
X8749420Y21843830D01*
G03X8767390Y21836380I17978J17967D01*
G01X8779890D01*
X8781260Y21833440D01*
G03X8792800Y21826080I11535J5360D01*
G01X8834800D01*
G03X8846340Y21833440I5J12720D01*
G01X8847710Y21836380D01*
X8912470D01*
X8949430Y21799430D01*
G03X8959890Y21793110I17990J17958D01*
G02X8964070Y21776220I-3000J-9705D01*
G01X8912470Y21724620D01*
X8847710D01*
X8846340Y21727560D01*
G03X8834800Y21734920I-11535J-5360D01*
G01X8792800D01*
G03X8781260Y21727560I-5J-12720D01*
G01X8779890Y21724620D01*
X8767390D01*
G03X8749420Y21717170I8J-25417D01*
G01X8700460Y21668220D01*
X8692920D01*
Y21742400D01*
G03X8667500Y21767820I-25420J0D01*
G01X8663560D01*
G02X8654380Y21782330I1J10159D01*
G03X8656820Y21793200I-22992J10870D01*
G01Y21869380D01*
G37*
G36*
G01X12425020Y21989980D02*
X12481580D01*
Y21939780D01*
X12478670Y21938410D01*
G03X12471510Y21933370I10832J-22994D01*
G01X12442360Y21904230D01*
G02X12425020Y21911410I-7182J7183D01*
G01Y21930400D01*
G03X12422820Y21937550I-12719J0D01*
G02Y21943250I4200J2850D01*
G03X12425020Y21950400I-10519J7150D01*
G01Y21989980D01*
G37*
G54D10*
X7648200Y18084800D03*
X7998200D03*
X8257800Y18440400D03*
X8607800D03*
G54D20*
X8280400Y21642800D03*
Y21892800D03*
G54D11*
X7950200Y18440400D03*
X8559800Y18084800D03*
X10058400Y20955000D03*
G54D12*
X7696200Y18440400D03*
X8305800Y18084800D03*
X10312400Y20955000D03*
G54D21*
X8932000Y20904200D03*
X9102000D03*
X10727600Y20955000D03*
X10557600D03*
X10854600Y21183600D03*
X10684600D03*
X11065600D03*
X11235600D03*
G54D30*
X12453300Y21515400D03*
G54D31*
X12536800Y21615400D03*
X12369800D03*
X12536800Y21765400D03*
Y21815400D03*
Y21865400D03*
Y21915400D03*
Y21965400D03*
Y22015400D03*
Y22165400D03*
X12369800D03*
Y22015400D03*
Y21965400D03*
Y21915400D03*
Y21865400D03*
Y21815400D03*
Y21765400D03*
G54D13*
X7696200Y18796000D03*
X8258800Y21103600D03*
X8864600Y20320000D03*
X9423400Y19278600D03*
X9296400Y22910800D03*
X9706600Y20138400D03*
X9550400Y21107400D03*
X9706600Y20875000D03*
X9753600Y21869400D03*
X10261600Y20040600D03*
X10439400Y21742400D03*
X10422400Y22512800D03*
X10185400Y22504400D03*
X10490200Y21488400D03*
X10668000Y22047200D03*
X11065600Y21352600D03*
X11234400Y23299400D03*
X11811000Y21183600D03*
Y21767800D03*
X11506200Y21539200D03*
X11480800Y22072600D03*
X11684000Y22529800D03*
X11480800Y22275800D03*
X11811000Y23139400D03*
X11684000D03*
X11557000D03*
X11404600Y23088600D03*
X11963400Y21666200D03*
X11988800Y21996400D03*
X11938000Y23139400D03*
X12877800Y21564600D03*
Y22250400D03*
X13233400Y22885400D03*
G54D22*
X9453200Y21318600D03*
Y22166200D03*
X9903200Y21318600D03*
X9853200D03*
X9803200D03*
X9753200D03*
X9703200D03*
X9653200D03*
X9603200D03*
X9553200D03*
X9503200D03*
Y22166200D03*
X9553200D03*
X9603200D03*
X9653200D03*
X9703200D03*
X9753200D03*
X9803200D03*
X9853200D03*
X9903200D03*
X10003200Y21318600D03*
X9953200D03*
Y22166200D03*
X10003200D03*
G54D14*
X7899400Y20751800D03*
Y21005800D03*
X11201400Y22682200D03*
X10947400D03*
G54D32*
X12710200Y22579200D03*
Y23039200D03*
Y22809200D03*
G54D23*
X9304400Y21467400D03*
Y21517400D03*
Y21567400D03*
Y21617400D03*
Y21667400D03*
Y21717400D03*
Y21767400D03*
Y21817400D03*
Y21867400D03*
Y21917400D03*
Y21967400D03*
Y22017400D03*
X10152000Y21717400D03*
Y21667400D03*
Y21617400D03*
Y21567400D03*
Y21517400D03*
Y21467400D03*
Y22017400D03*
Y21967400D03*
Y21917400D03*
Y21867400D03*
Y21817400D03*
Y21767400D03*
G54D33*
X12453300Y22265400D03*
G54D15*
X7899400Y21259800D03*
X10693400Y22682200D03*
G54D24*
X9907200Y20243800D03*
X10057200D03*
G54D16*
X8356600Y19031000D03*
Y19577000D03*
X8864600Y19031000D03*
X8610600D03*
X8864600Y19577000D03*
X8610600D03*
X9372600Y19031000D03*
X9118600D03*
X9372600Y19577000D03*
X9118600D03*
G54D25*
X9911600Y19947800D03*
X10007600Y19777800D03*
X10103600Y19947800D03*
G54D34*
X12473400Y23299400D03*
Y23487400D03*
X12723400D03*
Y23393400D03*
Y23299400D03*
G54D35*
X12976700Y21767800D03*
X13083700D03*
G54D17*
X8356600Y21267400D03*
Y21201400D03*
X8813800Y21699200D03*
Y21633200D03*
Y21861800D03*
Y21927800D03*
X11607800Y22918400D03*
Y22852400D03*
X11709400Y22918400D03*
Y22852400D03*
X11811000Y22918400D03*
Y22852400D03*
X11506200Y22918400D03*
Y22852400D03*
X11404600Y22918400D03*
Y22852400D03*
X12928600Y23299400D03*
Y23233400D03*
X13030200Y23299400D03*
Y23233400D03*
G54D26*
X10202400Y22688800D03*
X10422400Y22783800D03*
X10202400Y22878800D03*
G54D36*
G01X7950200Y18440400D02*
Y18237200D01*
X7998200Y18189200D01*
Y18084800D01*
G01X7648200D02*
Y18214600D01*
X7696200Y18262600D01*
Y18440400D01*
G01X7950200D02*
Y18669000D01*
X8026400Y18745200D01*
X8255000D01*
X8356600Y18846800D01*
Y19031000D01*
G01X7696200Y18440400D02*
Y18796000D01*
G01X8305800Y18084800D02*
Y18209350D01*
X8257800Y18257350D01*
Y18440400D01*
G01X8607800D02*
Y18257360D01*
X8559800Y18209360D01*
Y18084800D01*
G01X8607800Y18440400D02*
Y18862900D01*
X8610600Y18865700D01*
Y19031000D01*
G01Y19960600D02*
Y19577000D01*
G01X8864600Y19960600D02*
Y19577000D01*
G54D18*
X8530600Y20904200D03*
X8690600D03*
X9851400Y19456400D03*
X9546600Y19964400D03*
X9706600D03*
X9833600Y22910800D03*
X9673600D03*
X10011400Y19456400D03*
X10892800Y20955000D03*
X10816600Y21869400D03*
Y22047200D03*
X11052800Y20955000D03*
X11230600Y21691600D03*
X11070600D03*
Y21513800D03*
X11230600D03*
X10976600Y21869400D03*
Y22047200D03*
X11426200Y21183600D03*
X11586200D03*
X13135600Y21971000D03*
X12975600D03*
G54D27*
X11234400Y22072600D03*
X11168400D03*
X11234400Y22275800D03*
X11168400D03*
X11234400Y23088600D03*
X11168400D03*
X12250400Y23495000D03*
X12184400D03*
X12987000Y23393400D03*
X12921000D03*
G54D37*
G01X7899400Y20651500D02*
Y20751800D01*
G01D02*
Y20852100D01*
G01X7799100Y20751800D02*
X7899400D01*
G01D02*
X7999700D01*
G01X7899400Y20905500D02*
Y21005800D01*
G01D02*
Y21106100D01*
G01X7799100Y21005800D02*
X7899400D01*
G01D02*
X7999700D01*
G01X8356600Y19432200D02*
Y19577000D01*
G01D02*
Y19721800D01*
G01X8275300Y19577000D02*
X8356600D01*
G01D02*
X8437900D01*
G01X8356600Y21160600D02*
Y21201400D01*
G01X8317790D02*
X8356600D01*
G01D02*
X8395410D01*
G01X8534400Y21103600D02*
X8258800D01*
G01X8864600Y20320000D02*
Y20120600D01*
G01X8788400Y21193200D02*
Y21256000D01*
G01D02*
Y21318800D01*
G01X8723100Y21256000D02*
X8788400D01*
G01D02*
X8853700D01*
G01X8813800Y21592400D02*
Y21633200D01*
G01X8774990D02*
X8813800D01*
G01D02*
X8852610D01*
G01X8813800Y21927800D02*
Y21968600D01*
G01X8774990Y21927800D02*
X8813800D01*
G01D02*
X8852610D01*
G01X8813800Y22242200D02*
Y22305000D01*
G01D02*
Y22367800D01*
G01X8748500Y22305000D02*
X8813800D01*
G01D02*
X8879100D01*
G01X8926300D02*
X8991600D01*
G01X9212850Y21667400D02*
X9304400D01*
G01D02*
X9395950D01*
G01X8991600Y22242200D02*
Y22305000D01*
G01D02*
Y22367800D01*
G01Y22305000D02*
X9056900D01*
G01X9804400Y20507400D02*
Y20570200D01*
G01D02*
Y20633000D01*
G01X9739100Y20570200D02*
X9804400D01*
G01D02*
X9869700D01*
G01X9503200Y22074650D02*
Y22166200D01*
G01D02*
Y22257750D01*
G01X9652000Y22623200D02*
Y22686000D01*
G01D02*
Y22748800D01*
G01X9586700Y22686000D02*
X9652000D01*
G01D02*
X9717300D01*
G01X9829800D02*
X10007600D01*
G01X9833600Y22910800D02*
Y22753860D01*
X9829800Y22750060D01*
Y22686000D01*
G01X9953200Y21227050D02*
Y21318600D01*
G01X10312400Y20850950D02*
Y20955000D01*
G01D02*
Y21059050D01*
G01X10208350Y20955000D02*
X10312400D01*
G01D02*
X10416450D01*
G01X10490200Y21488400D02*
X10388600D01*
X10359600Y21517400D01*
X10152000D01*
G01Y21467400D02*
X10282600D01*
X10341600Y21408400D01*
X10668000D01*
G01X10871200Y21568400D02*
Y21640800D01*
X10845800Y21666200D01*
X10312400D01*
X10261200Y21717400D01*
X10152000D01*
G01X10668000Y21568400D02*
X10252150D01*
X10251150Y21567400D01*
X10152000D01*
G01X9953200Y21318600D02*
Y21410150D01*
G01X10152000Y21867400D02*
X10744200D01*
X10746200Y21869400D01*
X10816600D01*
G01X10152000Y21817400D02*
X10567600D01*
X10642600Y21742400D01*
X10896600D01*
X10947400Y21691600D01*
X11070600D01*
G01X10439400Y21742400D02*
X10363200D01*
X10338200Y21767400D01*
X10152000D01*
G01X10003200Y22166200D02*
Y22259010D01*
X10007600Y22263410D01*
Y22377400D01*
X10033000Y22402800D01*
X10769600D01*
X10820400Y22453600D01*
Y22834600D01*
X10845800Y22860000D01*
X11176000D01*
X11201400Y22834600D01*
Y22682200D01*
G01X10060450Y21967400D02*
X10152000D01*
G01D02*
X10243550D01*
G01X10152000Y21917400D02*
X10515600D01*
X10566400Y21968200D01*
Y22148800D01*
X10617200Y22199600D01*
X10871200D01*
X10947400Y22275800D01*
Y22682200D01*
G01X10007600Y22463200D02*
Y22526000D01*
G01D02*
Y22588800D01*
G01X9942300Y22526000D02*
X10007600D01*
G01D02*
X10072900D01*
G01X10185400Y22504400D02*
Y22580600D01*
X10202400Y22597600D01*
Y22688800D01*
G01X10007600Y22686000D02*
X10123030D01*
X10125830Y22688800D01*
X10202400D01*
G01X10684600Y21118300D02*
Y21183600D01*
G01D02*
Y21248900D01*
G01X10626790Y21183600D02*
X10684600D01*
G01D02*
X10742410D01*
G01X10557600Y20889700D02*
Y20955000D01*
G01D02*
Y21020300D01*
G01X10499790Y20955000D02*
X10557600D01*
G01D02*
X10615410D01*
G01X10816600Y22047200D02*
X10668000D01*
G01X10693400Y22581900D02*
Y22682200D01*
G01D02*
Y22782500D01*
G01X10593100Y22682200D02*
X10693400D01*
G01D02*
X10793700D01*
G01X11168400Y22033790D02*
Y22072600D01*
G01D02*
Y22111410D01*
G01X11127600Y22072600D02*
X11168400D01*
G01X10976600Y22047200D02*
Y21869400D01*
G01X11168400Y22236990D02*
Y22275800D01*
G01D02*
Y22314610D01*
G01X11127600Y22275800D02*
X11168400D01*
G01Y23049790D02*
Y23088600D01*
G01D02*
Y23127410D01*
G01X11127600Y23088600D02*
X11168400D01*
G01X11426200Y21118300D02*
Y21183600D01*
G01D02*
Y21248900D01*
G01X11363400Y21183600D02*
X11426200D01*
G01D02*
X11489000D01*
G01X11404600Y22811600D02*
Y22852400D01*
G01X11365790D02*
X11404600D01*
G01D02*
X11443410D01*
G01X11772190D02*
X11811000D01*
G01X11709400Y22811600D02*
Y22852400D01*
G01X11670590D02*
X11709400D01*
G01D02*
X11748210D01*
G01X11607800Y22811600D02*
Y22852400D01*
G01X11568990D02*
X11607800D01*
G01D02*
X11646610D01*
G01X11506200Y22811600D02*
Y22852400D01*
G01X11467390D02*
X11506200D01*
G01D02*
X11545010D01*
G01X11811000Y22811600D02*
Y22852400D01*
G01D02*
X11849810D01*
G01X12184400Y23456190D02*
Y23495000D01*
G01D02*
Y23533810D01*
G01X12143600Y23495000D02*
X12184400D01*
G01X12536800Y21582600D02*
Y21615400D01*
G01D02*
Y21648200D01*
G01X12476500Y21615400D02*
X12536800D01*
G01D02*
X12597100D01*
G01X12369800Y21582600D02*
Y21615400D01*
G01D02*
Y21648200D01*
G01X12309500Y21615400D02*
X12369800D01*
G01D02*
X12430100D01*
G01X12536800Y22132600D02*
Y22165400D01*
G01D02*
Y22198200D01*
G01X12476500Y22165400D02*
X12536800D01*
G01D02*
X12597100D01*
G01X12369800Y22132600D02*
Y22165400D01*
G01D02*
Y22198200D01*
G01X12309500Y22165400D02*
X12369800D01*
G01D02*
X12430100D01*
G01X12710200Y22513900D02*
Y22579200D01*
G01D02*
Y22644500D01*
G01X12604890Y22579200D02*
X12710200D01*
G01D02*
X12815510D01*
G01X12643100Y23393400D02*
X12723400D01*
G01D02*
X12803700D01*
G01X13135600Y21905700D02*
Y21971000D01*
G01D02*
Y22036300D01*
G01X13072800Y21971000D02*
X13135600D01*
G01D02*
X13198400D01*
G01X12921000Y23354590D02*
Y23393400D01*
G01D02*
Y23432210D01*
G01X12880200Y23393400D02*
X12921000D01*
G01X13030200Y23192600D02*
Y23233400D01*
G01X12991390D02*
X13030200D01*
G01D02*
X13069010D01*
G01X12928600Y23192600D02*
Y23233400D01*
G01X12889790D02*
X12928600D01*
G01D02*
X12967410D01*
G54D19*
X8534400Y21263600D03*
Y21103600D03*
X8864600Y18647400D03*
Y18487400D03*
X8610600Y20120600D03*
Y19960600D03*
X8864600Y20120600D03*
Y19960600D03*
X8966200Y21256000D03*
X8788400D03*
X8966200Y21416000D03*
X8788400D03*
X8813800Y22145000D03*
X8991600D03*
X8813800Y22305000D03*
X8991600D03*
X9804400Y20570200D03*
Y20730200D03*
X9652000Y22686000D03*
Y22526000D03*
X9829800D03*
Y22686000D03*
X10414000Y20087600D03*
Y20247600D03*
X10007600Y22526000D03*
Y22686000D03*
X10668000Y21568400D03*
Y21408400D03*
X10871200Y21568400D03*
Y21408400D03*
G54D28*
X12238300Y21650400D03*
Y22130400D03*
X12668300Y21650400D03*
Y22130400D03*
G54D38*
G01X7899400Y21259800D02*
X8302590D01*
X8310190Y21267400D01*
X8356600D01*
G01X8258800Y21103600D02*
Y20951200D01*
X8305800Y20904200D01*
X8530600D01*
G01X8280400Y21642800D02*
X8400800D01*
Y21742400D01*
X8438900D01*
Y21642800D01*
X8477000D01*
Y21742400D01*
X8515100D01*
Y21642800D01*
X8553200D01*
Y21742400D01*
X8591300D01*
Y21642800D01*
X8629400D01*
Y21742400D01*
X8667500D01*
Y21642800D01*
X8710990D01*
X8767390Y21699200D01*
X8813800D01*
G01X8356600Y21267400D02*
X8457700D01*
X8461500Y21263600D01*
X8534400D01*
G01X8813800Y21861800D02*
X8767390D01*
X8734390Y21894800D01*
X8631400D01*
Y21793200D01*
X8593300D01*
Y21894800D01*
X8555200D01*
Y21793200D01*
X8517100D01*
Y21894800D01*
X8479000D01*
Y21793200D01*
X8440900D01*
Y21894800D01*
X8402800D01*
X8400800Y21892800D01*
X8280400D01*
G01X8864600Y18647400D02*
Y19031000D01*
G01X8534400Y21103600D02*
X8886200D01*
X8966200Y21183600D01*
Y21256000D01*
G01X8932000Y20904200D02*
X8690600D01*
G01X8813800Y21699200D02*
X8923000D01*
X8991200Y21767400D01*
X9304400D01*
G01X8788400Y21416000D02*
X8966200D01*
G01X9304400Y21567400D02*
X9047200D01*
X8966200Y21486400D01*
Y21416000D01*
G01X8534400Y21263600D02*
Y21488400D01*
X8585200Y21539200D01*
X8890000D01*
X9068200Y21717400D01*
X9304400D01*
G01X8813800Y22145000D02*
Y22047200D01*
X8839200Y22021800D01*
X8991590D01*
X9095990Y21917400D01*
X9304400D01*
G01X8813800Y21861800D02*
X8923000D01*
X8967400Y21817400D01*
X9304400D01*
G01X9423400Y19278600D02*
X9779000D01*
X9851400Y19351000D01*
Y19456400D01*
G01X9546600Y19964400D02*
X9300270D01*
X9245600Y19909730D01*
Y19329400D01*
X9118600Y19202400D01*
Y19031000D01*
G01X9372600D02*
X9937800D01*
X10011400Y19104600D01*
Y19456400D01*
G01X9118600Y19577000D02*
Y20269200D01*
X9102000Y20285800D01*
Y20904200D01*
G01X9453200Y21318600D02*
Y20290200D01*
X9499600Y20243800D01*
X9907200D01*
G01X9102000Y20904200D02*
Y21442000D01*
X9127400Y21467400D01*
X9304400D01*
G01X9453200Y22021800D02*
Y21642580D01*
X9428020Y21617400D01*
X9304400D01*
G01Y21967400D02*
X9179000D01*
X9144000Y22002400D01*
Y22119600D01*
X9118600Y22145000D01*
X8991600D01*
G01X9453200Y22166200D02*
Y22021800D01*
G01X9753600Y22017400D02*
X9457600D01*
X9453200Y22021800D01*
G01X9706600Y19964400D02*
Y20138400D01*
G01X9907200Y20243800D02*
Y20055100D01*
X9911600Y20050700D01*
Y19947800D01*
G01X9804400Y20730200D02*
Y20828000D01*
X9803200Y20829200D01*
Y21318600D01*
G01X9550400Y21107400D02*
Y21163280D01*
X9553200Y21166080D01*
Y21318600D01*
G01X9706600Y20875000D02*
Y21216050D01*
X9703200Y21219450D01*
Y21318600D01*
G01X9853200D02*
Y21007800D01*
X9906000Y20955000D01*
X10058400D01*
G01X9652000Y22526000D02*
Y22266550D01*
X9653200Y22265350D01*
Y22166200D01*
G01X10052850Y22017400D02*
X9753600D01*
G01D02*
Y21869400D01*
G01X9829800Y22526000D02*
Y22402800D01*
X9953200Y22279400D01*
Y22166200D01*
G01X10007600Y19777800D02*
Y19533100D01*
X10011400Y19529300D01*
Y19456400D01*
G01X10414000Y20087600D02*
Y19989800D01*
X10372000Y19947800D01*
X10312400D01*
G01D02*
X10103600D01*
G01X10261600Y20040600D02*
X10312400Y19989800D01*
Y19947800D01*
G01X10057200Y20243800D02*
X10337300D01*
X10341100Y20247600D01*
X10414000D01*
G01X10003200Y21318600D02*
Y21967750D01*
X10052850Y22017400D01*
G01D02*
X10152000D01*
G01X10727600Y20955000D02*
X10892800D01*
G01X10871200Y21408400D02*
Y21273100D01*
X10854600Y21256500D01*
Y21183600D01*
G01X10871200Y21568400D02*
X10944100D01*
X10972150Y21540350D01*
Y21539850D01*
X10998200Y21513800D01*
X11070600D01*
G01X10422400Y22783800D02*
Y22512800D01*
G01X11230600Y21513800D02*
Y21261500D01*
X11235600Y21256500D01*
Y21183600D01*
G01X11052800Y20955000D02*
Y21097900D01*
X11065600Y21110700D01*
Y21183600D01*
G01D02*
Y21352600D01*
G01X11506200Y21691600D02*
X11230600D01*
G01X11234400Y22072600D02*
X11480800D01*
G01X10976600Y21869400D02*
X12297900D01*
X12301900Y21865400D01*
X12369800D01*
G01X11234400Y22275800D02*
X11480800D01*
G01X11234400Y23088600D02*
X11404600D01*
G01X12473400Y23299400D02*
X11234400D01*
G01X11811000Y21183600D02*
X11586200D01*
G01X11506200Y21539200D02*
Y21691600D01*
G01D02*
X11684000D01*
X11836400Y21539200D01*
X12013380D01*
X12204990Y21730810D01*
X12291210D01*
X12331620Y21690400D01*
X12427900D01*
X12453300Y21715800D01*
Y21825330D01*
X12493370Y21865400D01*
X12536800D01*
G01X11811000Y21767800D02*
X11887200D01*
X11934800Y21815400D01*
X12369800D01*
G01X11684000Y22529800D02*
X12242800D01*
X12344400Y22631400D01*
Y22707600D01*
G01X11709400Y22918400D02*
Y23037800D01*
X11811000Y23139400D01*
G01X11607800Y22918400D02*
Y23063200D01*
X11684000Y23139400D01*
G01X11506200Y22918400D02*
Y23088600D01*
X11557000Y23139400D01*
G01X11404600Y22918400D02*
Y23088600D01*
G01X11811000Y22918400D02*
Y23012400D01*
X11938000Y23139400D01*
G01X12369800Y21765400D02*
X12366290Y21768910D01*
X12066110D01*
X11963400Y21666200D01*
G01X12369800Y21915400D02*
X12069800D01*
X11988800Y21996400D01*
G01X12473400Y23487400D02*
X12306400D01*
X12298800Y23495000D01*
X12250400D01*
G01X12536800Y21965400D02*
X12899600D01*
X12905200Y21971000D01*
X12975600D01*
G01X12877800Y21765400D02*
X12536800D01*
G01X12369800Y22015400D02*
X12536800D01*
G01X12877800Y22250400D02*
Y22174200D01*
X12719000Y22015400D01*
X12536800D01*
G01X12369800Y21865400D02*
X12439480D01*
X12489480Y21915400D01*
X12536800D01*
G01X12710200Y23039200D02*
X12823110D01*
X12824510Y23037800D01*
X13106400D01*
X13157200Y23088600D01*
Y23418800D01*
X13088600Y23487400D01*
X12979400D01*
G01X12344400Y22707600D02*
Y22885400D01*
X12498200Y23039200D01*
X12710200D01*
G01X12344400Y22707600D02*
X13208000D01*
X13258800Y22656800D01*
Y21844000D01*
X13182600Y21767800D01*
X13083700D01*
G01X13233400Y22885400D02*
X13055600D01*
X12979400Y22809200D01*
X12710200D01*
G01X12723400Y23299400D02*
X12928600D01*
G01X12979400Y23487400D02*
X12723400D01*
G01X12877800Y21564600D02*
Y21765400D01*
G01X12976700Y21767800D02*
X12891040D01*
X12888640Y21765400D01*
X12877800D01*
G01X12928600Y23299400D02*
X13030200D01*
G01X12987000Y23393400D02*
Y23479800D01*
X12979400Y23487400D01*
G54D29*
X12080200Y22809200D03*
G54D39*
G01X9673600Y22910800D02*
X9296400D01*
M02*
