G04 ================== begin FILE IDENTIFICATION RECORD ==================*
G04 Layout Name:  D:/studicaxpansion/sxpn.brd*
G04 Film Name:    ASSYTP*
G04 File Format:  Gerber RS274X*
G04 File Origin:  Cadence Allegro 24.1-S002*
G04 Origin Date:  Thu Mar 20 16:23:53 2025*
G04 *
G04 Layer:  REF DES/ASSEMBLY_TOP*
G04 Layer:  PACKAGE GEOMETRY/ASSEMBLY_TOP*
G04 Layer:  BOARD GEOMETRY/CUTOUT*
G04 Layer:  BOARD GEOMETRY/DESIGN_OUTLINE*
G04 *
G04 Offset:    (0.0000 0.0000)*
G04 Mirror:    No*
G04 Mode:      Positive*
G04 Rotation:  0*
G04 FullContactRelief:  No*
G04 UndefLineWidth:     0.1524*
G04 ================== end FILE IDENTIFICATION RECORD ====================*
%FSLAX25Y25*MOMM*%
%IR0*IPPOS*OFA0.00000B0.00000*MIA0B0*SFA1.00000B1.00000*%
%ADD10C,.1*%
%ADD11C,.1524*%
G75*
%LPD*%
G75*
G54D10*
G01X5855000Y32759500D02*
Y37890500D01*
G01X6706000Y32759500D02*
X5855000D01*
G01Y37890500D02*
X6706000D01*
G01D02*
Y32759500D01*
G01X7202000Y24758000D02*
Y23838000D01*
G01D02*
X8484000D01*
G01Y24758000D02*
X7202000D01*
G01X8484000Y23838000D02*
Y24758000D01*
G01X8684000D02*
Y23838000D01*
G01D02*
X9966000D01*
G01Y24758000D02*
X8684000D01*
G01X9700000Y38470000D02*
X10982000D01*
G01X9700000Y39390000D02*
Y38470000D01*
G01X10982000Y39390000D02*
X9700000D01*
G01X9966000Y23838000D02*
Y24758000D01*
G01X10166000D02*
Y23838000D01*
G01D02*
X11448000D01*
G01Y24758000D02*
X10166000D01*
G01X10982000Y38470000D02*
Y39390000D01*
G01X11182000Y38470000D02*
X12464000D01*
G01X11182000Y39390000D02*
Y38470000D01*
G01X12464000Y39390000D02*
X11182000D01*
G01X11448000Y23838000D02*
Y24758000D01*
G01X11648000D02*
Y23838000D01*
G01D02*
X12930000D01*
G01Y24758000D02*
X11648000D01*
G01X12930000Y23838000D02*
Y24758000D01*
G01X12464000Y38470000D02*
Y39390000D01*
G01X12664000Y38470000D02*
X13946000D01*
G01X12664000Y39390000D02*
Y38470000D01*
G01X13946000Y39390000D02*
X12664000D01*
G01X14146000Y24758000D02*
Y23838000D01*
G01D02*
X15428000D01*
G01Y24758000D02*
X14146000D01*
G01X13946000Y38470000D02*
Y39390000D01*
G01X14146000Y38470000D02*
X15428000D01*
G01X14146000Y39390000D02*
Y38470000D01*
G01X15428000Y39390000D02*
X14146000D01*
G01X15428000Y23838000D02*
Y24758000D01*
G01X15628000Y25132000D02*
X16548000D01*
G01X15628000Y26414000D02*
Y25132000D01*
G01X16548000Y26414000D02*
X15628000D01*
G01Y26614000D02*
X16548000D01*
G01X15628000Y27896000D02*
Y26614000D01*
G01X16548000Y27896000D02*
X15628000D01*
G01Y28096000D02*
X16548000D01*
G01X15628000Y29378000D02*
Y28096000D01*
G01X16548000Y29378000D02*
X15628000D01*
G01Y29578000D02*
X16548000D01*
G01X15628000Y30860000D02*
Y29578000D01*
G01X16548000Y30860000D02*
X15628000D01*
G01Y31060000D02*
X16548000D01*
G01X15628000Y32342000D02*
Y31060000D01*
G01X16548000Y32342000D02*
X15628000D01*
G01Y32542000D02*
X16548000D01*
G01X15628000Y33824000D02*
Y32542000D01*
G01X16548000Y33824000D02*
X15628000D01*
G01Y34024000D02*
X16548000D01*
G01X15628000Y35306000D02*
Y34024000D01*
G01X16548000Y35306000D02*
X15628000D01*
G01Y35506000D02*
X16548000D01*
G01X15628000Y36788000D02*
Y35506000D01*
G01X16548000Y36788000D02*
X15628000D01*
G01Y36988000D02*
X16548000D01*
G01X15628000Y38270000D02*
Y36988000D01*
G01X15428000Y38470000D02*
Y39390000D01*
G01X16548000Y38270000D02*
X15628000D01*
G01X16548000Y25132000D02*
Y26414000D01*
G01Y26614000D02*
Y27896000D01*
G01Y28096000D02*
Y29378000D01*
G01Y29578000D02*
Y30860000D01*
G01Y31060000D02*
Y32342000D01*
G01Y32542000D02*
Y33824000D01*
G01Y34024000D02*
Y35306000D01*
G01Y35506000D02*
Y36788000D01*
G01Y36988000D02*
Y38270000D01*
G54D11*
G01X6096000Y39116000D02*
Y24130000D01*
X6350000Y23876000D01*
X16256000D01*
X16510000Y24130000D01*
Y39116000D01*
X16256000Y39370000D01*
X6350000D01*
X6096000Y39116000D01*
G01X7375740Y24907750D02*
X7380610Y24899870D01*
X7386450Y24894620D01*
X7393260Y24892000D01*
X7401050Y24894620D01*
X7406890Y24899870D01*
X7412740Y24907750D01*
X7414680Y24918250D01*
Y24970740D01*
G01X7455450Y24924810D02*
X7462270Y24934000D01*
X7468110Y24939240D01*
X7475900Y24941870D01*
X7482710Y24939240D01*
X7487580Y24934000D01*
X7491480Y24926120D01*
X7492450Y24916930D01*
X7491480Y24909060D01*
X7487580Y24901180D01*
X7481740Y24894620D01*
X7474920Y24892000D01*
X7467130Y24894620D01*
X7460320Y24902500D01*
X7456420Y24914310D01*
X7455450Y24927430D01*
X7457400Y24944490D01*
X7460320Y24953680D01*
X7465190Y24962870D01*
X7472000Y24969430D01*
X7478820Y24970740D01*
X7485630Y24968120D01*
X7490500Y24961550D01*
G01X8645740Y24907750D02*
X8650610Y24899870D01*
X8656450Y24894620D01*
X8663260Y24892000D01*
X8671050Y24894620D01*
X8676890Y24899870D01*
X8682740Y24907750D01*
X8684680Y24918250D01*
Y24970740D01*
G01X8742000Y24892000D02*
X8743950Y24909060D01*
X8746870Y24923490D01*
X8750770Y24936620D01*
X8755630Y24951050D01*
X8763420Y24970740D01*
X8724480D01*
G01X10169740Y24907750D02*
X10174610Y24899870D01*
X10180450Y24894620D01*
X10187260Y24892000D01*
X10195050Y24894620D01*
X10200890Y24899870D01*
X10206740Y24907750D01*
X10208680Y24918250D01*
Y24970740D01*
G01X10267950Y24892000D02*
X10274770Y24893310D01*
X10282550Y24897250D01*
X10287420Y24903810D01*
X10289370Y24913000D01*
X10287420Y24922180D01*
X10281580Y24930060D01*
X10272820Y24934000D01*
X10263080D01*
X10257240Y24936620D01*
X10252370Y24943180D01*
X10250420Y24952370D01*
X10253350Y24961550D01*
X10260160Y24968120D01*
X10267950Y24970740D01*
X10275740Y24968120D01*
X10282550Y24961550D01*
X10285480Y24952370D01*
X10283530Y24943180D01*
X10278660Y24936620D01*
X10272820Y24934000D01*
X10263080D01*
X10254320Y24930060D01*
X10248480Y24922180D01*
X10246530Y24913000D01*
X10248480Y24903810D01*
X10253350Y24897250D01*
X10261130Y24893310D01*
X10267950Y24892000D01*
G01X10658260Y38084250D02*
X10653390Y38092130D01*
X10647550Y38097380D01*
X10640740Y38100000D01*
X10632950Y38097380D01*
X10627110Y38092130D01*
X10621260Y38084250D01*
X10619320Y38073750D01*
Y38021260D01*
G01X10578550Y38034380D02*
X10572710Y38026510D01*
X10565890Y38022570D01*
X10558100Y38021260D01*
X10548370Y38023880D01*
X10541550Y38030450D01*
X10539600Y38038320D01*
X10540580Y38046200D01*
X10544470Y38052760D01*
X10563940Y38065880D01*
X10572710Y38075070D01*
X10578550Y38088190D01*
X10580500Y38100000D01*
X10539600D01*
G01X11693740Y24907750D02*
X11698610Y24899870D01*
X11704450Y24894620D01*
X11711260Y24892000D01*
X11719050Y24894620D01*
X11724890Y24899870D01*
X11730740Y24907750D01*
X11732680Y24918250D01*
Y24970740D01*
G01X11775400Y24901180D02*
X11782210Y24894620D01*
X11790000Y24892000D01*
X11797790Y24894620D01*
X11804610Y24902500D01*
X11809480Y24914310D01*
X11811420Y24926120D01*
Y24940560D01*
X11809480Y24952370D01*
X11804610Y24962870D01*
X11798770Y24968120D01*
X11791950Y24970740D01*
X11784160Y24968120D01*
X11778320Y24962870D01*
X11774420Y24954990D01*
X11772480Y24944490D01*
X11774420Y24935310D01*
X11779290Y24926120D01*
X11785130Y24920870D01*
X11791950Y24919560D01*
X11799740Y24922180D01*
X11805580Y24928740D01*
X11811420Y24940560D01*
G01X12182260Y38084250D02*
X12177390Y38092130D01*
X12171550Y38097380D01*
X12164740Y38100000D01*
X12156950Y38097380D01*
X12151110Y38092130D01*
X12145260Y38084250D01*
X12143320Y38073750D01*
Y38021260D01*
G01X12105470Y38084250D02*
X12099630Y38093440D01*
X12091840Y38098690D01*
X12083080Y38100000D01*
X12075290Y38098690D01*
X12067500Y38092130D01*
X12062630Y38084250D01*
X12061660Y38076380D01*
X12063600Y38067190D01*
X12070420Y38060630D01*
X12077230Y38058000D01*
X12086000D01*
G01X12077230D02*
X12071390Y38054070D01*
X12066520Y38047510D01*
X12064580Y38039630D01*
X12066520Y38031760D01*
X12071390Y38025200D01*
X12080160Y38021260D01*
X12088920Y38022570D01*
X12097680Y38027820D01*
G01X13706260Y38084250D02*
X13701390Y38092130D01*
X13695550Y38097380D01*
X13688740Y38100000D01*
X13680950Y38097380D01*
X13675110Y38092130D01*
X13669260Y38084250D01*
X13667320Y38073750D01*
Y38021260D01*
G01X13596370Y38100000D02*
Y38021260D01*
X13632390Y38077690D01*
X13583710D01*
G01X14233740Y24907750D02*
X14238610Y24899870D01*
X14244450Y24894620D01*
X14251260Y24892000D01*
X14259050Y24894620D01*
X14264890Y24899870D01*
X14270740Y24907750D01*
X14272680Y24918250D01*
Y24970740D01*
G01X14331950Y24892000D02*
Y24970740D01*
X14320270Y24954990D01*
G01Y24892000D02*
X14343630D01*
G01X14410690Y24970740D02*
X14402900Y24968120D01*
X14397060Y24961550D01*
X14393160Y24953680D01*
X14390240Y24943180D01*
X14389270Y24931370D01*
X14390240Y24919560D01*
X14393160Y24909060D01*
X14397060Y24901180D01*
X14402900Y24894620D01*
X14410690Y24892000D01*
X14418480Y24894620D01*
X14424320Y24901180D01*
X14428220Y24909060D01*
X14431140Y24919560D01*
X14432110Y24931370D01*
X14431140Y24943180D01*
X14428220Y24953680D01*
X14424320Y24961550D01*
X14418480Y24968120D01*
X14410690Y24970740D01*
G01X15230260Y38084250D02*
X15225390Y38092130D01*
X15219550Y38097380D01*
X15212740Y38100000D01*
X15204950Y38097380D01*
X15199110Y38092130D01*
X15193260Y38084250D01*
X15191320Y38073750D01*
Y38021260D01*
G01X15153470Y38088190D02*
X15147630Y38094750D01*
X15140810Y38098690D01*
X15132050Y38100000D01*
X15123290Y38097380D01*
X15116470Y38092130D01*
X15111600Y38082940D01*
X15110630Y38072440D01*
X15112580Y38061940D01*
X15117450Y38055380D01*
X15124260Y38050130D01*
X15131080Y38048820D01*
X15137890Y38050130D01*
X15146650Y38055380D01*
X15143730Y38021260D01*
X15117450D01*
G01X15478250Y25155740D02*
X15486130Y25160610D01*
X15491380Y25166450D01*
X15494000Y25173260D01*
X15491380Y25181050D01*
X15486130Y25186890D01*
X15478250Y25192740D01*
X15467750Y25194680D01*
X15415260D01*
G01X15494000Y25253950D02*
X15415260D01*
X15431010Y25242270D01*
G01X15494000D02*
Y25265630D01*
G01X15428380Y25314190D02*
X15420510Y25320030D01*
X15416570Y25326850D01*
X15415260Y25334640D01*
X15417880Y25344370D01*
X15424450Y25351190D01*
X15432320Y25353140D01*
X15440200Y25352160D01*
X15446760Y25348270D01*
X15459880Y25328800D01*
X15469070Y25320030D01*
X15482190Y25314190D01*
X15494000Y25312240D01*
Y25353140D01*
G01X15478250Y26679740D02*
X15486130Y26684610D01*
X15491380Y26690450D01*
X15494000Y26697260D01*
X15491380Y26705050D01*
X15486130Y26710890D01*
X15478250Y26716740D01*
X15467750Y26718680D01*
X15415260D01*
G01X15494000Y26777950D02*
X15415260D01*
X15431010Y26766270D01*
G01X15494000D02*
Y26789630D01*
G01X15478250Y26835270D02*
X15487440Y26841110D01*
X15492690Y26848900D01*
X15494000Y26857660D01*
X15492690Y26865450D01*
X15486130Y26873240D01*
X15478250Y26878110D01*
X15470380Y26879080D01*
X15461190Y26877140D01*
X15454630Y26870320D01*
X15452000Y26863510D01*
Y26854740D01*
G01Y26863510D02*
X15448070Y26869350D01*
X15441510Y26874220D01*
X15433630Y26876160D01*
X15425760Y26874220D01*
X15419200Y26869350D01*
X15415260Y26860580D01*
X15416570Y26851820D01*
X15421820Y26843060D01*
G01X15478250Y28203740D02*
X15486130Y28208610D01*
X15491380Y28214450D01*
X15494000Y28221260D01*
X15491380Y28229050D01*
X15486130Y28234890D01*
X15478250Y28240740D01*
X15467750Y28242680D01*
X15415260D01*
G01X15494000Y28301950D02*
X15415260D01*
X15431010Y28290270D01*
G01X15494000D02*
Y28313630D01*
G01Y28392370D02*
X15415260D01*
X15471690Y28356350D01*
Y28405030D01*
G01X15478250Y29727740D02*
X15486130Y29732610D01*
X15491380Y29738450D01*
X15494000Y29745260D01*
X15491380Y29753050D01*
X15486130Y29758890D01*
X15478250Y29764740D01*
X15467750Y29766680D01*
X15415260D01*
G01X15494000Y29825950D02*
X15415260D01*
X15431010Y29814270D01*
G01X15494000D02*
Y29837630D01*
G01X15482190Y29883270D02*
X15488750Y29889110D01*
X15492690Y29895930D01*
X15494000Y29904690D01*
X15491380Y29913450D01*
X15486130Y29920270D01*
X15476940Y29925140D01*
X15466440Y29926110D01*
X15455940Y29924160D01*
X15449380Y29919290D01*
X15444130Y29912480D01*
X15442820Y29905660D01*
X15444130Y29898850D01*
X15449380Y29890090D01*
X15415260Y29893010D01*
Y29919290D01*
G01X15478250Y30997740D02*
X15486130Y31002610D01*
X15491380Y31008450D01*
X15494000Y31015260D01*
X15491380Y31023050D01*
X15486130Y31028890D01*
X15478250Y31034740D01*
X15467750Y31036680D01*
X15415260D01*
G01X15494000Y31095950D02*
X15415260D01*
X15431010Y31084270D01*
G01X15494000D02*
Y31107630D01*
G01X15461190Y31156190D02*
X15452000Y31163010D01*
X15446760Y31168850D01*
X15444130Y31176640D01*
X15446760Y31183450D01*
X15452000Y31188320D01*
X15459880Y31192220D01*
X15469070Y31193190D01*
X15476940Y31192220D01*
X15484820Y31188320D01*
X15491380Y31182480D01*
X15494000Y31175660D01*
X15491380Y31167870D01*
X15483500Y31161060D01*
X15471690Y31157160D01*
X15458570Y31156190D01*
X15441510Y31158140D01*
X15432320Y31161060D01*
X15423130Y31165930D01*
X15416570Y31172740D01*
X15415260Y31179560D01*
X15417880Y31186370D01*
X15424450Y31191240D01*
G01X15478250Y32521740D02*
X15486130Y32526610D01*
X15491380Y32532450D01*
X15494000Y32539260D01*
X15491380Y32547050D01*
X15486130Y32552890D01*
X15478250Y32558740D01*
X15467750Y32560680D01*
X15415260D01*
G01X15494000Y32619950D02*
X15415260D01*
X15431010Y32608270D01*
G01X15494000D02*
Y32631630D01*
G01Y32696740D02*
X15476940Y32698690D01*
X15462510Y32701610D01*
X15449380Y32705510D01*
X15434950Y32710370D01*
X15415260Y32718160D01*
Y32679220D01*
G01X15478250Y34045740D02*
X15486130Y34050610D01*
X15491380Y34056450D01*
X15494000Y34063260D01*
X15491380Y34071050D01*
X15486130Y34076890D01*
X15478250Y34082740D01*
X15467750Y34084680D01*
X15415260D01*
G01X15494000Y34143950D02*
X15415260D01*
X15431010Y34132270D01*
G01X15494000D02*
Y34155630D01*
G01Y34222690D02*
X15492690Y34229510D01*
X15488750Y34237290D01*
X15482190Y34242160D01*
X15473000Y34244110D01*
X15463820Y34242160D01*
X15455940Y34236320D01*
X15452000Y34227560D01*
Y34217820D01*
X15449380Y34211980D01*
X15442820Y34207110D01*
X15433630Y34205160D01*
X15424450Y34208090D01*
X15417880Y34214900D01*
X15415260Y34222690D01*
X15417880Y34230480D01*
X15424450Y34237290D01*
X15433630Y34240220D01*
X15442820Y34238270D01*
X15449380Y34233400D01*
X15452000Y34227560D01*
Y34217820D01*
X15455940Y34209060D01*
X15463820Y34203220D01*
X15473000Y34201270D01*
X15482190Y34203220D01*
X15488750Y34208090D01*
X15492690Y34215870D01*
X15494000Y34222690D01*
G01X15478250Y35569740D02*
X15486130Y35574610D01*
X15491380Y35580450D01*
X15494000Y35587260D01*
X15491380Y35595050D01*
X15486130Y35600890D01*
X15478250Y35606740D01*
X15467750Y35608680D01*
X15415260D01*
G01X15494000Y35667950D02*
X15415260D01*
X15431010Y35656270D01*
G01X15494000D02*
Y35679630D01*
G01X15484820Y35730140D02*
X15491380Y35736950D01*
X15494000Y35744740D01*
X15491380Y35752530D01*
X15483500Y35759350D01*
X15471690Y35764220D01*
X15459880Y35766160D01*
X15445440D01*
X15433630Y35764220D01*
X15423130Y35759350D01*
X15417880Y35753510D01*
X15415260Y35746690D01*
X15417880Y35738900D01*
X15423130Y35733060D01*
X15431010Y35729160D01*
X15441510Y35727220D01*
X15450690Y35729160D01*
X15459880Y35734030D01*
X15465130Y35739870D01*
X15466440Y35746690D01*
X15463820Y35754480D01*
X15457260Y35760320D01*
X15445440Y35766160D01*
G01X15478250Y37093740D02*
X15486130Y37098610D01*
X15491380Y37104450D01*
X15494000Y37111260D01*
X15491380Y37119050D01*
X15486130Y37124890D01*
X15478250Y37130740D01*
X15467750Y37132680D01*
X15415260D01*
G01X15428380Y37173450D02*
X15420510Y37179290D01*
X15416570Y37186110D01*
X15415260Y37193900D01*
X15417880Y37203630D01*
X15424450Y37210450D01*
X15432320Y37212400D01*
X15440200Y37211420D01*
X15446760Y37207530D01*
X15459880Y37188060D01*
X15469070Y37179290D01*
X15482190Y37173450D01*
X15494000Y37171500D01*
Y37212400D01*
G01X15415260Y37270690D02*
X15417880Y37262900D01*
X15424450Y37257060D01*
X15432320Y37253160D01*
X15442820Y37250240D01*
X15454630Y37249270D01*
X15466440Y37250240D01*
X15476940Y37253160D01*
X15484820Y37257060D01*
X15491380Y37262900D01*
X15494000Y37270690D01*
X15491380Y37278480D01*
X15484820Y37284320D01*
X15476940Y37288220D01*
X15466440Y37291140D01*
X15454630Y37292110D01*
X15442820Y37291140D01*
X15432320Y37288220D01*
X15424450Y37284320D01*
X15417880Y37278480D01*
X15415260Y37270690D01*
M02*
