G04 ================== begin FILE IDENTIFICATION RECORD ==================*
G04 Layout Name:  D:/studicaxpansion/sxpn.brd*
G04 Film Name:    BOTTOM*
G04 File Format:  Gerber RS274X*
G04 File Origin:  Cadence Allegro 24.1-S002*
G04 Origin Date:  Thu Mar 20 16:23:53 2025*
G04 *
G04 Layer:  VIA CLASS/BOTTOM*
G04 Layer:  PIN/BOTTOM*
G04 Layer:  ETCH/BOTTOM*
G04 *
G04 Offset:    (0.0000 0.0000)*
G04 Mirror:    No*
G04 Mode:      Positive*
G04 Rotation:  0*
G04 FullContactRelief:  No*
G04 UndefLineWidth:     0.1524*
G04 ================== end FILE IDENTIFICATION RECORD ====================*
%FSLAX25Y25*MOMM*%
%IR0*IPPOS*OFA0.00000B0.00000*MIA0B0*SFA1.00000B1.00000*%
%ADD10C,1.3*%
%ADD11C,1.95*%
%ADD12R,1.95X1.95*%
%ADD13C,.127*%
%ADD14C,.254*%
%ADD15C,2.2044*%
G75*
%LPD*%
G75*
G36*
G01X6350000Y39344600D02*
X16256000D01*
X16484600Y39116000D01*
Y24130000D01*
X16256000Y23901400D01*
X6350000D01*
X6121400Y24130000D01*
Y39116000D01*
X6350000Y39344600D01*
G37*
%LPC*%
G75*
G36*
G01X6717130Y34453970D02*
G02X6735100Y34461420I17978J-17967D01*
G01X6750680D01*
X6751710Y34465160D01*
G02X6858000Y34546220I106290J-29156D01*
G02Y34325780I0J-110220D01*
G02X6754270Y34398730I0J110224D01*
G03X6737530Y34402480I-9560J-3436D01*
G01X6683270Y34348230D01*
G02X6665300Y34340780I-17978J17967D01*
G01X6321850D01*
G02X6248400Y34288480I-73450J25427D01*
G02Y34443920I0J77720D01*
G02X6321850Y34391620I0J-77727D01*
G01X6654770D01*
X6717130Y34453970D01*
G37*
G36*
G01X14295780Y24540500D02*
Y24735500D01*
G02X14308500Y24748220I12720J0D01*
G01X14503500D01*
G02X14516220Y24735500I0J-12720D01*
G01Y24540500D01*
G02X14503500Y24527780I-12720J0D01*
G01X14308500D01*
G02X14295780Y24540500I0J12720D01*
G37*
G36*
G01X15637780Y25294500D02*
Y25489500D01*
G02X15650500Y25502220I12720J0D01*
G01X15845500D01*
G02X15858220Y25489500I0J-12720D01*
G01Y25294500D01*
G02X15845500Y25281780I-12720J0D01*
G01X15650500D01*
G02X15637780Y25294500I0J12720D01*
G37*
G36*
G01Y28258500D02*
Y28453500D01*
G02X15650500Y28466220I12720J0D01*
G01X15845500D01*
G02X15858220Y28453500I0J-12720D01*
G01Y28258500D01*
G02X15845500Y28245780I-12720J0D01*
G01X15650500D01*
G02X15637780Y28258500I0J12720D01*
G37*
G36*
G01Y31222500D02*
Y31417500D01*
G02X15650500Y31430220I12720J0D01*
G01X15845500D01*
G02X15858220Y31417500I0J-12720D01*
G01Y31222500D01*
G02X15845500Y31209780I-12720J0D01*
G01X15650500D01*
G02X15637780Y31222500I0J12720D01*
G37*
G36*
G01Y34186500D02*
Y34381500D01*
G02X15650500Y34394220I12720J0D01*
G01X15845500D01*
G02X15858220Y34381500I0J-12720D01*
G01Y34186500D01*
G02X15845500Y34173780I-12720J0D01*
G01X15650500D01*
G02X15637780Y34186500I0J12720D01*
G37*
G36*
G01Y37150500D02*
Y37345500D01*
G02X15650500Y37358220I12720J0D01*
G01X15845500D01*
G02X15858220Y37345500I0J-12720D01*
G01Y37150500D01*
G02X15845500Y37137780I-12720J0D01*
G01X15650500D01*
G02X15637780Y37150500I0J12720D01*
G37*
G36*
G01X7255780Y37640500D02*
Y37835500D01*
G02X7268500Y37848220I12720J0D01*
G01X7463500D01*
G02X7476220Y37835500I0J-12720D01*
G01Y37640500D01*
G02X7463500Y37627780I-12720J0D01*
G01X7268500D01*
G02X7255780Y37640500I0J12720D01*
G37*
G36*
G01X15057780Y38492500D02*
Y38687500D01*
G02X15070500Y38700220I12720J0D01*
G01X15265500D01*
G02X15278220Y38687500I0J-12720D01*
G01Y38492500D01*
G02X15265500Y38479780I-12720J0D01*
G01X15070500D01*
G02X15057780Y38492500I0J12720D01*
G37*
G36*
G01X13575780D02*
Y38687500D01*
G02X13588500Y38700220I12720J0D01*
G01X13783500D01*
G02X13796220Y38687500I0J-12720D01*
G01Y38492500D01*
G02X13783500Y38479780I-12720J0D01*
G01X13588500D01*
G02X13575780Y38492500I0J12720D01*
G37*
G36*
G01X12093780D02*
Y38687500D01*
G02X12106500Y38700220I12720J0D01*
G01X12301500D01*
G02X12314220Y38687500I0J-12720D01*
G01Y38492500D01*
G02X12301500Y38479780I-12720J0D01*
G01X12106500D01*
G02X12093780Y38492500I0J12720D01*
G37*
G36*
G01X10611780D02*
Y38687500D01*
G02X10624500Y38700220I12720J0D01*
G01X10819500D01*
G02X10832220Y38687500I0J-12720D01*
G01Y38492500D01*
G02X10819500Y38479780I-12720J0D01*
G01X10624500D01*
G02X10611780Y38492500I0J12720D01*
G37*
G36*
G01X15637780Y35668500D02*
Y35863500D01*
G02X15650500Y35876220I12720J0D01*
G01X15845500D01*
G02X15858220Y35863500I0J-12720D01*
G01Y35668500D01*
G02X15845500Y35655780I-12720J0D01*
G01X15650500D01*
G02X15637780Y35668500I0J12720D01*
G37*
G36*
G01Y32704500D02*
Y32899500D01*
G02X15650500Y32912220I12720J0D01*
G01X15845500D01*
G02X15858220Y32899500I0J-12720D01*
G01Y32704500D01*
G02X15845500Y32691780I-12720J0D01*
G01X15650500D01*
G02X15637780Y32704500I0J12720D01*
G37*
G36*
G01Y29740500D02*
Y29935500D01*
G02X15650500Y29948220I12720J0D01*
G01X15845500D01*
G02X15858220Y29935500I0J-12720D01*
G01Y29740500D01*
G02X15845500Y29727780I-12720J0D01*
G01X15650500D01*
G02X15637780Y29740500I0J12720D01*
G37*
G36*
G01Y26776500D02*
Y26971500D01*
G02X15650500Y26984220I12720J0D01*
G01X15845500D01*
G02X15858220Y26971500I0J-12720D01*
G01Y26776500D01*
G02X15845500Y26763780I-12720J0D01*
G01X15650500D01*
G02X15637780Y26776500I0J12720D01*
G37*
G36*
G01X11797780Y24540500D02*
Y24735500D01*
G02X11810500Y24748220I12720J0D01*
G01X12005500D01*
G02X12018220Y24735500I0J-12720D01*
G01Y24540500D01*
G02X12005500Y24527780I-12720J0D01*
G01X11810500D01*
G02X11797780Y24540500I0J12720D01*
G37*
G36*
G01X10315780D02*
Y24735500D01*
G02X10328500Y24748220I12720J0D01*
G01X10523500D01*
G02X10536220Y24735500I0J-12720D01*
G01Y24540500D01*
G02X10523500Y24527780I-12720J0D01*
G01X10328500D01*
G02X10315780Y24540500I0J12720D01*
G37*
G36*
G01X8833780D02*
Y24735500D01*
G02X8846500Y24748220I12720J0D01*
G01X9041500D01*
G02X9054220Y24735500I0J-12720D01*
G01Y24540500D01*
G02X9041500Y24527780I-12720J0D01*
G01X8846500D01*
G02X8833780Y24540500I0J12720D01*
G37*
G36*
G01X7351780D02*
Y24735500D01*
G02X7364500Y24748220I12720J0D01*
G01X7559500D01*
G02X7572220Y24735500I0J-12720D01*
G01Y24540500D01*
G02X7559500Y24527780I-12720J0D01*
G01X7364500D01*
G02X7351780Y24540500I0J12720D01*
G37*
G36*
G01X9683730Y24892000D02*
Y24994360D01*
X9680130Y24995460D01*
G02X9625080Y25069800I22670J74340D01*
G02X9780520I77720J0D01*
G02X9725470Y24995460I-77720J0D01*
G01X9721870Y24994360D01*
Y24899460D01*
X9722540Y24898290D01*
G02X9725070Y24888800I-16533J-9490D01*
G01Y24746640D01*
X9729090Y24745780D01*
G02X9816220Y24638000I-23097J-107780D01*
G02X9595780I-110220J0D01*
G02X9682910Y24745780I110227J0D01*
G01X9686930Y24746640D01*
Y24881340D01*
X9686260Y24882510D01*
G02X9683730Y24892000I16533J9490D01*
G37*
G36*
G01X6242000Y34207420D02*
X6750680D01*
X6751710Y34211160D01*
G02X6858000Y34292220I106290J-29156D01*
G02Y34071780I0J-110220D01*
G02X6751710Y34152840I0J110216D01*
G01X6750680Y34156580D01*
X6252530D01*
X6197620Y34101670D01*
Y32446330D01*
X6233530Y32410420D01*
X6654800D01*
G02X6672770Y32402970I-8J-25417D01*
G01X6723570Y32352170D01*
G02X6731020Y32334200I-17967J-17978D01*
G01Y31623000D01*
G02X6723570Y31605030I-25417J8D01*
G01X6657310Y31538760D01*
G03X6664490Y31521420I7187J-7180D01*
G01X6669670D01*
X6756380Y31608130D01*
Y32349070D01*
X6669670Y32435780D01*
X6273800D01*
G02X6255830Y32443230I8J25417D01*
G01X6230430Y32468630D01*
G02X6222980Y32486600I17967J17978D01*
G01Y33578800D01*
G02X6230430Y33596770I25417J-8D01*
G01X6273780Y33640130D01*
Y33759350D01*
G02X6221480Y33832800I25427J73450D01*
G02X6299200Y33910520I77720J0D01*
G02X6366590Y33871520I0J-77723D01*
G03X6384210I8810J5057D01*
G02X6451600Y33910520I67390J-38723D01*
G02X6514700Y33878170I0J-77715D01*
G03X6531200I8250J5933D01*
G02X6594300Y33910520I63100J-45365D01*
G02X6661270Y33872240I0J-77721D01*
G03X6680180Y33877400I8751J5162D01*
G01Y33958070D01*
G03X6665320Y33967080I-10160J2D01*
G02X6629400Y33958280I-35920J68909D01*
G02Y34113720I0J77720D01*
G02X6706300Y34047270I0J-77722D01*
G01X6706540Y34045610D01*
X6723570Y34028570D01*
G02X6731020Y34010600I-17967J-17978D01*
G01Y33502600D01*
G02X6723570Y33484630I-25417J8D01*
G01X6641990Y33403040D01*
X6635930Y33396980D01*
X6629420Y33390470D01*
Y32751130D01*
X6690730Y32689820D01*
X6832600D01*
G02X6850570Y32682370I-8J-25417D01*
G01X7053770Y32479170D01*
G02X7061220Y32461200I-17967J-17978D01*
G01Y30693730D01*
X7129530Y30625420D01*
X15640680D01*
X15641710Y30629160D01*
G02X15748000Y30710220I106290J-29156D01*
G02Y30489780I0J-110220D01*
G02X15641710Y30570840I0J110216D01*
G01X15640680Y30574580D01*
X7119000D01*
G02X7101030Y30582030I8J25417D01*
G01X7017830Y30665230D01*
G02X7010380Y30683200I17967J17978D01*
G01Y32450670D01*
X6822070Y32638980D01*
X6680200D01*
G02X6662230Y32646430I8J25417D01*
G01X6586030Y32722630D01*
G02X6578580Y32740600I17967J17978D01*
G01Y33401000D01*
G02X6586030Y33418970I25417J-8D01*
G01X6667610Y33500560D01*
X6673670Y33506620D01*
X6680180Y33513130D01*
Y33788200D01*
G03X6661270Y33793360I-10159J-2D01*
G02X6619720Y33759350I-66974J39436D01*
G01Y33619900D01*
G02X6612270Y33601930I-25417J8D01*
G01X6451620Y33441270D01*
Y32649530D01*
X6487530Y32613620D01*
X6781800D01*
G02X6799770Y32606170I-8J-25417D01*
G01X6952170Y32453770D01*
G02X6959620Y32435800I-17967J-17978D01*
G01Y31496000D01*
G02X6952170Y31478030I-25417J8D01*
G01X6825170Y31351030D01*
G02X6807200Y31343580I-17978J17967D01*
G01X6639930D01*
X6604020Y31307670D01*
Y26426530D01*
X6639930Y26390620D01*
X15178670D01*
X15239980Y26451930D01*
Y29057600D01*
G02X15247430Y29075570I25417J-8D01*
G01X15307830Y29135970D01*
G02X15325800Y29143420I17978J-17967D01*
G01X15640680D01*
X15641710Y29147160D01*
G02X15748000Y29228220I106290J-29156D01*
G02Y29007780I0J-110220D01*
G02X15641710Y29088840I0J110216D01*
G01X15640680Y29092580D01*
X15336330D01*
X15290820Y29047070D01*
Y26441400D01*
G02X15283370Y26423430I-25417J8D01*
G01X15207170Y26347230D01*
G02X15189200Y26339780I-17978J17967D01*
G01X6629400D01*
G02X6611430Y26347230I8J25417D01*
G01X6560630Y26398030D01*
G02X6553180Y26416000I17967J17978D01*
G01Y31318200D01*
G02X6560630Y31336170I25417J-8D01*
G01X6601490Y31377040D01*
G03X6594310Y31394380I-7187J7180D01*
G01X6563730D01*
X6527820Y31358470D01*
Y26350330D01*
X6563730Y26314420D01*
X15280270D01*
X15316180Y26350330D01*
Y27584400D01*
G02X15323630Y27602370I25417J-8D01*
G01X15375230Y27653970D01*
G02X15393200Y27661420I17978J-17967D01*
G01X15640680D01*
X15641710Y27665160D01*
G02X15748000Y27746220I106290J-29156D01*
G02Y27525780I0J-110220D01*
G02X15641710Y27606840I0J110216D01*
G01X15640680Y27610580D01*
X15403730D01*
X15367020Y27573870D01*
Y26339800D01*
G02X15359570Y26321830I-25417J8D01*
G01X15308770Y26271030D01*
G02X15290800Y26263580I-17978J17967D01*
G01X6553200D01*
G02X6535230Y26271030I8J25417D01*
G01X6484430Y26321830D01*
G02X6476980Y26339800I17967J17978D01*
G01Y31369000D01*
G02X6484430Y31386970I25417J-8D01*
G01X6535230Y31437770D01*
G02X6553200Y31445220I17978J-17967D01*
G01X6720470D01*
X6832580Y31557330D01*
Y32374470D01*
X6720470Y32486580D01*
X6715290D01*
G03X6708110Y32469240I7J-10160D01*
G01X6799770Y32377570D01*
G02X6807220Y32359600I-17967J-17978D01*
G01Y31597600D01*
G02X6799770Y31579630I-25417J8D01*
G01X6698170Y31478030D01*
G02X6680200Y31470580I-17978J17967D01*
G01X6487530D01*
X6451620Y31434670D01*
Y26274130D01*
X6487530Y26238220D01*
X15240000D01*
G02X15257970Y26230770I-8J-25417D01*
G01X15309330Y26179420D01*
X15640680D01*
X15641710Y26183160D01*
G02X15748000Y26264220I106290J-29156D01*
G02Y26043780I0J-110220D01*
G02X15641710Y26124840I0J110216D01*
G01X15640680Y26128580D01*
X15298800D01*
G02X15280830Y26136030I8J25417D01*
G01X15229470Y26187380D01*
X6477000D01*
G02X6459030Y26194830I8J25417D01*
G01X6408230Y26245630D01*
G02X6400780Y26263600I17967J17978D01*
G01Y31445200D01*
G02X6408230Y31463170I25417J-8D01*
G01X6449090Y31504040D01*
G03X6441910Y31521380I-7187J7180D01*
G01X6411330D01*
X6375420Y31485470D01*
Y26197930D01*
X6411330Y26162020D01*
X15036800D01*
G02X15054770Y26154570I-8J-25417D01*
G01X15185970Y26023370D01*
G02X15193420Y26005400I-17967J-17978D01*
G01Y24745320D01*
X15197160Y24744290D01*
G02X15278220Y24638000I-29156J-106290D01*
G02X15057780I-110220J0D01*
G02X15138840Y24744290I110216J0D01*
G01X15142580Y24745320D01*
Y25994870D01*
X15026270Y26111180D01*
X6400800D01*
G02X6382830Y26118630I8J25417D01*
G01X6332030Y26169430D01*
G02X6324580Y26187400I17967J17978D01*
G01Y31496000D01*
G02X6332030Y31513970I25417J-8D01*
G01X6382830Y31564770D01*
G02X6400800Y31572220I17978J-17967D01*
G01X6618870D01*
X6680180Y31633530D01*
Y32149200D01*
G03X6662390Y32155900I-10158J-4D01*
G02X6626670Y32132860I-58383J51304D01*
G01X6623070Y32131760D01*
Y31800800D01*
G02X6617480Y31787320I-19067J8D01*
G01X6541280Y31711120D01*
G02X6527800Y31705530I-13488J13477D01*
G01X6281700D01*
X6242070Y31665900D01*
Y24976100D01*
X6281700Y24936470D01*
X8178800D01*
G02X8192280Y24930880I-8J-19067D01*
G01X8237480Y24885680D01*
G02X8243070Y24872200I-13477J-13488D01*
G01Y24746640D01*
X8247090Y24745780D01*
G02X8334220Y24638000I-23097J-107780D01*
G02X8113780I-110220J0D01*
G02X8200910Y24745780I110227J0D01*
G01X8204930Y24746640D01*
Y24864300D01*
X8170900Y24898330D01*
X6273800D01*
G02X6260320Y24903920I8J19067D01*
G01X6209520Y24954720D01*
G02X6203930Y24968200I13477J13488D01*
G01Y31673800D01*
G02X6209520Y31687280I19067J-8D01*
G01X6260320Y31738080D01*
G02X6273800Y31743670I13488J-13477D01*
G01X6519900D01*
X6584930Y31808700D01*
Y32131760D01*
X6581330Y32132860D01*
G02X6536610Y32168480I22668J74341D01*
G03X6518990I-8810J-5057D01*
G02X6474270Y32132860I-67388J38721D01*
G01X6470670Y32131760D01*
Y32028640D01*
X6474270Y32027540D01*
G02X6529320Y31953200I-22670J-74340D01*
G02X6451600Y31875480I-77720J0D01*
G02X6384210Y31914480I0J77723D01*
G03X6366590I-8810J-5057D01*
G02X6299200Y31875480I-67390J38723D01*
G02X6221480Y31953200I0J77720D01*
G02X6276530Y32027540I77720J0D01*
G01X6280130Y32028640D01*
Y32131760D01*
X6276530Y32132860D01*
G02X6221480Y32207200I22670J74340D01*
G02X6299200Y32284920I77720J0D01*
G02X6366590Y32245920I0J-77723D01*
G03X6384210I8810J5057D01*
G02X6518990I67390J-38723D01*
G03X6536610I8810J5057D01*
G02X6604000Y32284920I67390J-38723D01*
G02X6662390Y32258500I0J-77733D01*
G03X6680180Y32265200I7632J6704D01*
G01Y32323670D01*
X6644270Y32359580D01*
X6223000D01*
G02X6205030Y32367030I8J25417D01*
G01X6154230Y32417830D01*
G02X6146780Y32435800I17967J17978D01*
G01Y34112200D01*
G02X6154230Y34130170I25417J-8D01*
G01X6224030Y34199970D01*
G02X6242000Y34207420I17978J-17967D01*
G37*
G36*
G01X6400780Y34864130D02*
Y34870550D01*
G02X6348480Y34944000I25427J73450D01*
G02X6503920I77720J0D01*
G02X6451620Y34870550I-77727J0D01*
G01Y34853600D01*
G02X6444170Y34835630I-25417J8D01*
G01X6426220Y34817670D01*
Y34642850D01*
G02X6478520Y34569400I-25427J-73450D01*
G02X6323080I-77720J0D01*
G02X6375380Y34642850I77727J0D01*
G01Y34828200D01*
G02X6382830Y34846170I25417J-8D01*
G01X6400780Y34864130D01*
G37*
G36*
G01X6655830Y35215970D02*
G02X6673800Y35223420I17978J-17967D01*
G01X6750680D01*
X6751710Y35227160D01*
G02X6858000Y35308220I106290J-29156D01*
G02Y35087780I0J-110220D01*
G02X6751710Y35168840I0J110216D01*
G01X6750680Y35172580D01*
X6684330D01*
X6654820Y35143070D01*
Y34566650D01*
G02X6707120Y34493200I-25427J-73450D01*
G02X6551680I-77720J0D01*
G02X6603980Y34566650I77727J0D01*
G01Y35153600D01*
G02X6611430Y35171570I25417J-8D01*
G01X6655830Y35215970D01*
G37*
G36*
G01X6306630Y38041770D02*
X6382830Y38117970D01*
G02X6400800Y38125420I17978J-17967D01*
G01X6908800D01*
G02X6926770Y38117970I-8J-25417D01*
G01X7046330Y37998420D01*
X7114750D01*
G02X7188200Y38050720I73450J-25427D01*
G02Y37895280I0J-77720D01*
G02X7114750Y37947580I0J77727D01*
G01X7035800D01*
G02X7017830Y37955030I8J25417D01*
G01X6898270Y38074580D01*
X6411330D01*
X6350020Y38013270D01*
Y38008100D01*
G03X6367360Y38000910I10160J-3D01*
G01X6397030Y38030570D01*
G02X6415000Y38038020I17978J-17967D01*
G01X6793000D01*
G02X6810970Y38030570I-8J-25417D01*
G01X6823980Y38017570D01*
X6827150Y38018940D01*
G02X6858000Y38025320I30839J-71342D01*
G02X6780280Y37947600I0J-77720D01*
G02X6786660Y37978450I77722J11D01*
G01X6788030Y37981620D01*
X6782470Y37987180D01*
X6723480D01*
G03X6715540Y37970680I2J-10161D01*
G02X6732520Y37922200I-60738J-48487D01*
G02X6680220Y37848750I-77727J0D01*
G01Y37642800D01*
G02X6672770Y37624830I-25417J8D01*
G01X6654820Y37606870D01*
Y36801850D01*
G02X6707120Y36728400I-25427J-73450D01*
G02X6551680I-77720J0D01*
G02X6603980Y36801850I77727J0D01*
G01Y37617400D01*
G02X6611430Y37635370I25417J-8D01*
G01X6629380Y37653330D01*
Y37848750D01*
G02X6577080Y37922200I25427J73450D01*
G02X6594060Y37970680I77718J-7D01*
G03X6586120Y37987180I-7942J6339D01*
G01X6545680D01*
G03X6537740Y37970680I2J-10161D01*
G02X6554720Y37922200I-60738J-48487D01*
G02X6502420Y37848750I-77727J0D01*
G01Y36561130D01*
X6570130Y36493420D01*
X6750680D01*
X6751710Y36497160D01*
G02X6858000Y36578220I106290J-29156D01*
G02Y36357780I0J-110220D01*
G02X6751710Y36438840I0J110216D01*
G01X6750680Y36442580D01*
X6559600D01*
G02X6541630Y36450030I8J25417D01*
G01X6459030Y36532630D01*
G02X6451580Y36550600I17967J17978D01*
G01Y37848750D01*
G02X6418610Y37870900I25419J73449D01*
G03X6400820Y37864200I-7632J-6704D01*
G01Y36053130D01*
X6468530Y35985420D01*
X6750680D01*
X6751710Y35989160D01*
G02X6858000Y36070220I106290J-29156D01*
G02Y35849780I0J-110220D01*
G02X6751710Y35930840I0J110216D01*
G01X6750680Y35934580D01*
X6458000D01*
G02X6440030Y35942030I8J25417D01*
G01X6367360Y36014690D01*
G03X6350020Y36007500I-7180J-7187D01*
G01Y35799130D01*
X6417730Y35731420D01*
X6750680D01*
X6751710Y35735160D01*
G02X6858000Y35816220I106290J-29156D01*
G02Y35595780I0J-110220D01*
G02X6751710Y35676840I0J110216D01*
G01X6750680Y35680580D01*
X6407200D01*
G02X6389230Y35688030I8J25417D01*
G01X6306630Y35770630D01*
G02X6299180Y35788600I17967J17978D01*
G01Y38023800D01*
G02X6306630Y38041770I25417J-8D01*
G37*
G36*
G01X6205030Y38092570D02*
X6306630Y38194170D01*
G02X6324600Y38201620I17978J-17967D01*
G01X7543800D01*
G02X7561770Y38194170I-8J-25417D01*
G01X7637970Y38117970D01*
G02X7645420Y38100000I-17967J-17978D01*
G01Y37932730D01*
X7681330Y37896820D01*
X7775150D01*
G02X7848600Y37949120I73450J-25427D01*
G02Y37793680I0J-77720D01*
G02X7775150Y37845980I0J77727D01*
G01X7670800D01*
G02X7652830Y37853430I8J25417D01*
G01X7602030Y37904230D01*
G02X7594580Y37922200I17967J17978D01*
G01Y38089470D01*
X7533270Y38150780D01*
X6335130D01*
X6248420Y38064070D01*
Y35570530D01*
X6341530Y35477420D01*
X6750680D01*
X6751710Y35481160D01*
G02X6858000Y35562220I106290J-29156D01*
G02Y35341780I0J-110220D01*
G02X6751710Y35422840I0J110216D01*
G01X6750680Y35426580D01*
X6331000D01*
G02X6313030Y35434030I8J25417D01*
G01X6205030Y35542030D01*
G02X6197580Y35560000I17967J17978D01*
G01Y38074600D01*
G02X6205030Y38092570I25417J-8D01*
G37*
G54D15*
X7112000Y37738000D03*
X14787000Y24638000D03*
X15748000Y25773000D03*
Y28737000D03*
Y32082000D03*
Y31701000D03*
Y35046000D03*
Y34665000D03*
Y38010000D03*
Y37629000D03*
X6858000Y33420000D03*
Y33166000D03*
Y32912000D03*
X7366000Y33420000D03*
X7112000D03*
X7366000Y33166000D03*
X7112000D03*
X7366000Y32912000D03*
X7112000D03*
X7366000Y34182000D03*
X7112000D03*
X7366000Y33928000D03*
X7112000D03*
X7366000Y33674000D03*
X7112000D03*
X6858000Y34944000D03*
Y34690000D03*
X7366000Y34944000D03*
X7112000D03*
X7366000Y34690000D03*
X7112000D03*
X7366000Y34436000D03*
X7112000D03*
X7366000Y35706000D03*
X7112000D03*
X7366000Y35452000D03*
X7112000D03*
X7366000Y35198000D03*
X7112000D03*
X6858000Y36214000D03*
X7366000Y36468000D03*
X7112000D03*
X7366000Y36214000D03*
X7112000D03*
X7366000Y35960000D03*
X7112000D03*
X6858000Y37230000D03*
Y36976000D03*
Y36722000D03*
X7366000Y37230000D03*
X7112000D03*
X7366000Y36976000D03*
X7112000D03*
X7366000Y36722000D03*
X7112000D03*
X6858000Y37484000D03*
X7366000D03*
X7112000D03*
X10341000Y38590000D03*
X9960000D03*
X11823000D03*
X11442000D03*
X13305000D03*
X12924000D03*
X14787000D03*
X14406000D03*
X15748000Y36147000D03*
Y36528000D03*
Y33183000D03*
Y33564000D03*
Y30219000D03*
Y27255000D03*
X7843000Y24638000D03*
X9325000D03*
X10807000D03*
X11188000D03*
X12289000D03*
X12670000D03*
X6858000Y33928000D03*
Y33674000D03*
Y37738000D03*
%LPD*%
G75*
G36*
G01X6477020Y33759350D02*
G03X6514700Y33787430I-25429J73443D01*
G02X6531200I8250J-5933D01*
G03X6568880Y33759350I63109J45363D01*
G01Y33630430D01*
X6408230Y33469770D01*
G03X6400780Y33451800I17967J-17978D01*
G01Y32639000D01*
G03X6408230Y32621030I25417J8D01*
G01X6459030Y32570230D01*
G03X6477000Y32562780I17978J17967D01*
G01X6771270D01*
X6908780Y32425270D01*
Y31506530D01*
X6796670Y31394420D01*
X6766100D01*
G02X6758910Y31411760I-3J10160D01*
G01X6875970Y31528830D01*
G03X6883420Y31546800I-17967J17978D01*
G01Y32385000D01*
G03X6875970Y32402970I-25417J-8D01*
G01X6748970Y32529970D01*
G03X6731000Y32537420I-17978J-17967D01*
G01X6385930D01*
X6350020Y32573330D01*
Y33492070D01*
X6469570Y33611630D01*
G03X6477020Y33629600I-17967J17978D01*
G01Y33759350D01*
G37*
G36*
G01X6318270Y32131760D02*
X6321870Y32132860D01*
G03X6366590Y32168480I-22668J74341D01*
G02X6384210I8810J-5057D01*
G03X6428930Y32132860I67388J38721D01*
G01X6432530Y32131760D01*
Y32028640D01*
X6428930Y32027540D01*
G03X6384210Y31991920I22668J-74341D01*
G02X6366590I-8810J5057D01*
G03X6321870Y32027540I-67388J-38721D01*
G01X6318270Y32028640D01*
Y32131760D01*
G37*
G36*
G01X6324620Y33759350D02*
G03X6366590Y33794080I-25422J73447D01*
G02X6384210I8810J-5057D01*
G03X6426180Y33759350I67392J38717D01*
G01Y33640130D01*
X6306630Y33520570D01*
G03X6299180Y33502600I17967J-17978D01*
G01Y32562800D01*
G03X6306630Y32544830I25417J8D01*
G01X6347490Y32503960D01*
G02X6340300Y32486620I-7187J-7180D01*
G01X6284330D01*
X6273820Y32497130D01*
Y33568270D01*
X6317170Y33611630D01*
G03X6324620Y33629600I-17967J17978D01*
G01Y33759350D01*
G37*
G54D10*
X6451600Y31953200D03*
X6299200D03*
X6604000Y32207200D03*
X6451600D03*
X6299200D03*
Y33832800D03*
X6451600D03*
X6594300D03*
X6629400Y34036000D03*
X6248400Y34366200D03*
X6426200Y34944000D03*
X6400800Y34569400D03*
X6629400Y34493200D03*
Y36728400D03*
X6858000Y37947600D03*
X6654800Y37922200D03*
X6477000D03*
X7188200Y37973000D03*
X7848600Y37871400D03*
X9702800Y25069800D03*
G54D11*
X6858000Y32912000D03*
Y33166000D03*
Y33420000D03*
Y33674000D03*
Y33928000D03*
Y34182000D03*
Y34436000D03*
Y34690000D03*
Y34944000D03*
Y35198000D03*
Y35452000D03*
Y35706000D03*
Y35960000D03*
Y36214000D03*
Y36468000D03*
Y36722000D03*
Y36976000D03*
Y37230000D03*
Y37484000D03*
Y37738000D03*
X7112000Y32912000D03*
X7366000D03*
X7112000Y33166000D03*
X7366000D03*
X7112000Y33420000D03*
X7366000D03*
X7112000Y33674000D03*
X7366000D03*
X7112000Y33928000D03*
X7366000D03*
X7112000Y34182000D03*
X7366000D03*
X7112000Y34436000D03*
X7366000D03*
X7112000Y34690000D03*
X7366000D03*
X7112000Y34944000D03*
X7366000D03*
X7112000Y35198000D03*
X7366000D03*
X7112000Y35452000D03*
X7366000D03*
X7112000Y35706000D03*
X7366000D03*
X7112000Y35960000D03*
X7366000D03*
X7112000Y36214000D03*
X7366000D03*
X7112000Y36468000D03*
X7366000D03*
X7112000Y36722000D03*
X7366000D03*
X7112000Y36976000D03*
X7366000D03*
X7112000Y37230000D03*
X7366000D03*
X7112000Y37484000D03*
X7366000D03*
X7112000Y37738000D03*
X8224000Y24638000D03*
X7843000D03*
X9706000D03*
X9325000D03*
X9960000Y38590000D03*
X10341000D03*
X11188000Y24638000D03*
X10807000D03*
X11442000Y38590000D03*
X12289000Y24638000D03*
X11823000Y38590000D03*
X12670000Y24638000D03*
X12924000Y38590000D03*
X13305000D03*
X14406000D03*
X15168000Y24638000D03*
X14787000D03*
Y38590000D03*
X15748000Y25773000D03*
Y26154000D03*
Y27255000D03*
Y27636000D03*
Y28737000D03*
Y29118000D03*
Y30219000D03*
Y30600000D03*
Y32082000D03*
Y31701000D03*
Y33564000D03*
Y33183000D03*
Y35046000D03*
Y34665000D03*
Y36528000D03*
Y36147000D03*
Y38010000D03*
Y37629000D03*
G54D12*
X7462000Y24638000D03*
X7366000Y37738000D03*
X8944000Y24638000D03*
X10426000D03*
X10722000Y38590000D03*
X11908000Y24638000D03*
X12204000Y38590000D03*
X13686000D03*
X14406000Y24638000D03*
X15168000Y38590000D03*
X15748000Y25392000D03*
Y26874000D03*
Y28356000D03*
Y29838000D03*
Y31320000D03*
Y32802000D03*
Y34284000D03*
Y35766000D03*
Y37248000D03*
G54D13*
G01X8224000Y24638000D02*
Y24872200D01*
X8178800Y24917400D01*
X6273800D01*
X6223000Y24968200D01*
Y31673800D01*
X6273800Y31724600D01*
X6527800D01*
X6604000Y31800800D01*
Y32207200D01*
G01X6451600D02*
Y31953200D01*
G01X6299200D02*
Y32207200D01*
G01X7462000Y24522700D02*
Y24638000D01*
G01D02*
Y24753300D01*
G01X7346700Y24638000D02*
X7462000D01*
G01D02*
X7577300D01*
G01X7366000Y33304700D02*
Y33420000D01*
G01D02*
Y33535300D01*
G01X7250700Y33420000D02*
X7366000D01*
G01D02*
X7481300D01*
G01X7366000Y33050700D02*
Y33166000D01*
G01D02*
Y33281300D01*
G01X7250700Y33166000D02*
X7366000D01*
G01D02*
X7481300D01*
G01X7366000Y32796700D02*
Y32912000D01*
G01D02*
Y33027300D01*
G01X7250700Y32912000D02*
X7366000D01*
G01D02*
X7481300D01*
G01X7366000Y34066700D02*
Y34182000D01*
G01D02*
Y34297300D01*
G01X7250700Y34182000D02*
X7366000D01*
G01D02*
X7481300D01*
G01X7366000Y33558700D02*
Y33674000D01*
G01D02*
Y33789300D01*
G01X7250700Y33674000D02*
X7366000D01*
G01D02*
X7481300D01*
G01X7366000Y34828700D02*
Y34944000D01*
G01D02*
Y35059300D01*
G01X7250700Y34944000D02*
X7366000D01*
G01D02*
X7481300D01*
G01X7366000Y34574700D02*
Y34690000D01*
G01D02*
Y34805300D01*
G01X7250700Y34690000D02*
X7366000D01*
G01D02*
X7481300D01*
G01X7366000Y34320700D02*
Y34436000D01*
G01D02*
Y34551300D01*
G01X7250700Y34436000D02*
X7366000D01*
G01D02*
X7481300D01*
G01X7366000Y35590700D02*
Y35706000D01*
G01D02*
Y35821300D01*
G01X7250700Y35706000D02*
X7366000D01*
G01D02*
X7481300D01*
G01X7366000Y35336700D02*
Y35452000D01*
G01D02*
Y35567300D01*
G01X7250700Y35452000D02*
X7366000D01*
G01D02*
X7481300D01*
G01X7366000Y35082700D02*
Y35198000D01*
G01D02*
Y35313300D01*
G01X7250700Y35198000D02*
X7366000D01*
G01D02*
X7481300D01*
G01X7366000Y36352700D02*
Y36468000D01*
G01D02*
Y36583300D01*
G01X7250700Y36468000D02*
X7366000D01*
G01D02*
X7481300D01*
G01X7366000Y36098700D02*
Y36214000D01*
G01D02*
Y36329300D01*
G01X7250700Y36214000D02*
X7366000D01*
G01D02*
X7481300D01*
G01X7366000Y35844700D02*
Y35960000D01*
G01D02*
Y36075300D01*
G01X7250700Y35960000D02*
X7366000D01*
G01D02*
X7481300D01*
G01X7366000Y37114700D02*
Y37230000D01*
G01D02*
Y37345300D01*
G01X7250700Y37230000D02*
X7366000D01*
G01D02*
X7481300D01*
G01X7366000Y36860700D02*
Y36976000D01*
G01D02*
Y37091300D01*
G01X7250700Y36976000D02*
X7366000D01*
G01D02*
X7481300D01*
G01X7366000Y37622700D02*
Y37738000D01*
G01D02*
Y37853300D01*
G01X7250700Y37738000D02*
X7366000D01*
G01D02*
X7481300D01*
G01X7366000Y37368700D02*
Y37484000D01*
G01D02*
Y37599300D01*
G01X7250700Y37484000D02*
X7366000D01*
G01D02*
X7481300D01*
G01X8944000Y24522700D02*
Y24638000D01*
G01D02*
Y24753300D01*
G01X8828700Y24638000D02*
X8944000D01*
G01D02*
X9059300D01*
G01X9702800Y25069800D02*
Y24892000D01*
X9706000Y24888800D01*
Y24638000D01*
G01X10426000Y24522700D02*
Y24638000D01*
G01D02*
Y24753300D01*
G01X10310700Y24638000D02*
X10426000D01*
G01D02*
X10541300D01*
G01X10606700Y38590000D02*
X10722000D01*
G01Y38474700D02*
Y38590000D01*
G01D02*
Y38705300D01*
G01Y38590000D02*
X10837300D01*
G01X11908000Y24522700D02*
Y24638000D01*
G01D02*
Y24753300D01*
G01X11792700Y24638000D02*
X11908000D01*
G01D02*
X12023300D01*
G01X12088700Y38590000D02*
X12204000D01*
G01Y38474700D02*
Y38590000D01*
G01D02*
Y38705300D01*
G01Y38590000D02*
X12319300D01*
G01X13686000Y38474700D02*
Y38590000D01*
G01D02*
Y38705300D01*
G01X13570700Y38590000D02*
X13686000D01*
G01D02*
X13801300D01*
G01X14406000Y24522700D02*
Y24638000D01*
G01D02*
Y24753300D01*
G01X14290700Y24638000D02*
X14406000D01*
G01D02*
X14521300D01*
G01X15168000Y38474700D02*
Y38590000D01*
G01D02*
Y38705300D01*
G01X15052700Y38590000D02*
X15168000D01*
G01D02*
X15283300D01*
G01X15748000Y25276700D02*
Y25392000D01*
G01D02*
Y25507300D01*
G01X15632700Y25392000D02*
X15748000D01*
G01D02*
X15863300D01*
G01X15748000Y26758700D02*
Y26874000D01*
G01D02*
Y26989300D01*
G01X15632700Y26874000D02*
X15748000D01*
G01D02*
X15863300D01*
G01X15748000Y28240700D02*
Y28356000D01*
G01D02*
Y28471300D01*
G01X15632700Y28356000D02*
X15748000D01*
G01D02*
X15863300D01*
G01X15748000Y29722700D02*
Y29838000D01*
G01D02*
Y29953300D01*
G01X15632700Y29838000D02*
X15748000D01*
G01D02*
X15863300D01*
G01X15748000Y31204700D02*
Y31320000D01*
G01D02*
Y31435300D01*
G01X15632700Y31320000D02*
X15748000D01*
G01D02*
X15863300D01*
G01X15748000Y32686700D02*
Y32802000D01*
G01D02*
Y32917300D01*
G01X15632700Y32802000D02*
X15748000D01*
G01D02*
X15863300D01*
G01X15748000Y34168700D02*
Y34284000D01*
G01D02*
Y34399300D01*
G01X15632700Y34284000D02*
X15748000D01*
G01D02*
X15863300D01*
G01X15748000Y35650700D02*
Y35766000D01*
G01D02*
Y35881300D01*
G01X15632700Y35766000D02*
X15748000D01*
G01D02*
X15863300D01*
G01X15748000Y37132700D02*
Y37248000D01*
G01D02*
Y37363300D01*
G01X15632700Y37248000D02*
X15748000D01*
G01D02*
X15863300D01*
G54D14*
G01X6858000Y34182000D02*
X6242000D01*
X6172200Y34112200D01*
Y32435800D01*
X6223000Y32385000D01*
X6654800D01*
X6705600Y32334200D01*
Y31623000D01*
X6629400Y31546800D01*
X6400800D01*
X6350000Y31496000D01*
Y26187400D01*
X6400800Y26136600D01*
X15036800D01*
X15168000Y26005400D01*
Y24638000D01*
G01X6299200Y33832800D02*
Y33629600D01*
X6248400Y33578800D01*
Y32486600D01*
X6273800Y32461200D01*
X6680200D01*
X6781800Y32359600D01*
Y31597600D01*
X6680200Y31496000D01*
X6477000D01*
X6426200Y31445200D01*
Y26263600D01*
X6477000Y26212800D01*
X15240000D01*
X15298800Y26154000D01*
X15748000D01*
G01X6451600Y33832800D02*
Y33629600D01*
X6324600Y33502600D01*
Y32562800D01*
X6375400Y32512000D01*
X6731000D01*
X6858000Y32385000D01*
Y31546800D01*
X6731000Y31419800D01*
X6553200D01*
X6502400Y31369000D01*
Y26339800D01*
X6553200Y26289000D01*
X15290800D01*
X15341600Y26339800D01*
Y27584400D01*
X15393200Y27636000D01*
X15748000D01*
G01X6594300Y33832800D02*
Y33619900D01*
X6426200Y33451800D01*
Y32639000D01*
X6477000Y32588200D01*
X6781800D01*
X6934200Y32435800D01*
Y31496000D01*
X6807200Y31369000D01*
X6629400D01*
X6578600Y31318200D01*
Y26416000D01*
X6629400Y26365200D01*
X15189200D01*
X15265400Y26441400D01*
Y29057600D01*
X15325800Y29118000D01*
X15748000D01*
G01X6629400Y34036000D02*
X6680200D01*
X6705600Y34010600D01*
Y33502600D01*
X6604000Y33401000D01*
Y32740600D01*
X6680200Y32664400D01*
X6832600D01*
X7035800Y32461200D01*
Y30683200D01*
X7119000Y30600000D01*
X15748000D01*
G01X6248400Y34366200D02*
X6665300D01*
X6735100Y34436000D01*
X6858000D01*
G01X6400800Y34569400D02*
Y34828200D01*
X6426200Y34853600D01*
Y34944000D01*
G01X6629400Y34493200D02*
Y35153600D01*
X6673800Y35198000D01*
X6858000D01*
G01X7848600Y37871400D02*
X7670800D01*
X7620000Y37922200D01*
Y38100000D01*
X7543800Y38176200D01*
X6324600D01*
X6223000Y38074600D01*
Y35560000D01*
X6331000Y35452000D01*
X6858000D01*
G01Y35706000D02*
X6407200D01*
X6324600Y35788600D01*
Y38023800D01*
X6400800Y38100000D01*
X6908800D01*
X7035800Y37973000D01*
X7188200D01*
G01X6858000Y35960000D02*
X6458000D01*
X6375400Y36042600D01*
Y37973000D01*
X6415000Y38012600D01*
X6793000D01*
X6858000Y37947600D01*
G01Y36468000D02*
X6559600D01*
X6477000Y36550600D01*
Y37922200D01*
G01X6654800D02*
Y37642800D01*
X6629400Y37617400D01*
Y36728400D01*
G01X14139000Y38608000D02*
Y38802400D01*
M02*
