G04 ================== begin FILE IDENTIFICATION RECORD ==================*
G04 Layout Name:  D:/studicaxpansion/sxpn.brd*
G04 Film Name:    SMBT*
G04 File Format:  Gerber RS274X*
G04 File Origin:  Cadence Allegro 24.1-S002*
G04 Origin Date:  Thu Mar 20 16:23:53 2025*
G04 *
G04 Layer:  PACKAGE GEOMETRY/SOLDERMASK_BOTTOM*
G04 Layer:  BOARD GEOMETRY/SOLDERMASK_BOTTOM*
G04 Layer:  VIA CLASS/SOLDERMASK_BOTTOM*
G04 Layer:  PIN/SOLDERMASK_BOTTOM*
G04 *
G04 Offset:    (0.0000 0.0000)*
G04 Mirror:    No*
G04 Mode:      Positive*
G04 Rotation:  0*
G04 FullContactRelief:  No*
G04 UndefLineWidth:     0.1524*
G04 ================== end FILE IDENTIFICATION RECORD ====================*
%FSLAX25Y25*MOMM*%
%IR0*IPPOS*OFA0.00000B0.00000*MIA0B0*SFA1.00000B1.00000*%
%ADD10C,1.3*%
%ADD11C,1.95*%
%ADD12R,1.95X1.95*%
%LPD*%
G75*
G54D10*
X6451600Y31953200D03*
X6299200D03*
X6604000Y32207200D03*
X6451600D03*
X6299200D03*
Y33832800D03*
X6451600D03*
X6594300D03*
X6629400Y34036000D03*
X6248400Y34366200D03*
X6426200Y34944000D03*
X6400800Y34569400D03*
X6629400Y34493200D03*
Y36728400D03*
X6858000Y37947600D03*
X6654800Y37922200D03*
X6477000D03*
X7188200Y37973000D03*
X7848600Y37871400D03*
X9702800Y25069800D03*
G54D11*
X6858000Y32912000D03*
Y33166000D03*
Y33420000D03*
Y33674000D03*
Y33928000D03*
Y34182000D03*
Y34436000D03*
Y34690000D03*
Y34944000D03*
Y35198000D03*
Y35452000D03*
Y35706000D03*
Y35960000D03*
Y36214000D03*
Y36468000D03*
Y36722000D03*
Y36976000D03*
Y37230000D03*
Y37484000D03*
Y37738000D03*
X7112000Y32912000D03*
X7366000D03*
X7112000Y33166000D03*
X7366000D03*
X7112000Y33420000D03*
X7366000D03*
X7112000Y33674000D03*
X7366000D03*
X7112000Y33928000D03*
X7366000D03*
X7112000Y34182000D03*
X7366000D03*
X7112000Y34436000D03*
X7366000D03*
X7112000Y34690000D03*
X7366000D03*
X7112000Y34944000D03*
X7366000D03*
X7112000Y35198000D03*
X7366000D03*
X7112000Y35452000D03*
X7366000D03*
X7112000Y35706000D03*
X7366000D03*
X7112000Y35960000D03*
X7366000D03*
X7112000Y36214000D03*
X7366000D03*
X7112000Y36468000D03*
X7366000D03*
X7112000Y36722000D03*
X7366000D03*
X7112000Y36976000D03*
X7366000D03*
X7112000Y37230000D03*
X7366000D03*
X7112000Y37484000D03*
X7366000D03*
X7112000Y37738000D03*
X8224000Y24638000D03*
X7843000D03*
X9706000D03*
X9325000D03*
X9960000Y38590000D03*
X10341000D03*
X11188000Y24638000D03*
X10807000D03*
X11442000Y38590000D03*
X12289000Y24638000D03*
X11823000Y38590000D03*
X12670000Y24638000D03*
X12924000Y38590000D03*
X13305000D03*
X14406000D03*
X15168000Y24638000D03*
X14787000D03*
Y38590000D03*
X15748000Y25773000D03*
Y26154000D03*
Y27255000D03*
Y27636000D03*
Y28737000D03*
Y29118000D03*
Y30219000D03*
Y30600000D03*
Y32082000D03*
Y31701000D03*
Y33564000D03*
Y33183000D03*
Y35046000D03*
Y34665000D03*
Y36528000D03*
Y36147000D03*
Y38010000D03*
Y37629000D03*
G54D12*
X7462000Y24638000D03*
X7366000Y37738000D03*
X8944000Y24638000D03*
X10426000D03*
X10722000Y38590000D03*
X11908000Y24638000D03*
X12204000Y38590000D03*
X13686000D03*
X14406000Y24638000D03*
X15168000Y38590000D03*
X15748000Y25392000D03*
Y26874000D03*
Y28356000D03*
Y29838000D03*
Y31320000D03*
Y32802000D03*
Y34284000D03*
Y35766000D03*
Y37248000D03*
M02*
