G04 ================== begin FILE IDENTIFICATION RECORD ==================*
G04 Layout Name:  D:/studicaxpansion/sxpn.brd*
G04 Film Name:    SSTP*
G04 File Format:  Gerber RS274X*
G04 File Origin:  Cadence Allegro 24.1-S002*
G04 Origin Date:  Thu Mar 20 16:23:53 2025*
G04 *
G04 Layer:  REF DES/SILKSCREEN_TOP*
G04 Layer:  PACKAGE GEOMETRY/SILKSCREEN_TOP*
G04 Layer:  BOARD GEOMETRY/SILKSCREEN_TOP*
G04 *
G04 Offset:    (0.0000 0.0000)*
G04 Mirror:    No*
G04 Mode:      Positive*
G04 Rotation:  0*
G04 FullContactRelief:  No*
G04 UndefLineWidth:     0.1524*
G04 ================== end FILE IDENTIFICATION RECORD ====================*
%FSLAX25Y25*MOMM*%
%IR0*IPPOS*OFA0.00000B0.00000*MIA0B0*SFA1.00000B1.00000*%
%ADD10C,.1*%
%ADD11C,.2*%
%ADD12C,.1524*%
G75*
%LPD*%
G75*
G54D10*
G01X7462000Y24818000D02*
G03Y24808000I0J-5000D01*
G01D02*
G03Y24818000I0J5000D01*
G01X10722000Y38410000D02*
G03Y38420000I0J5000D01*
G01D02*
G03Y38410000I0J-5000D01*
G01X11908000Y24818000D02*
G03Y24808000I0J-5000D01*
G01D02*
G03Y24818000I0J5000D01*
G01X12204000Y38410000D02*
G03Y38420000I0J5000D01*
G01D02*
G03Y38410000I0J-5000D01*
G01X13686000D02*
G03Y38420000I0J5000D01*
G01D02*
G03Y38410000I0J-5000D01*
G01X14406000Y24818000D02*
G03Y24808000I0J-5000D01*
G01D02*
G03Y24818000I0J5000D01*
G01X15168000Y38410000D02*
G03Y38420000I0J5000D01*
G01D02*
G03Y38410000I0J-5000D01*
G01X15568000Y25392000D02*
G03X15578000I5000J0D01*
G01D02*
G03X15568000I-5000J0D01*
G01Y28356000D02*
G03X15578000I5000J0D01*
G01D02*
G03X15568000I-5000J0D01*
G01Y29838000D02*
G03X15578000I5000J0D01*
G01D02*
G03X15568000I-5000J0D01*
G01Y31320000D02*
G03X15578000I5000J0D01*
G01D02*
G03X15568000I-5000J0D01*
G01Y32802000D02*
G03X15578000I5000J0D01*
G01D02*
G03X15568000I-5000J0D01*
G01Y34284000D02*
G03X15578000I5000J0D01*
G01D02*
G03X15568000I-5000J0D01*
G01Y35766000D02*
G03X15578000I5000J0D01*
G01D02*
G03X15568000I-5000J0D01*
G01Y37248000D02*
G03X15578000I5000J0D01*
G01D02*
G03X15568000I-5000J0D01*
G54D11*
G01X5855000Y32759500D02*
X6706000D01*
G01X5855000Y37890500D02*
Y32759500D01*
G01X7366000Y37890500D02*
X5855000D01*
G01X7202000Y24758000D02*
Y23838000D01*
G01D02*
X8484000D01*
G01Y24758000D02*
X7202000D01*
G01X8484000Y23838000D02*
Y24758000D01*
G01X8684000D02*
Y23838000D01*
G01D02*
X9966000D01*
G01Y24758000D02*
X8684000D01*
G01X9700000Y38470000D02*
X10982000D01*
G01X9700000Y39390000D02*
Y38470000D01*
G01X10982000Y39390000D02*
X9700000D01*
G01X9966000Y23838000D02*
Y24758000D01*
G01X10166000D02*
Y23838000D01*
G01D02*
X11448000D01*
G01Y24758000D02*
X10166000D01*
G01X10982000Y38470000D02*
Y39390000D01*
G01X11182000Y38470000D02*
X12464000D01*
G01X11182000Y39390000D02*
Y38470000D01*
G01X12464000Y39390000D02*
X11182000D01*
G01X11448000Y23838000D02*
Y24758000D01*
G01X11648000D02*
Y23838000D01*
G01D02*
X12930000D01*
G01Y24758000D02*
X11648000D01*
G01X12930000Y23838000D02*
Y24758000D01*
G01X12464000Y38470000D02*
Y39390000D01*
G01X12664000Y38470000D02*
X13946000D01*
G01X12664000Y39390000D02*
Y38470000D01*
G01X13946000Y39390000D02*
X12664000D01*
G01X14146000Y24758000D02*
Y23838000D01*
G01D02*
X15428000D01*
G01Y24758000D02*
X14146000D01*
G01X13946000Y38470000D02*
Y39390000D01*
G01X14146000Y38470000D02*
X15428000D01*
G01X14146000Y39390000D02*
Y38470000D01*
G01X15428000Y39390000D02*
X14146000D01*
G01X15428000Y23838000D02*
Y24758000D01*
G01X15628000Y25132000D02*
X16548000D01*
G01X15628000Y26414000D02*
Y25132000D01*
G01X16548000Y26414000D02*
X15628000D01*
G01Y26614000D02*
X16548000D01*
G01X15628000Y27896000D02*
Y26614000D01*
G01X16548000Y27896000D02*
X15628000D01*
G01Y28096000D02*
X16548000D01*
G01X15628000Y29378000D02*
Y28096000D01*
G01X16548000Y29378000D02*
X15628000D01*
G01Y29578000D02*
X16548000D01*
G01X15628000Y30860000D02*
Y29578000D01*
G01X16548000Y30860000D02*
X15628000D01*
G01Y31060000D02*
X16548000D01*
G01X15628000Y32342000D02*
Y31060000D01*
G01X16548000Y32342000D02*
X15628000D01*
G01Y32542000D02*
X16548000D01*
G01X15628000Y33824000D02*
Y32542000D01*
G01X16548000Y33824000D02*
X15628000D01*
G01Y34024000D02*
X16548000D01*
G01X15628000Y35306000D02*
Y34024000D01*
G01X16548000Y35306000D02*
X15628000D01*
G01Y35506000D02*
X16548000D01*
G01X15628000Y36788000D02*
Y35506000D01*
G01X16548000Y36788000D02*
X15628000D01*
G01Y36988000D02*
X16548000D01*
G01X15628000Y38270000D02*
Y36988000D01*
G01X15428000Y38470000D02*
Y39390000D01*
G01X16548000Y38270000D02*
X15628000D01*
G01X16548000Y25132000D02*
Y26414000D01*
G01Y26614000D02*
Y27896000D01*
G01Y28096000D02*
Y29378000D01*
G01Y29578000D02*
Y30860000D01*
G01Y31060000D02*
Y32342000D01*
G01Y32542000D02*
Y33824000D01*
G01Y34024000D02*
Y35306000D01*
G01Y35506000D02*
Y36788000D01*
G01Y36988000D02*
Y38270000D01*
G54D12*
G01X7375740Y24907750D02*
X7380610Y24899870D01*
X7386450Y24894620D01*
X7393260Y24892000D01*
X7401050Y24894620D01*
X7406890Y24899870D01*
X7412740Y24907750D01*
X7414680Y24918250D01*
Y24970740D01*
G01X7455450Y24924810D02*
X7462270Y24934000D01*
X7468110Y24939240D01*
X7475900Y24941870D01*
X7482710Y24939240D01*
X7487580Y24934000D01*
X7491480Y24926120D01*
X7492450Y24916930D01*
X7491480Y24909060D01*
X7487580Y24901180D01*
X7481740Y24894620D01*
X7474920Y24892000D01*
X7467130Y24894620D01*
X7460320Y24902500D01*
X7456420Y24914310D01*
X7455450Y24927430D01*
X7457400Y24944490D01*
X7460320Y24953680D01*
X7465190Y24962870D01*
X7472000Y24969430D01*
X7478820Y24970740D01*
X7485630Y24968120D01*
X7490500Y24961550D01*
G01X7121480Y25908000D02*
Y26098500D01*
X7183120Y25939750D01*
X7244760Y26098500D01*
Y25908000D01*
G01X7373620D02*
X7359400Y25911170D01*
X7345170Y25923870D01*
X7335690Y25946100D01*
X7330950Y25971500D01*
X7335690Y25996900D01*
X7345170Y26019120D01*
X7359400Y26031820D01*
X7373620Y26035000D01*
X7387840Y26031820D01*
X7402070Y26019120D01*
X7411550Y25996900D01*
X7413920Y25971500D01*
X7411550Y25946100D01*
X7402070Y25923870D01*
X7387840Y25911170D01*
X7373620Y25908000D01*
G01X7564120D02*
Y26098500D01*
G01X7721430Y25860370D02*
X7738030Y25847680D01*
X7756990Y25844500D01*
X7773580Y25847680D01*
X7787810Y25863550D01*
X7797290Y25885770D01*
Y26035000D01*
G01Y26009600D02*
X7787810Y26022300D01*
X7773580Y26031820D01*
X7756990Y26035000D01*
X7738030Y26028650D01*
X7726170Y26015950D01*
X7716690Y25993720D01*
X7711950Y25971500D01*
X7714320Y25952450D01*
X7723800Y25930220D01*
X7738030Y25914350D01*
X7756990Y25908000D01*
X7771210Y25911170D01*
X7787810Y25923870D01*
X7797290Y25936570D01*
G01X7987790Y25908000D02*
Y26035000D01*
G01Y26012780D02*
X7978310Y26025470D01*
X7964080Y26031820D01*
X7947490Y26035000D01*
X7930900Y26028650D01*
X7916670Y26015950D01*
X7907190Y25996900D01*
X7902450Y25971500D01*
X7907190Y25946100D01*
X7916670Y25927050D01*
X7930900Y25914350D01*
X7947490Y25908000D01*
X7964080Y25911170D01*
X7978310Y25920700D01*
X7987790Y25933390D01*
G01X8095320Y25908000D02*
Y26035000D01*
G01Y26003250D02*
X8104800Y26019120D01*
X8119030Y26031820D01*
X8137990Y26035000D01*
X8154580Y26031820D01*
X8168810Y26019120D01*
X8175920Y25996900D01*
Y25908000D01*
G01X8326120D02*
X8311900Y25911170D01*
X8297670Y25923870D01*
X8288190Y25946100D01*
X8283450Y25971500D01*
X8288190Y25996900D01*
X8297670Y26019120D01*
X8311900Y26031820D01*
X8326120Y26035000D01*
X8340340Y26031820D01*
X8354570Y26019120D01*
X8364050Y25996900D01*
X8366420Y25971500D01*
X8364050Y25946100D01*
X8354570Y25923870D01*
X8340340Y25911170D01*
X8326120Y25908000D01*
G01X8473950Y26035000D02*
X8516620Y25908000D01*
X8559290Y26035000D01*
G01X8838350Y25908000D02*
X8897620Y26098500D01*
X8956890Y25908000D01*
G01X8935550Y25974670D02*
X8859690D01*
G01X9088120Y25901650D02*
X9083380Y25904830D01*
Y25911170D01*
X9088120Y25914350D01*
X9092860Y25911170D01*
Y25904830D01*
X9088120Y25901650D01*
G01X9219350Y25908000D02*
X9278620Y26098500D01*
X9337890Y25908000D01*
G01X9316550Y25974670D02*
X9240690D01*
G01X9469120Y25901650D02*
X9464380Y25904830D01*
Y25911170D01*
X9469120Y25914350D01*
X9473860Y25911170D01*
Y25904830D01*
X9469120Y25901650D01*
G01X7130970Y25654000D02*
Y25844500D01*
X7178380D01*
X7197340Y25834970D01*
X7211570Y25822270D01*
X7223420Y25803230D01*
X7232900Y25781000D01*
X7235270Y25749250D01*
X7232900Y25717500D01*
X7223420Y25695270D01*
X7211570Y25676220D01*
X7197340Y25663520D01*
X7178380Y25654000D01*
X7130970D01*
G01X7416290D02*
Y25781000D01*
G01Y25758780D02*
X7406810Y25771470D01*
X7392580Y25777820D01*
X7375990Y25781000D01*
X7359400Y25774650D01*
X7345170Y25761950D01*
X7335690Y25742900D01*
X7330950Y25717500D01*
X7335690Y25692100D01*
X7345170Y25673050D01*
X7359400Y25660350D01*
X7375990Y25654000D01*
X7392580Y25657170D01*
X7406810Y25666700D01*
X7416290Y25679390D01*
G01X7523820Y25654000D02*
Y25781000D01*
G01Y25749250D02*
X7533300Y25765120D01*
X7547530Y25777820D01*
X7566490Y25781000D01*
X7583080Y25777820D01*
X7597310Y25765120D01*
X7604420Y25742900D01*
Y25654000D01*
G01X7754620Y25781000D02*
Y25654000D01*
G01Y25831800D02*
X7749880Y25834970D01*
Y25841330D01*
X7754620Y25844500D01*
X7759360Y25841330D01*
Y25834970D01*
X7754620Y25831800D01*
G01X7895340Y25596850D02*
X7909560Y25590500D01*
X7928530Y25596850D01*
X7940380Y25609550D01*
X7949860Y25625430D01*
X7964080Y25676220D01*
X7994900Y25781000D01*
G01X7919040D02*
X7964080Y25676220D01*
G01X8178290Y25654000D02*
Y25781000D01*
G01Y25758780D02*
X8168810Y25771470D01*
X8154580Y25777820D01*
X8137990Y25781000D01*
X8121400Y25774650D01*
X8107170Y25761950D01*
X8097690Y25742900D01*
X8092950Y25717500D01*
X8097690Y25692100D01*
X8107170Y25673050D01*
X8121400Y25660350D01*
X8137990Y25654000D01*
X8154580Y25657170D01*
X8168810Y25666700D01*
X8178290Y25679390D01*
G01X8292930Y25654000D02*
Y25781000D01*
G01Y25755600D02*
X8304780Y25768300D01*
X8316640Y25777820D01*
X8333230Y25781000D01*
X8345080Y25777820D01*
X8359310Y25768300D01*
G01X8476320Y25781000D02*
Y25692100D01*
X8485800Y25669870D01*
X8500030Y25657170D01*
X8516620Y25654000D01*
X8533210Y25657170D01*
X8547440Y25669870D01*
X8556920Y25692100D01*
G01Y25654000D02*
Y25781000D01*
G01X8707120Y25654000D02*
Y25844500D01*
G01X8847840Y25596850D02*
X8862060Y25590500D01*
X8881030Y25596850D01*
X8892880Y25609550D01*
X8902360Y25625430D01*
X8916580Y25676220D01*
X8947400Y25781000D01*
G01X8871540D02*
X8916580Y25676220D01*
G01X9219350Y25654000D02*
X9278620Y25844500D01*
X9337890Y25654000D01*
G01X9316550Y25720670D02*
X9240690D01*
G01X9469120Y25647650D02*
X9464380Y25650830D01*
Y25657170D01*
X9469120Y25660350D01*
X9473860Y25657170D01*
Y25650830D01*
X9469120Y25647650D01*
G01X7183120Y25400000D02*
Y25485720D01*
X7135710Y25590500D01*
G01X7230530D02*
X7183120Y25485720D01*
G01X7416290Y25400000D02*
Y25527000D01*
G01Y25504780D02*
X7406810Y25517470D01*
X7392580Y25523820D01*
X7375990Y25527000D01*
X7359400Y25520650D01*
X7345170Y25507950D01*
X7335690Y25488900D01*
X7330950Y25463500D01*
X7335690Y25438100D01*
X7345170Y25419050D01*
X7359400Y25406350D01*
X7375990Y25400000D01*
X7392580Y25403170D01*
X7406810Y25412700D01*
X7416290Y25425390D01*
G01X7528560Y25527000D02*
X7599680D01*
X7528560Y25400000D01*
X7599680D01*
G01X7704840Y25342850D02*
X7719060Y25336500D01*
X7738030Y25342850D01*
X7749880Y25355550D01*
X7759360Y25371430D01*
X7773580Y25422220D01*
X7804400Y25527000D01*
G01X7728540D02*
X7773580Y25422220D01*
G01X7987790Y25590500D02*
Y25400000D01*
G01Y25428570D02*
X7978310Y25412700D01*
X7964080Y25403170D01*
X7947490Y25400000D01*
X7928530Y25406350D01*
X7914300Y25422220D01*
X7904820Y25441270D01*
X7902450Y25463500D01*
X7904820Y25485720D01*
X7914300Y25504780D01*
X7928530Y25520650D01*
X7947490Y25527000D01*
X7964080Y25523820D01*
X7975940Y25517470D01*
X7987790Y25504780D01*
G01X8097690Y25352370D02*
X8114280Y25339680D01*
X8128510Y25336500D01*
X8147470Y25342850D01*
X8161700Y25358720D01*
X8168810Y25387300D01*
Y25527000D01*
G01Y25577800D02*
X8164070Y25580970D01*
Y25587330D01*
X8168810Y25590500D01*
X8173550Y25587330D01*
Y25580970D01*
X8168810Y25577800D01*
G01X8276340Y25342850D02*
X8290560Y25336500D01*
X8309530Y25342850D01*
X8321380Y25355550D01*
X8330860Y25371430D01*
X8345080Y25422220D01*
X8375900Y25527000D01*
G01X8300040D02*
X8345080Y25422220D01*
G01X8754530Y25400000D02*
X8659710D01*
Y25590500D01*
X8754530D01*
G01X8716600Y25498430D02*
X8659710D01*
G01X8897620Y25393650D02*
X8892880Y25396830D01*
Y25403170D01*
X8897620Y25406350D01*
X8902360Y25403170D01*
Y25396830D01*
X8897620Y25393650D01*
G01X9026480Y25400000D02*
Y25590500D01*
X9088120Y25431750D01*
X9149760Y25590500D01*
Y25400000D01*
G01X9278620Y25393650D02*
X9273880Y25396830D01*
Y25403170D01*
X9278620Y25406350D01*
X9283360Y25403170D01*
Y25396830D01*
X9278620Y25393650D01*
G01X7350250Y37747740D02*
X7358130Y37752610D01*
X7363380Y37758450D01*
X7366000Y37765260D01*
X7363380Y37773050D01*
X7358130Y37778890D01*
X7350250Y37784740D01*
X7339750Y37786680D01*
X7287260D01*
G01X7366000Y37845950D02*
X7287260D01*
X7303010Y37834270D01*
G01X7366000D02*
Y37857630D01*
G01X8139850Y35052000D02*
X8199120Y35242500D01*
X8258390Y35052000D01*
G01X8237050Y35118670D02*
X8161190D01*
G01X8389620Y35052000D02*
Y35242500D01*
G01X8580120Y35052000D02*
Y35242500D01*
G01X8927930Y35052000D02*
Y35179000D01*
G01Y35153600D02*
X8939780Y35166300D01*
X8951640Y35175820D01*
X8968230Y35179000D01*
X8980080Y35175820D01*
X8994310Y35166300D01*
G01X9151620Y35179000D02*
Y35052000D01*
G01Y35229800D02*
X9146880Y35232970D01*
Y35239330D01*
X9151620Y35242500D01*
X9156360Y35239330D01*
Y35232970D01*
X9151620Y35229800D01*
G01X9308930Y35004370D02*
X9325530Y34991680D01*
X9344490Y34988500D01*
X9361080Y34991680D01*
X9375310Y35007550D01*
X9384790Y35029770D01*
Y35179000D01*
G01Y35153600D02*
X9375310Y35166300D01*
X9361080Y35175820D01*
X9344490Y35179000D01*
X9325530Y35172650D01*
X9313670Y35159950D01*
X9304190Y35137720D01*
X9299450Y35115500D01*
X9301820Y35096450D01*
X9311300Y35074220D01*
X9325530Y35058350D01*
X9344490Y35052000D01*
X9358710Y35055170D01*
X9375310Y35067870D01*
X9384790Y35080570D01*
G01X9492320Y35052000D02*
Y35242500D01*
G01Y35150430D02*
X9504170Y35166300D01*
X9516030Y35175820D01*
X9534990Y35179000D01*
X9549210Y35175820D01*
X9565810Y35163120D01*
X9572920Y35144070D01*
Y35052000D01*
G01X9723120Y35242500D02*
Y35052000D01*
G01X9689930Y35179000D02*
X9756310D01*
G01X10070930Y35052000D02*
Y35179000D01*
G01Y35153600D02*
X10082780Y35166300D01*
X10094640Y35175820D01*
X10111230Y35179000D01*
X10123080Y35175820D01*
X10137310Y35166300D01*
G01X10259060Y35137720D02*
X10334920D01*
X10327810Y35159950D01*
X10315960Y35172650D01*
X10299360Y35179000D01*
X10282770Y35175820D01*
X10268540Y35166300D01*
X10259060Y35144070D01*
X10254320Y35125020D01*
Y35105980D01*
X10259060Y35086920D01*
X10270910Y35067870D01*
X10285140Y35055170D01*
X10301730Y35052000D01*
X10318330Y35058350D01*
X10334920Y35077390D01*
G01X10449560Y35074220D02*
X10461410Y35061520D01*
X10478010Y35052000D01*
X10492230D01*
X10506460Y35058350D01*
X10515940Y35067870D01*
X10520680Y35080570D01*
X10518310Y35099630D01*
X10508830Y35109150D01*
X10466150Y35128200D01*
X10456670Y35150430D01*
X10461410Y35166300D01*
X10470900Y35175820D01*
X10485120Y35179000D01*
X10499340Y35175820D01*
X10513570Y35166300D01*
G01X10640060Y35137720D02*
X10715920D01*
X10708810Y35159950D01*
X10696960Y35172650D01*
X10680360Y35179000D01*
X10663770Y35175820D01*
X10649540Y35166300D01*
X10640060Y35144070D01*
X10635320Y35125020D01*
Y35105980D01*
X10640060Y35086920D01*
X10651910Y35067870D01*
X10666140Y35055170D01*
X10682730Y35052000D01*
X10699330Y35058350D01*
X10715920Y35077390D01*
G01X10832930Y35052000D02*
Y35179000D01*
G01Y35153600D02*
X10844780Y35166300D01*
X10856640Y35175820D01*
X10873230Y35179000D01*
X10885080Y35175820D01*
X10899310Y35166300D01*
G01X11013950Y35179000D02*
X11056620Y35052000D01*
X11099290Y35179000D01*
G01X11211560Y35137720D02*
X11287420D01*
X11280310Y35159950D01*
X11268460Y35172650D01*
X11251860Y35179000D01*
X11235270Y35175820D01*
X11221040Y35166300D01*
X11211560Y35144070D01*
X11206820Y35125020D01*
Y35105980D01*
X11211560Y35086920D01*
X11223410Y35067870D01*
X11237640Y35055170D01*
X11254230Y35052000D01*
X11270830Y35058350D01*
X11287420Y35077390D01*
G01X11480290Y35242500D02*
Y35052000D01*
G01Y35080570D02*
X11470810Y35064700D01*
X11456580Y35055170D01*
X11439990Y35052000D01*
X11421030Y35058350D01*
X11406800Y35074220D01*
X11397320Y35093270D01*
X11394950Y35115500D01*
X11397320Y35137720D01*
X11406800Y35156780D01*
X11421030Y35172650D01*
X11439990Y35179000D01*
X11456580Y35175820D01*
X11468440Y35169470D01*
X11480290Y35156780D01*
G01X11628120Y35045650D02*
X11623380Y35048830D01*
Y35055170D01*
X11628120Y35058350D01*
X11632860Y35055170D01*
Y35048830D01*
X11628120Y35045650D01*
G01X8137480Y34798000D02*
Y34988500D01*
X8199120Y34829750D01*
X8260760Y34988500D01*
Y34798000D01*
G01X8432290D02*
Y34925000D01*
G01Y34902780D02*
X8422810Y34915470D01*
X8408580Y34921820D01*
X8391990Y34925000D01*
X8375400Y34918650D01*
X8361170Y34905950D01*
X8351690Y34886900D01*
X8346950Y34861500D01*
X8351690Y34836100D01*
X8361170Y34817050D01*
X8375400Y34804350D01*
X8391990Y34798000D01*
X8408580Y34801170D01*
X8422810Y34810700D01*
X8432290Y34823390D01*
G01X8622790Y34988500D02*
Y34798000D01*
G01Y34826570D02*
X8613310Y34810700D01*
X8599080Y34801170D01*
X8582490Y34798000D01*
X8563530Y34804350D01*
X8549300Y34820220D01*
X8539820Y34839270D01*
X8537450Y34861500D01*
X8539820Y34883720D01*
X8549300Y34902780D01*
X8563530Y34918650D01*
X8582490Y34925000D01*
X8599080Y34921820D01*
X8610940Y34915470D01*
X8622790Y34902780D01*
G01X8735060Y34883720D02*
X8810920D01*
X8803810Y34905950D01*
X8791960Y34918650D01*
X8775360Y34925000D01*
X8758770Y34921820D01*
X8744540Y34912300D01*
X8735060Y34890070D01*
X8730320Y34871020D01*
Y34851980D01*
X8735060Y34832920D01*
X8746910Y34813870D01*
X8761140Y34801170D01*
X8777730Y34798000D01*
X8794330Y34804350D01*
X8810920Y34823390D01*
G01X9151620Y34925000D02*
Y34798000D01*
G01Y34975800D02*
X9146880Y34978970D01*
Y34985330D01*
X9151620Y34988500D01*
X9156360Y34985330D01*
Y34978970D01*
X9151620Y34975800D01*
G01X9301820Y34798000D02*
Y34925000D01*
G01Y34893250D02*
X9311300Y34909120D01*
X9325530Y34921820D01*
X9344490Y34925000D01*
X9361080Y34921820D01*
X9375310Y34909120D01*
X9382420Y34886900D01*
Y34798000D01*
G01X9670970D02*
Y34988500D01*
G01X9761050D02*
X9670970Y34871020D01*
G01X9775270Y34798000D02*
X9711270Y34925000D01*
G01X9956290Y34798000D02*
Y34925000D01*
G01Y34902780D02*
X9946810Y34915470D01*
X9932580Y34921820D01*
X9915990Y34925000D01*
X9899400Y34918650D01*
X9885170Y34905950D01*
X9875690Y34886900D01*
X9870950Y34861500D01*
X9875690Y34836100D01*
X9885170Y34817050D01*
X9899400Y34804350D01*
X9915990Y34798000D01*
X9932580Y34801170D01*
X9946810Y34810700D01*
X9956290Y34823390D01*
G01X10068560Y34925000D02*
X10139680D01*
X10068560Y34798000D01*
X10139680D01*
G01X10337290D02*
Y34925000D01*
G01Y34902780D02*
X10327810Y34915470D01*
X10313580Y34921820D01*
X10296990Y34925000D01*
X10280400Y34918650D01*
X10266170Y34905950D01*
X10256690Y34886900D01*
X10251950Y34861500D01*
X10256690Y34836100D01*
X10266170Y34817050D01*
X10280400Y34804350D01*
X10296990Y34798000D01*
X10313580Y34801170D01*
X10327810Y34810700D01*
X10337290Y34823390D01*
G01X10444820Y34798000D02*
Y34988500D01*
G01X10520680Y34925000D02*
X10444820Y34851980D01*
G01X10475640Y34880550D02*
X10525420Y34798000D01*
G01X10635320D02*
Y34988500D01*
G01Y34896430D02*
X10647170Y34912300D01*
X10659030Y34921820D01*
X10677990Y34925000D01*
X10692210Y34921820D01*
X10708810Y34909120D01*
X10715920Y34890070D01*
Y34798000D01*
G01X10830560Y34820220D02*
X10842410Y34807520D01*
X10859010Y34798000D01*
X10873230D01*
X10887460Y34804350D01*
X10896940Y34813870D01*
X10901680Y34826570D01*
X10899310Y34845630D01*
X10889830Y34855150D01*
X10847150Y34874200D01*
X10837670Y34896430D01*
X10842410Y34912300D01*
X10851900Y34921820D01*
X10866120Y34925000D01*
X10880340Y34921820D01*
X10894570Y34912300D01*
G01X11056620Y34988500D02*
Y34798000D01*
G01X11023430Y34925000D02*
X11089810D01*
G01X11289790Y34798000D02*
Y34925000D01*
G01Y34902780D02*
X11280310Y34915470D01*
X11266080Y34921820D01*
X11249490Y34925000D01*
X11232900Y34918650D01*
X11218670Y34905950D01*
X11209190Y34886900D01*
X11204450Y34861500D01*
X11209190Y34836100D01*
X11218670Y34817050D01*
X11232900Y34804350D01*
X11249490Y34798000D01*
X11266080Y34801170D01*
X11280310Y34810700D01*
X11289790Y34823390D01*
G01X11397320Y34798000D02*
Y34925000D01*
G01Y34893250D02*
X11406800Y34909120D01*
X11421030Y34921820D01*
X11439990Y34925000D01*
X11456580Y34921820D01*
X11470810Y34909120D01*
X11477920Y34886900D01*
Y34798000D01*
G01X8234680Y35591750D02*
X8210970Y35560000D01*
X8187270D01*
X8163560Y35591750D01*
Y35655250D01*
X8187270Y35687000D01*
X8210970D01*
X8234680Y35655250D01*
Y35591750D01*
X8251270Y35566350D01*
X8270240Y35591750D01*
Y35718750D01*
X8246530Y35750500D01*
X8151710D01*
X8128000Y35718750D01*
Y35528250D01*
X8151710Y35496500D01*
X8246530D01*
X8270240Y35528250D01*
G01X8527970Y35560000D02*
Y35750500D01*
X8575380D01*
X8594340Y35740970D01*
X8608570Y35728270D01*
X8620420Y35709230D01*
X8629900Y35687000D01*
X8632270Y35655250D01*
X8629900Y35623500D01*
X8620420Y35601270D01*
X8608570Y35582220D01*
X8594340Y35569520D01*
X8575380Y35560000D01*
X8527970D01*
G01X8770620D02*
X8751650Y35563170D01*
X8735060Y35575870D01*
X8720840Y35594920D01*
X8711350Y35617150D01*
X8706610Y35642550D01*
Y35667950D01*
X8711350Y35693350D01*
X8720840Y35715580D01*
X8735060Y35734620D01*
X8751650Y35747330D01*
X8770620Y35750500D01*
X8789580Y35747330D01*
X8806180Y35734620D01*
X8820400Y35715580D01*
X8829890Y35693350D01*
X8834630Y35667950D01*
Y35642550D01*
X8829890Y35617150D01*
X8820400Y35594920D01*
X8806180Y35575870D01*
X8789580Y35563170D01*
X8770620Y35560000D01*
G01X8911340Y35585390D02*
X8930300Y35569520D01*
X8951640Y35560000D01*
X8970600D01*
X8989570Y35569520D01*
X9003790Y35585390D01*
X9010900Y35607630D01*
X9006160Y35629850D01*
X8994310Y35648900D01*
X8972970Y35661600D01*
X8944530Y35667950D01*
X8927930Y35680650D01*
X8920820Y35702870D01*
X8925560Y35725100D01*
X8937410Y35740970D01*
X8954010Y35750500D01*
X8970600D01*
X8987200Y35744150D01*
X9001420Y35728270D01*
G01X9151620Y35750500D02*
Y35560000D01*
G01X9097100Y35750500D02*
X9206140D01*
G01X9313670D02*
X9370560D01*
G01X9342120D02*
Y35560000D01*
G01X9313670D02*
X9370560D01*
G01X9770530D02*
X9675710D01*
Y35750500D01*
X9770530D01*
G01X9732600Y35658430D02*
X9675710D01*
G01X9956290Y35750500D02*
Y35560000D01*
G01Y35588570D02*
X9946810Y35572700D01*
X9932580Y35563170D01*
X9915990Y35560000D01*
X9897030Y35566350D01*
X9882800Y35582220D01*
X9873320Y35601270D01*
X9870950Y35623500D01*
X9873320Y35645720D01*
X9882800Y35664780D01*
X9897030Y35680650D01*
X9915990Y35687000D01*
X9932580Y35683820D01*
X9944440Y35677470D01*
X9956290Y35664780D01*
G01X10063820Y35687000D02*
Y35598100D01*
X10073300Y35575870D01*
X10087530Y35563170D01*
X10104120Y35560000D01*
X10120710Y35563170D01*
X10134940Y35575870D01*
X10144420Y35598100D01*
G01Y35560000D02*
Y35687000D01*
G01X10332550Y35671120D02*
X10315960Y35683820D01*
X10301730Y35687000D01*
X10282770Y35680650D01*
X10268540Y35667950D01*
X10259060Y35645720D01*
X10256690Y35623500D01*
X10259060Y35601270D01*
X10268540Y35582220D01*
X10282770Y35566350D01*
X10301730Y35560000D01*
X10318330Y35566350D01*
X10332550Y35579050D01*
G01X10527790Y35560000D02*
Y35687000D01*
G01Y35664780D02*
X10518310Y35677470D01*
X10504080Y35683820D01*
X10487490Y35687000D01*
X10470900Y35680650D01*
X10456670Y35667950D01*
X10447190Y35648900D01*
X10442450Y35623500D01*
X10447190Y35598100D01*
X10456670Y35579050D01*
X10470900Y35566350D01*
X10487490Y35560000D01*
X10504080Y35563170D01*
X10518310Y35572700D01*
X10527790Y35585390D01*
G01X10675620Y35750500D02*
Y35560000D01*
G01X10642430Y35687000D02*
X10708810D01*
G01X10866120D02*
Y35560000D01*
G01Y35737800D02*
X10861380Y35740970D01*
Y35747330D01*
X10866120Y35750500D01*
X10870860Y35747330D01*
Y35740970D01*
X10866120Y35737800D01*
G01X11056620Y35560000D02*
X11042400Y35563170D01*
X11028170Y35575870D01*
X11018690Y35598100D01*
X11013950Y35623500D01*
X11018690Y35648900D01*
X11028170Y35671120D01*
X11042400Y35683820D01*
X11056620Y35687000D01*
X11070840Y35683820D01*
X11085070Y35671120D01*
X11094550Y35648900D01*
X11096920Y35623500D01*
X11094550Y35598100D01*
X11085070Y35575870D01*
X11070840Y35563170D01*
X11056620Y35560000D01*
G01X11206820D02*
Y35687000D01*
G01Y35655250D02*
X11216300Y35671120D01*
X11230530Y35683820D01*
X11249490Y35687000D01*
X11266080Y35683820D01*
X11280310Y35671120D01*
X11287420Y35648900D01*
Y35560000D01*
G01X11480290D02*
Y35687000D01*
G01Y35664780D02*
X11470810Y35677470D01*
X11456580Y35683820D01*
X11439990Y35687000D01*
X11423400Y35680650D01*
X11409170Y35667950D01*
X11399690Y35648900D01*
X11394950Y35623500D01*
X11399690Y35598100D01*
X11409170Y35579050D01*
X11423400Y35566350D01*
X11439990Y35560000D01*
X11456580Y35563170D01*
X11470810Y35572700D01*
X11480290Y35585390D01*
G01X11628120Y35560000D02*
Y35750500D01*
G01X11959340Y35585390D02*
X11978300Y35569520D01*
X11999640Y35560000D01*
X12018600D01*
X12037570Y35569520D01*
X12051790Y35585390D01*
X12058900Y35607630D01*
X12054160Y35629850D01*
X12042310Y35648900D01*
X12020970Y35661600D01*
X11992530Y35667950D01*
X11975930Y35680650D01*
X11968820Y35702870D01*
X11973560Y35725100D01*
X11985410Y35740970D01*
X12002010Y35750500D01*
X12018600D01*
X12035200Y35744150D01*
X12049420Y35728270D01*
G01X12199620Y35560000D02*
X12185400Y35563170D01*
X12171170Y35575870D01*
X12161690Y35598100D01*
X12156950Y35623500D01*
X12161690Y35648900D01*
X12171170Y35671120D01*
X12185400Y35683820D01*
X12199620Y35687000D01*
X12213840Y35683820D01*
X12228070Y35671120D01*
X12237550Y35648900D01*
X12239920Y35623500D01*
X12237550Y35598100D01*
X12228070Y35575870D01*
X12213840Y35563170D01*
X12199620Y35560000D01*
G01X12390120D02*
Y35750500D01*
G01X12540320Y35687000D02*
Y35598100D01*
X12549800Y35575870D01*
X12564030Y35563170D01*
X12580620Y35560000D01*
X12597210Y35563170D01*
X12611440Y35575870D01*
X12620920Y35598100D01*
G01Y35560000D02*
Y35687000D01*
G01X12771120Y35750500D02*
Y35560000D01*
G01X12737930Y35687000D02*
X12804310D01*
G01X12961620D02*
Y35560000D01*
G01Y35737800D02*
X12956880Y35740970D01*
Y35747330D01*
X12961620Y35750500D01*
X12966360Y35747330D01*
Y35740970D01*
X12961620Y35737800D01*
G01X13152120Y35560000D02*
X13137900Y35563170D01*
X13123670Y35575870D01*
X13114190Y35598100D01*
X13109450Y35623500D01*
X13114190Y35648900D01*
X13123670Y35671120D01*
X13137900Y35683820D01*
X13152120Y35687000D01*
X13166340Y35683820D01*
X13180570Y35671120D01*
X13190050Y35648900D01*
X13192420Y35623500D01*
X13190050Y35598100D01*
X13180570Y35575870D01*
X13166340Y35563170D01*
X13152120Y35560000D01*
G01X13302320D02*
Y35687000D01*
G01Y35655250D02*
X13311800Y35671120D01*
X13326030Y35683820D01*
X13344990Y35687000D01*
X13361580Y35683820D01*
X13375810Y35671120D01*
X13382920Y35648900D01*
Y35560000D01*
G01X13497560Y35582220D02*
X13509410Y35569520D01*
X13526010Y35560000D01*
X13540230D01*
X13554460Y35566350D01*
X13563940Y35575870D01*
X13568680Y35588570D01*
X13566310Y35607630D01*
X13556830Y35617150D01*
X13514150Y35636200D01*
X13504670Y35658430D01*
X13509410Y35674300D01*
X13518900Y35683820D01*
X13533120Y35687000D01*
X13547340Y35683820D01*
X13561570Y35674300D01*
G01X8154080Y36734750D02*
X8168300Y36753800D01*
X8184900Y36763330D01*
X8203860Y36766500D01*
X8227570Y36760150D01*
X8244160Y36744270D01*
X8248900Y36725230D01*
X8246530Y36706170D01*
X8237050Y36690300D01*
X8189640Y36658550D01*
X8168300Y36636320D01*
X8154080Y36604570D01*
X8149340Y36576000D01*
X8248900D01*
G01X8389620Y36766500D02*
X8370650Y36760150D01*
X8356430Y36744270D01*
X8346950Y36725230D01*
X8339840Y36699820D01*
X8337470Y36671250D01*
X8339840Y36642670D01*
X8346950Y36617270D01*
X8356430Y36598220D01*
X8370650Y36582350D01*
X8389620Y36576000D01*
X8408580Y36582350D01*
X8422810Y36598220D01*
X8432290Y36617270D01*
X8439400Y36642670D01*
X8441770Y36671250D01*
X8439400Y36699820D01*
X8432290Y36725230D01*
X8422810Y36744270D01*
X8408580Y36760150D01*
X8389620Y36766500D01*
G01X8580120Y36569650D02*
X8575380Y36572830D01*
Y36579170D01*
X8580120Y36582350D01*
X8584860Y36579170D01*
Y36572830D01*
X8580120Y36569650D01*
G01X8770620Y36766500D02*
X8751650Y36760150D01*
X8737430Y36744270D01*
X8727950Y36725230D01*
X8720840Y36699820D01*
X8718470Y36671250D01*
X8720840Y36642670D01*
X8727950Y36617270D01*
X8737430Y36598220D01*
X8751650Y36582350D01*
X8770620Y36576000D01*
X8789580Y36582350D01*
X8803810Y36598220D01*
X8813290Y36617270D01*
X8820400Y36642670D01*
X8822770Y36671250D01*
X8820400Y36699820D01*
X8813290Y36725230D01*
X8803810Y36744270D01*
X8789580Y36760150D01*
X8770620Y36766500D01*
G01X8908970Y36614100D02*
X8923190Y36591870D01*
X8942150Y36579170D01*
X8963490Y36576000D01*
X8982460Y36579170D01*
X9001420Y36595050D01*
X9013270Y36614100D01*
X9015640Y36633150D01*
X9010900Y36655370D01*
X8994310Y36671250D01*
X8977710Y36677600D01*
X8956380D01*
G01X8977710D02*
X8991940Y36687120D01*
X9003790Y36703000D01*
X9008530Y36722050D01*
X9003790Y36741100D01*
X8991940Y36756970D01*
X8970600Y36766500D01*
X8949270Y36763330D01*
X8927930Y36750620D01*
G01X9151620Y36569650D02*
X9146880Y36572830D01*
Y36579170D01*
X9151620Y36582350D01*
X9156360Y36579170D01*
Y36572830D01*
X9151620Y36569650D01*
G01X9297080Y36734750D02*
X9311300Y36753800D01*
X9327900Y36763330D01*
X9346860Y36766500D01*
X9370570Y36760150D01*
X9387160Y36744270D01*
X9391900Y36725230D01*
X9389530Y36706170D01*
X9380050Y36690300D01*
X9332640Y36658550D01*
X9311300Y36636320D01*
X9297080Y36604570D01*
X9292340Y36576000D01*
X9391900D01*
G01X9532620Y36766500D02*
X9513650Y36760150D01*
X9499430Y36744270D01*
X9489950Y36725230D01*
X9482840Y36699820D01*
X9480470Y36671250D01*
X9482840Y36642670D01*
X9489950Y36617270D01*
X9499430Y36598220D01*
X9513650Y36582350D01*
X9532620Y36576000D01*
X9551580Y36582350D01*
X9565810Y36598220D01*
X9575290Y36617270D01*
X9582400Y36642670D01*
X9584770Y36671250D01*
X9582400Y36699820D01*
X9575290Y36725230D01*
X9565810Y36744270D01*
X9551580Y36760150D01*
X9532620Y36766500D01*
G01X9678080Y36734750D02*
X9692300Y36753800D01*
X9708900Y36763330D01*
X9727860Y36766500D01*
X9751570Y36760150D01*
X9768160Y36744270D01*
X9772900Y36725230D01*
X9770530Y36706170D01*
X9761050Y36690300D01*
X9713640Y36658550D01*
X9692300Y36636320D01*
X9678080Y36604570D01*
X9673340Y36576000D01*
X9772900D01*
G01X9861470Y36604570D02*
X9875690Y36588700D01*
X9892280Y36579170D01*
X9913620Y36576000D01*
X9934960Y36582350D01*
X9951550Y36595050D01*
X9963400Y36617270D01*
X9965770Y36642670D01*
X9961030Y36668070D01*
X9949180Y36683950D01*
X9932580Y36696650D01*
X9915990Y36699820D01*
X9899400Y36696650D01*
X9878060Y36683950D01*
X9885170Y36766500D01*
X9949180D01*
G01X10099380Y36541080D02*
X10108860Y36582350D01*
G01X10485120Y36766500D02*
X10466150Y36760150D01*
X10451930Y36744270D01*
X10442450Y36725230D01*
X10435340Y36699820D01*
X10432970Y36671250D01*
X10435340Y36642670D01*
X10442450Y36617270D01*
X10451930Y36598220D01*
X10466150Y36582350D01*
X10485120Y36576000D01*
X10504080Y36582350D01*
X10518310Y36598220D01*
X10527790Y36617270D01*
X10534900Y36642670D01*
X10537270Y36671250D01*
X10534900Y36699820D01*
X10527790Y36725230D01*
X10518310Y36744270D01*
X10504080Y36760150D01*
X10485120Y36766500D01*
G01X10675620Y36576000D02*
Y36766500D01*
X10647170Y36728400D01*
G01Y36576000D02*
X10704060D01*
G01X10866120Y36766500D02*
X10847150Y36760150D01*
X10832930Y36744270D01*
X10823450Y36725230D01*
X10816340Y36699820D01*
X10813970Y36671250D01*
X10816340Y36642670D01*
X10823450Y36617270D01*
X10832930Y36598220D01*
X10847150Y36582350D01*
X10866120Y36576000D01*
X10885080Y36582350D01*
X10899310Y36598220D01*
X10908790Y36617270D01*
X10915900Y36642670D01*
X10918270Y36671250D01*
X10915900Y36699820D01*
X10908790Y36725230D01*
X10899310Y36744270D01*
X10885080Y36760150D01*
X10866120Y36766500D01*
G01X11056620D02*
X11037650Y36760150D01*
X11023430Y36744270D01*
X11013950Y36725230D01*
X11006840Y36699820D01*
X11004470Y36671250D01*
X11006840Y36642670D01*
X11013950Y36617270D01*
X11023430Y36598220D01*
X11037650Y36582350D01*
X11056620Y36576000D01*
X11075580Y36582350D01*
X11089810Y36598220D01*
X11099290Y36617270D01*
X11106400Y36642670D01*
X11108770Y36671250D01*
X11106400Y36699820D01*
X11099290Y36725230D01*
X11089810Y36744270D01*
X11075580Y36760150D01*
X11056620Y36766500D01*
G01X11202080Y36734750D02*
X11216300Y36753800D01*
X11232900Y36763330D01*
X11251860Y36766500D01*
X11275570Y36760150D01*
X11292160Y36744270D01*
X11296900Y36725230D01*
X11294530Y36706170D01*
X11285050Y36690300D01*
X11237640Y36658550D01*
X11216300Y36636320D01*
X11202080Y36604570D01*
X11197340Y36576000D01*
X11296900D01*
G01X11437620Y36766500D02*
X11418650Y36760150D01*
X11404430Y36744270D01*
X11394950Y36725230D01*
X11387840Y36699820D01*
X11385470Y36671250D01*
X11387840Y36642670D01*
X11394950Y36617270D01*
X11404430Y36598220D01*
X11418650Y36582350D01*
X11437620Y36576000D01*
X11456580Y36582350D01*
X11470810Y36598220D01*
X11480290Y36617270D01*
X11487400Y36642670D01*
X11489770Y36671250D01*
X11487400Y36699820D01*
X11480290Y36725230D01*
X11470810Y36744270D01*
X11456580Y36760150D01*
X11437620Y36766500D01*
G01X11628120D02*
X11609150Y36760150D01*
X11594930Y36744270D01*
X11585450Y36725230D01*
X11578340Y36699820D01*
X11575970Y36671250D01*
X11578340Y36642670D01*
X11585450Y36617270D01*
X11594930Y36598220D01*
X11609150Y36582350D01*
X11628120Y36576000D01*
X11647080Y36582350D01*
X11661310Y36598220D01*
X11670790Y36617270D01*
X11677900Y36642670D01*
X11680270Y36671250D01*
X11677900Y36699820D01*
X11670790Y36725230D01*
X11661310Y36744270D01*
X11647080Y36760150D01*
X11628120Y36766500D01*
G01X11766470Y36614100D02*
X11780690Y36591870D01*
X11799650Y36579170D01*
X11820990Y36576000D01*
X11839960Y36579170D01*
X11858920Y36595050D01*
X11870770Y36614100D01*
X11873140Y36633150D01*
X11868400Y36655370D01*
X11851810Y36671250D01*
X11835210Y36677600D01*
X11813880D01*
G01X11835210D02*
X11849440Y36687120D01*
X11861290Y36703000D01*
X11866030Y36722050D01*
X11861290Y36741100D01*
X11849440Y36756970D01*
X11828100Y36766500D01*
X11806770Y36763330D01*
X11785430Y36750620D01*
G01X11964080Y36734750D02*
X11978300Y36753800D01*
X11994900Y36763330D01*
X12013860Y36766500D01*
X12037570Y36760150D01*
X12054160Y36744270D01*
X12058900Y36725230D01*
X12056530Y36706170D01*
X12047050Y36690300D01*
X11999640Y36658550D01*
X11978300Y36636320D01*
X11964080Y36604570D01*
X11959340Y36576000D01*
X12058900D01*
G01X12199620Y36766500D02*
X12180650Y36760150D01*
X12166430Y36744270D01*
X12156950Y36725230D01*
X12149840Y36699820D01*
X12147470Y36671250D01*
X12149840Y36642670D01*
X12156950Y36617270D01*
X12166430Y36598220D01*
X12180650Y36582350D01*
X12199620Y36576000D01*
X12218580Y36582350D01*
X12232810Y36598220D01*
X12242290Y36617270D01*
X12249400Y36642670D01*
X12251770Y36671250D01*
X12249400Y36699820D01*
X12242290Y36725230D01*
X12232810Y36744270D01*
X12218580Y36760150D01*
X12199620Y36766500D01*
G01X12345080Y36734750D02*
X12359300Y36753800D01*
X12375900Y36763330D01*
X12394860Y36766500D01*
X12418570Y36760150D01*
X12435160Y36744270D01*
X12439900Y36725230D01*
X12437530Y36706170D01*
X12428050Y36690300D01*
X12380640Y36658550D01*
X12359300Y36636320D01*
X12345080Y36604570D01*
X12340340Y36576000D01*
X12439900D01*
G01X12528470Y36604570D02*
X12542690Y36588700D01*
X12559280Y36579170D01*
X12580620Y36576000D01*
X12601960Y36582350D01*
X12618550Y36595050D01*
X12630400Y36617270D01*
X12632770Y36642670D01*
X12628030Y36668070D01*
X12616180Y36683950D01*
X12599580Y36696650D01*
X12582990Y36699820D01*
X12566400Y36696650D01*
X12545060Y36683950D01*
X12552170Y36766500D01*
X12616180D01*
G01X8146970Y37338000D02*
Y37528500D01*
X8194380D01*
X8213340Y37518970D01*
X8227570Y37506270D01*
X8239420Y37487230D01*
X8248900Y37465000D01*
X8251270Y37433250D01*
X8248900Y37401500D01*
X8239420Y37379270D01*
X8227570Y37360220D01*
X8213340Y37347520D01*
X8194380Y37338000D01*
X8146970D01*
G01X8389620D02*
X8370650Y37341170D01*
X8354060Y37353870D01*
X8339840Y37372920D01*
X8330350Y37395150D01*
X8325610Y37420550D01*
Y37445950D01*
X8330350Y37471350D01*
X8339840Y37493580D01*
X8354060Y37512620D01*
X8370650Y37525330D01*
X8389620Y37528500D01*
X8408580Y37525330D01*
X8425180Y37512620D01*
X8439400Y37493580D01*
X8448890Y37471350D01*
X8453630Y37445950D01*
Y37420550D01*
X8448890Y37395150D01*
X8439400Y37372920D01*
X8425180Y37353870D01*
X8408580Y37341170D01*
X8389620Y37338000D01*
G01X8530340Y37363390D02*
X8549300Y37347520D01*
X8570640Y37338000D01*
X8589600D01*
X8608570Y37347520D01*
X8622790Y37363390D01*
X8629900Y37385630D01*
X8625160Y37407850D01*
X8613310Y37426900D01*
X8591970Y37439600D01*
X8563530Y37445950D01*
X8546930Y37458650D01*
X8539820Y37480870D01*
X8544560Y37503100D01*
X8556410Y37518970D01*
X8573010Y37528500D01*
X8589600D01*
X8606200Y37522150D01*
X8620420Y37506270D01*
G01X8770620Y37528500D02*
Y37338000D01*
G01X8716100Y37528500D02*
X8825140D01*
G01X8932670D02*
X8989560D01*
G01X8961120D02*
Y37338000D01*
G01X8932670D02*
X8989560D01*
G01X9282850Y37528500D02*
X9342120Y37338000D01*
X9401390Y37528500D01*
G01X9470980Y37338000D02*
Y37528500D01*
X9532620Y37369750D01*
X9594260Y37528500D01*
Y37338000D01*
G01X9673340D02*
X9772900Y37528500D01*
G01X9673340D02*
X9772900Y37338000D01*
G01X9870950Y37274500D02*
Y37465000D01*
G01Y37436430D02*
X9882800Y37452300D01*
X9894650Y37461820D01*
X9913620Y37465000D01*
X9930210Y37461820D01*
X9946810Y37445950D01*
X9953920Y37423720D01*
X9956290Y37401500D01*
X9953920Y37379270D01*
X9946810Y37357050D01*
X9932580Y37344350D01*
X9913620Y37338000D01*
X9897030Y37341170D01*
X9880430Y37350700D01*
X9870950Y37363390D01*
G01X10146790Y37338000D02*
Y37465000D01*
G01Y37442780D02*
X10137310Y37455470D01*
X10123080Y37461820D01*
X10106490Y37465000D01*
X10089900Y37458650D01*
X10075670Y37445950D01*
X10066190Y37426900D01*
X10061450Y37401500D01*
X10066190Y37376100D01*
X10075670Y37357050D01*
X10089900Y37344350D01*
X10106490Y37338000D01*
X10123080Y37341170D01*
X10137310Y37350700D01*
X10146790Y37363390D01*
G01X10254320Y37338000D02*
Y37465000D01*
G01Y37433250D02*
X10263800Y37449120D01*
X10278030Y37461820D01*
X10296990Y37465000D01*
X10313580Y37461820D01*
X10327810Y37449120D01*
X10334920Y37426900D01*
Y37338000D01*
G01X10449560Y37360220D02*
X10461410Y37347520D01*
X10478010Y37338000D01*
X10492230D01*
X10506460Y37344350D01*
X10515940Y37353870D01*
X10520680Y37366570D01*
X10518310Y37385630D01*
X10508830Y37395150D01*
X10466150Y37414200D01*
X10456670Y37436430D01*
X10461410Y37452300D01*
X10470900Y37461820D01*
X10485120Y37465000D01*
X10499340Y37461820D01*
X10513570Y37452300D01*
G01X10675620Y37465000D02*
Y37338000D01*
G01Y37515800D02*
X10670880Y37518970D01*
Y37525330D01*
X10675620Y37528500D01*
X10680360Y37525330D01*
Y37518970D01*
X10675620Y37515800D01*
G01X10866120Y37338000D02*
X10851900Y37341170D01*
X10837670Y37353870D01*
X10828190Y37376100D01*
X10823450Y37401500D01*
X10828190Y37426900D01*
X10837670Y37449120D01*
X10851900Y37461820D01*
X10866120Y37465000D01*
X10880340Y37461820D01*
X10894570Y37449120D01*
X10904050Y37426900D01*
X10906420Y37401500D01*
X10904050Y37376100D01*
X10894570Y37353870D01*
X10880340Y37341170D01*
X10866120Y37338000D01*
G01X11016320D02*
Y37465000D01*
G01Y37433250D02*
X11025800Y37449120D01*
X11040030Y37461820D01*
X11058990Y37465000D01*
X11075580Y37461820D01*
X11089810Y37449120D01*
X11096920Y37426900D01*
Y37338000D01*
G01X11385470D02*
Y37528500D01*
G01X11475550D02*
X11385470Y37411020D01*
G01X11489770Y37338000D02*
X11425770Y37465000D01*
G01X11628120D02*
Y37338000D01*
G01Y37515800D02*
X11623380Y37518970D01*
Y37525330D01*
X11628120Y37528500D01*
X11632860Y37525330D01*
Y37518970D01*
X11628120Y37515800D01*
G01X11818620Y37528500D02*
Y37338000D01*
G01X11785430Y37465000D02*
X11851810D01*
G01X12156950D02*
X12199620Y37338000D01*
X12242290Y37465000D01*
G01X12390120Y37528500D02*
X12371150Y37522150D01*
X12356930Y37506270D01*
X12347450Y37487230D01*
X12340340Y37461820D01*
X12337970Y37433250D01*
X12340340Y37404670D01*
X12347450Y37379270D01*
X12356930Y37360220D01*
X12371150Y37344350D01*
X12390120Y37338000D01*
X12409080Y37344350D01*
X12423310Y37360220D01*
X12432790Y37379270D01*
X12439900Y37404670D01*
X12442270Y37433250D01*
X12439900Y37461820D01*
X12432790Y37487230D01*
X12423310Y37506270D01*
X12409080Y37522150D01*
X12390120Y37528500D01*
G01X12580620Y37331650D02*
X12575880Y37334830D01*
Y37341170D01*
X12580620Y37344350D01*
X12585360Y37341170D01*
Y37334830D01*
X12580620Y37331650D01*
G01X12771120Y37338000D02*
Y37528500D01*
X12742670Y37490400D01*
G01Y37338000D02*
X12799560D01*
G01X8149340Y37084000D02*
Y37274500D01*
G01X8248900D02*
Y37084000D01*
G01Y37179250D02*
X8149340D01*
G01X8432290Y37084000D02*
Y37211000D01*
G01Y37188780D02*
X8422810Y37201470D01*
X8408580Y37207820D01*
X8391990Y37211000D01*
X8375400Y37204650D01*
X8361170Y37191950D01*
X8351690Y37172900D01*
X8346950Y37147500D01*
X8351690Y37122100D01*
X8361170Y37103050D01*
X8375400Y37090350D01*
X8391990Y37084000D01*
X8408580Y37087170D01*
X8422810Y37096700D01*
X8432290Y37109390D01*
G01X8546930Y37084000D02*
Y37211000D01*
G01Y37185600D02*
X8558780Y37198300D01*
X8570640Y37207820D01*
X8587230Y37211000D01*
X8599080Y37207820D01*
X8613310Y37198300D01*
G01X8813290Y37274500D02*
Y37084000D01*
G01Y37112570D02*
X8803810Y37096700D01*
X8789580Y37087170D01*
X8772990Y37084000D01*
X8754030Y37090350D01*
X8739800Y37106220D01*
X8730320Y37125270D01*
X8727950Y37147500D01*
X8730320Y37169720D01*
X8739800Y37188780D01*
X8754030Y37204650D01*
X8772990Y37211000D01*
X8789580Y37207820D01*
X8801440Y37201470D01*
X8813290Y37188780D01*
G01X8901850Y37211000D02*
X8930300Y37084000D01*
X8961120Y37211000D01*
X8991940Y37084000D01*
X9020390Y37211000D01*
G01X9194290Y37084000D02*
Y37211000D01*
G01Y37188780D02*
X9184810Y37201470D01*
X9170580Y37207820D01*
X9153990Y37211000D01*
X9137400Y37204650D01*
X9123170Y37191950D01*
X9113690Y37172900D01*
X9108950Y37147500D01*
X9113690Y37122100D01*
X9123170Y37103050D01*
X9137400Y37090350D01*
X9153990Y37084000D01*
X9170580Y37087170D01*
X9184810Y37096700D01*
X9194290Y37109390D01*
G01X9308930Y37084000D02*
Y37211000D01*
G01Y37185600D02*
X9320780Y37198300D01*
X9332640Y37207820D01*
X9349230Y37211000D01*
X9361080Y37207820D01*
X9375310Y37198300D01*
G01X9497060Y37169720D02*
X9572920D01*
X9565810Y37191950D01*
X9553960Y37204650D01*
X9537360Y37211000D01*
X9520770Y37207820D01*
X9506540Y37198300D01*
X9497060Y37176070D01*
X9492320Y37157020D01*
Y37137980D01*
X9497060Y37118920D01*
X9508910Y37099870D01*
X9523140Y37087170D01*
X9539730Y37084000D01*
X9556330Y37090350D01*
X9572920Y37109390D01*
G01X9861470Y37084000D02*
Y37274500D01*
X9908880D01*
X9927840Y37264970D01*
X9942070Y37252270D01*
X9953920Y37233230D01*
X9963400Y37211000D01*
X9965770Y37179250D01*
X9963400Y37147500D01*
X9953920Y37125270D01*
X9942070Y37106220D01*
X9927840Y37093520D01*
X9908880Y37084000D01*
X9861470D01*
G01X10068560Y37169720D02*
X10144420D01*
X10137310Y37191950D01*
X10125460Y37204650D01*
X10108860Y37211000D01*
X10092270Y37207820D01*
X10078040Y37198300D01*
X10068560Y37176070D01*
X10063820Y37157020D01*
Y37137980D01*
X10068560Y37118920D01*
X10080410Y37099870D01*
X10094640Y37087170D01*
X10111230Y37084000D01*
X10127830Y37090350D01*
X10144420Y37109390D01*
G01X10251950Y37211000D02*
X10294620Y37084000D01*
X10337290Y37211000D01*
G01X10449560Y37169720D02*
X10525420D01*
X10518310Y37191950D01*
X10506460Y37204650D01*
X10489860Y37211000D01*
X10473270Y37207820D01*
X10459040Y37198300D01*
X10449560Y37176070D01*
X10444820Y37157020D01*
Y37137980D01*
X10449560Y37118920D01*
X10461410Y37099870D01*
X10475640Y37087170D01*
X10492230Y37084000D01*
X10508830Y37090350D01*
X10525420Y37109390D01*
G01X10675620Y37084000D02*
Y37274500D01*
G01X10866120Y37084000D02*
X10851900Y37087170D01*
X10837670Y37099870D01*
X10828190Y37122100D01*
X10823450Y37147500D01*
X10828190Y37172900D01*
X10837670Y37195120D01*
X10851900Y37207820D01*
X10866120Y37211000D01*
X10880340Y37207820D01*
X10894570Y37195120D01*
X10904050Y37172900D01*
X10906420Y37147500D01*
X10904050Y37122100D01*
X10894570Y37099870D01*
X10880340Y37087170D01*
X10866120Y37084000D01*
G01X11013950Y37020500D02*
Y37211000D01*
G01Y37182430D02*
X11025800Y37198300D01*
X11037650Y37207820D01*
X11056620Y37211000D01*
X11073210Y37207820D01*
X11089810Y37191950D01*
X11096920Y37169720D01*
X11099290Y37147500D01*
X11096920Y37125270D01*
X11089810Y37103050D01*
X11075580Y37090350D01*
X11056620Y37084000D01*
X11040030Y37087170D01*
X11023430Y37096700D01*
X11013950Y37109390D01*
G01X11176000Y37084000D02*
Y37211000D01*
G01Y37176070D02*
X11183110Y37191950D01*
X11194970Y37204650D01*
X11211560Y37211000D01*
X11228150Y37204650D01*
X11240010Y37191950D01*
X11247120Y37176070D01*
Y37084000D01*
G01Y37176070D02*
X11254230Y37191950D01*
X11266080Y37204650D01*
X11282680Y37211000D01*
X11299270Y37204650D01*
X11311130Y37191950D01*
X11318240Y37172900D01*
Y37084000D01*
G01X11402060Y37169720D02*
X11477920D01*
X11470810Y37191950D01*
X11458960Y37204650D01*
X11442360Y37211000D01*
X11425770Y37207820D01*
X11411540Y37198300D01*
X11402060Y37176070D01*
X11397320Y37157020D01*
Y37137980D01*
X11402060Y37118920D01*
X11413910Y37099870D01*
X11428140Y37087170D01*
X11444730Y37084000D01*
X11461330Y37090350D01*
X11477920Y37109390D01*
G01X11587820Y37084000D02*
Y37211000D01*
G01Y37179250D02*
X11597300Y37195120D01*
X11611530Y37207820D01*
X11630490Y37211000D01*
X11647080Y37207820D01*
X11661310Y37195120D01*
X11668420Y37172900D01*
Y37084000D01*
G01X11818620Y37274500D02*
Y37084000D01*
G01X11785430Y37211000D02*
X11851810D01*
G01X12147470Y37084000D02*
Y37274500D01*
G01X12237550D02*
X12147470Y37157020D01*
G01X12251770Y37084000D02*
X12187770Y37211000D01*
G01X12390120D02*
Y37084000D01*
G01Y37261800D02*
X12385380Y37264970D01*
Y37271330D01*
X12390120Y37274500D01*
X12394860Y37271330D01*
Y37264970D01*
X12390120Y37261800D01*
G01X12580620Y37274500D02*
Y37084000D01*
G01X12547430Y37211000D02*
X12613810D01*
G01X8645740Y24907750D02*
X8650610Y24899870D01*
X8656450Y24894620D01*
X8663260Y24892000D01*
X8671050Y24894620D01*
X8676890Y24899870D01*
X8682740Y24907750D01*
X8684680Y24918250D01*
Y24970740D01*
G01X8742000Y24892000D02*
X8743950Y24909060D01*
X8746870Y24923490D01*
X8750770Y24936620D01*
X8755630Y24951050D01*
X8763420Y24970740D01*
X8724480D01*
G01X10169740Y24907750D02*
X10174610Y24899870D01*
X10180450Y24894620D01*
X10187260Y24892000D01*
X10195050Y24894620D01*
X10200890Y24899870D01*
X10206740Y24907750D01*
X10208680Y24918250D01*
Y24970740D01*
G01X10267950Y24892000D02*
X10274770Y24893310D01*
X10282550Y24897250D01*
X10287420Y24903810D01*
X10289370Y24913000D01*
X10287420Y24922180D01*
X10281580Y24930060D01*
X10272820Y24934000D01*
X10263080D01*
X10257240Y24936620D01*
X10252370Y24943180D01*
X10250420Y24952370D01*
X10253350Y24961550D01*
X10260160Y24968120D01*
X10267950Y24970740D01*
X10275740Y24968120D01*
X10282550Y24961550D01*
X10285480Y24952370D01*
X10283530Y24943180D01*
X10278660Y24936620D01*
X10272820Y24934000D01*
X10263080D01*
X10254320Y24930060D01*
X10248480Y24922180D01*
X10246530Y24913000D01*
X10248480Y24903810D01*
X10253350Y24897250D01*
X10261130Y24893310D01*
X10267950Y24892000D01*
G01X10331260Y38914250D02*
X10326390Y38922130D01*
X10320550Y38927380D01*
X10313740Y38930000D01*
X10305950Y38927380D01*
X10300110Y38922130D01*
X10294260Y38914250D01*
X10292320Y38903750D01*
Y38851260D01*
G01X10251550Y38864380D02*
X10245710Y38856510D01*
X10238890Y38852570D01*
X10231100Y38851260D01*
X10221370Y38853880D01*
X10214550Y38860450D01*
X10212600Y38868320D01*
X10213580Y38876200D01*
X10217470Y38882760D01*
X10236940Y38895880D01*
X10245710Y38905070D01*
X10251550Y38918190D01*
X10253500Y38930000D01*
X10212600D01*
G01X11693740Y24907750D02*
X11698610Y24899870D01*
X11704450Y24894620D01*
X11711260Y24892000D01*
X11719050Y24894620D01*
X11724890Y24899870D01*
X11730740Y24907750D01*
X11732680Y24918250D01*
Y24970740D01*
G01X11775400Y24901180D02*
X11782210Y24894620D01*
X11790000Y24892000D01*
X11797790Y24894620D01*
X11804610Y24902500D01*
X11809480Y24914310D01*
X11811420Y24926120D01*
Y24940560D01*
X11809480Y24952370D01*
X11804610Y24962870D01*
X11798770Y24968120D01*
X11791950Y24970740D01*
X11784160Y24968120D01*
X11778320Y24962870D01*
X11774420Y24954990D01*
X11772480Y24944490D01*
X11774420Y24935310D01*
X11779290Y24926120D01*
X11785130Y24920870D01*
X11791950Y24919560D01*
X11799740Y24922180D01*
X11805580Y24928740D01*
X11811420Y24940560D01*
G01X11813260Y38914250D02*
X11808390Y38922130D01*
X11802550Y38927380D01*
X11795740Y38930000D01*
X11787950Y38927380D01*
X11782110Y38922130D01*
X11776260Y38914250D01*
X11774320Y38903750D01*
Y38851260D01*
G01X11736470Y38914250D02*
X11730630Y38923440D01*
X11722840Y38928690D01*
X11714080Y38930000D01*
X11706290Y38928690D01*
X11698500Y38922130D01*
X11693630Y38914250D01*
X11692660Y38906380D01*
X11694600Y38897190D01*
X11701420Y38890630D01*
X11708230Y38888000D01*
X11717000D01*
G01X11708230D02*
X11702390Y38884070D01*
X11697520Y38877510D01*
X11695580Y38869630D01*
X11697520Y38861760D01*
X11702390Y38855200D01*
X11711160Y38851260D01*
X11719920Y38852570D01*
X11728680Y38857820D01*
G01X13295260Y38914250D02*
X13290390Y38922130D01*
X13284550Y38927380D01*
X13277740Y38930000D01*
X13269950Y38927380D01*
X13264110Y38922130D01*
X13258260Y38914250D01*
X13256320Y38903750D01*
Y38851260D01*
G01X13185370Y38930000D02*
Y38851260D01*
X13221390Y38907690D01*
X13172710D01*
G01X14233740Y24907750D02*
X14238610Y24899870D01*
X14244450Y24894620D01*
X14251260Y24892000D01*
X14259050Y24894620D01*
X14264890Y24899870D01*
X14270740Y24907750D01*
X14272680Y24918250D01*
Y24970740D01*
G01X14331950Y24892000D02*
Y24970740D01*
X14320270Y24954990D01*
G01Y24892000D02*
X14343630D01*
G01X14410690Y24970740D02*
X14402900Y24968120D01*
X14397060Y24961550D01*
X14393160Y24953680D01*
X14390240Y24943180D01*
X14389270Y24931370D01*
X14390240Y24919560D01*
X14393160Y24909060D01*
X14397060Y24901180D01*
X14402900Y24894620D01*
X14410690Y24892000D01*
X14418480Y24894620D01*
X14424320Y24901180D01*
X14428220Y24909060D01*
X14431140Y24919560D01*
X14432110Y24931370D01*
X14431140Y24943180D01*
X14428220Y24953680D01*
X14424320Y24961550D01*
X14418480Y24968120D01*
X14410690Y24970740D01*
G01X14777260Y38914250D02*
X14772390Y38922130D01*
X14766550Y38927380D01*
X14759740Y38930000D01*
X14751950Y38927380D01*
X14746110Y38922130D01*
X14740260Y38914250D01*
X14738320Y38903750D01*
Y38851260D01*
G01X14700470Y38918190D02*
X14694630Y38924750D01*
X14687810Y38928690D01*
X14679050Y38930000D01*
X14670290Y38927380D01*
X14663470Y38922130D01*
X14658600Y38912940D01*
X14657630Y38902440D01*
X14659580Y38891940D01*
X14664450Y38885380D01*
X14671260Y38880130D01*
X14678080Y38878820D01*
X14684890Y38880130D01*
X14693650Y38885380D01*
X14690730Y38851260D01*
X14664450D01*
G01X15478250Y25155740D02*
X15486130Y25160610D01*
X15491380Y25166450D01*
X15494000Y25173260D01*
X15491380Y25181050D01*
X15486130Y25186890D01*
X15478250Y25192740D01*
X15467750Y25194680D01*
X15415260D01*
G01X15494000Y25253950D02*
X15415260D01*
X15431010Y25242270D01*
G01X15494000D02*
Y25265630D01*
G01X15428380Y25314190D02*
X15420510Y25320030D01*
X15416570Y25326850D01*
X15415260Y25334640D01*
X15417880Y25344370D01*
X15424450Y25351190D01*
X15432320Y25353140D01*
X15440200Y25352160D01*
X15446760Y25348270D01*
X15459880Y25328800D01*
X15469070Y25320030D01*
X15482190Y25314190D01*
X15494000Y25312240D01*
Y25353140D01*
G01X15478250Y26679740D02*
X15486130Y26684610D01*
X15491380Y26690450D01*
X15494000Y26697260D01*
X15491380Y26705050D01*
X15486130Y26710890D01*
X15478250Y26716740D01*
X15467750Y26718680D01*
X15415260D01*
G01X15494000Y26777950D02*
X15415260D01*
X15431010Y26766270D01*
G01X15494000D02*
Y26789630D01*
G01X15478250Y26835270D02*
X15487440Y26841110D01*
X15492690Y26848900D01*
X15494000Y26857660D01*
X15492690Y26865450D01*
X15486130Y26873240D01*
X15478250Y26878110D01*
X15470380Y26879080D01*
X15461190Y26877140D01*
X15454630Y26870320D01*
X15452000Y26863510D01*
Y26854740D01*
G01Y26863510D02*
X15448070Y26869350D01*
X15441510Y26874220D01*
X15433630Y26876160D01*
X15425760Y26874220D01*
X15419200Y26869350D01*
X15415260Y26860580D01*
X15416570Y26851820D01*
X15421820Y26843060D01*
G01X15478250Y28203740D02*
X15486130Y28208610D01*
X15491380Y28214450D01*
X15494000Y28221260D01*
X15491380Y28229050D01*
X15486130Y28234890D01*
X15478250Y28240740D01*
X15467750Y28242680D01*
X15415260D01*
G01X15494000Y28301950D02*
X15415260D01*
X15431010Y28290270D01*
G01X15494000D02*
Y28313630D01*
G01Y28392370D02*
X15415260D01*
X15471690Y28356350D01*
Y28405030D01*
G01X15478250Y29727740D02*
X15486130Y29732610D01*
X15491380Y29738450D01*
X15494000Y29745260D01*
X15491380Y29753050D01*
X15486130Y29758890D01*
X15478250Y29764740D01*
X15467750Y29766680D01*
X15415260D01*
G01X15494000Y29825950D02*
X15415260D01*
X15431010Y29814270D01*
G01X15494000D02*
Y29837630D01*
G01X15482190Y29883270D02*
X15488750Y29889110D01*
X15492690Y29895930D01*
X15494000Y29904690D01*
X15491380Y29913450D01*
X15486130Y29920270D01*
X15476940Y29925140D01*
X15466440Y29926110D01*
X15455940Y29924160D01*
X15449380Y29919290D01*
X15444130Y29912480D01*
X15442820Y29905660D01*
X15444130Y29898850D01*
X15449380Y29890090D01*
X15415260Y29893010D01*
Y29919290D01*
G01X15478250Y30997740D02*
X15486130Y31002610D01*
X15491380Y31008450D01*
X15494000Y31015260D01*
X15491380Y31023050D01*
X15486130Y31028890D01*
X15478250Y31034740D01*
X15467750Y31036680D01*
X15415260D01*
G01X15494000Y31095950D02*
X15415260D01*
X15431010Y31084270D01*
G01X15494000D02*
Y31107630D01*
G01X15461190Y31156190D02*
X15452000Y31163010D01*
X15446760Y31168850D01*
X15444130Y31176640D01*
X15446760Y31183450D01*
X15452000Y31188320D01*
X15459880Y31192220D01*
X15469070Y31193190D01*
X15476940Y31192220D01*
X15484820Y31188320D01*
X15491380Y31182480D01*
X15494000Y31175660D01*
X15491380Y31167870D01*
X15483500Y31161060D01*
X15471690Y31157160D01*
X15458570Y31156190D01*
X15441510Y31158140D01*
X15432320Y31161060D01*
X15423130Y31165930D01*
X15416570Y31172740D01*
X15415260Y31179560D01*
X15417880Y31186370D01*
X15424450Y31191240D01*
G01X15478250Y32521740D02*
X15486130Y32526610D01*
X15491380Y32532450D01*
X15494000Y32539260D01*
X15491380Y32547050D01*
X15486130Y32552890D01*
X15478250Y32558740D01*
X15467750Y32560680D01*
X15415260D01*
G01X15494000Y32619950D02*
X15415260D01*
X15431010Y32608270D01*
G01X15494000D02*
Y32631630D01*
G01Y32696740D02*
X15476940Y32698690D01*
X15462510Y32701610D01*
X15449380Y32705510D01*
X15434950Y32710370D01*
X15415260Y32718160D01*
Y32679220D01*
G01X15478250Y34045740D02*
X15486130Y34050610D01*
X15491380Y34056450D01*
X15494000Y34063260D01*
X15491380Y34071050D01*
X15486130Y34076890D01*
X15478250Y34082740D01*
X15467750Y34084680D01*
X15415260D01*
G01X15494000Y34143950D02*
X15415260D01*
X15431010Y34132270D01*
G01X15494000D02*
Y34155630D01*
G01Y34222690D02*
X15492690Y34229510D01*
X15488750Y34237290D01*
X15482190Y34242160D01*
X15473000Y34244110D01*
X15463820Y34242160D01*
X15455940Y34236320D01*
X15452000Y34227560D01*
Y34217820D01*
X15449380Y34211980D01*
X15442820Y34207110D01*
X15433630Y34205160D01*
X15424450Y34208090D01*
X15417880Y34214900D01*
X15415260Y34222690D01*
X15417880Y34230480D01*
X15424450Y34237290D01*
X15433630Y34240220D01*
X15442820Y34238270D01*
X15449380Y34233400D01*
X15452000Y34227560D01*
Y34217820D01*
X15455940Y34209060D01*
X15463820Y34203220D01*
X15473000Y34201270D01*
X15482190Y34203220D01*
X15488750Y34208090D01*
X15492690Y34215870D01*
X15494000Y34222690D01*
G01X15478250Y35569740D02*
X15486130Y35574610D01*
X15491380Y35580450D01*
X15494000Y35587260D01*
X15491380Y35595050D01*
X15486130Y35600890D01*
X15478250Y35606740D01*
X15467750Y35608680D01*
X15415260D01*
G01X15494000Y35667950D02*
X15415260D01*
X15431010Y35656270D01*
G01X15494000D02*
Y35679630D01*
G01X15484820Y35730140D02*
X15491380Y35736950D01*
X15494000Y35744740D01*
X15491380Y35752530D01*
X15483500Y35759350D01*
X15471690Y35764220D01*
X15459880Y35766160D01*
X15445440D01*
X15433630Y35764220D01*
X15423130Y35759350D01*
X15417880Y35753510D01*
X15415260Y35746690D01*
X15417880Y35738900D01*
X15423130Y35733060D01*
X15431010Y35729160D01*
X15441510Y35727220D01*
X15450690Y35729160D01*
X15459880Y35734030D01*
X15465130Y35739870D01*
X15466440Y35746690D01*
X15463820Y35754480D01*
X15457260Y35760320D01*
X15445440Y35766160D01*
G01X15478250Y37093740D02*
X15486130Y37098610D01*
X15491380Y37104450D01*
X15494000Y37111260D01*
X15491380Y37119050D01*
X15486130Y37124890D01*
X15478250Y37130740D01*
X15467750Y37132680D01*
X15415260D01*
G01X15428380Y37173450D02*
X15420510Y37179290D01*
X15416570Y37186110D01*
X15415260Y37193900D01*
X15417880Y37203630D01*
X15424450Y37210450D01*
X15432320Y37212400D01*
X15440200Y37211420D01*
X15446760Y37207530D01*
X15459880Y37188060D01*
X15469070Y37179290D01*
X15482190Y37173450D01*
X15494000Y37171500D01*
Y37212400D01*
G01X15415260Y37270690D02*
X15417880Y37262900D01*
X15424450Y37257060D01*
X15432320Y37253160D01*
X15442820Y37250240D01*
X15454630Y37249270D01*
X15466440Y37250240D01*
X15476940Y37253160D01*
X15484820Y37257060D01*
X15491380Y37262900D01*
X15494000Y37270690D01*
X15491380Y37278480D01*
X15484820Y37284320D01*
X15476940Y37288220D01*
X15466440Y37291140D01*
X15454630Y37292110D01*
X15442820Y37291140D01*
X15432320Y37288220D01*
X15424450Y37284320D01*
X15417880Y37278480D01*
X15415260Y37270690D01*
M02*
